<svg xmlns="http://www.w3.org/2000/svg" viewBox="0,0,800,500" preserveAspectRatio="xMidYMid meet">
    <line class="grid-line" x1="81" y1="420" x2="770" y2="420" fill="none" stroke="#64748b" stroke-opacity="0.1">
    </line>
    <line class="grid-line" x1="81" y1="379" x2="770" y2="379" fill="none" stroke="#64748b" stroke-opacity="0.1">
    </line>
    <line class="grid-line" x1="81" y1="338" x2="770" y2="338" fill="none" stroke="#64748b" stroke-opacity="0.1">
    </line>
    <line class="grid-line" x1="81" y1="297" x2="770" y2="297" fill="none" stroke="#64748b" stroke-opacity="0.1">
    </line>
    <line class="grid-line" x1="81" y1="256" x2="770" y2="256" fill="none" stroke="#64748b" stroke-opacity="0.1">
    </line>
    <line class="grid-line" x1="81" y1="215" x2="770" y2="215" fill="none" stroke="#64748b" stroke-opacity="0.1">
    </line>
    <line class="grid-line" x1="81" y1="174" x2="770" y2="174" fill="none" stroke="#64748b" stroke-opacity="0.1">
    </line>
    <line class="grid-line" x1="81" y1="133" x2="770" y2="133" fill="none" stroke="#64748b" stroke-opacity="0.1">
    </line>
    <line class="grid-line" x1="81" y1="91.99999999999999" x2="770" y2="91.99999999999999" fill="none" stroke="#64748b"
        stroke-opacity="0.1"></line>
    <line class="grid-line" x1="81" y1="50.99999999999999" x2="770" y2="50.99999999999999" fill="none" stroke="#64748b"
        stroke-opacity="0.1"></line>

    <text x="100" y="30" text-anchor="start" fill="#b45309" font-family="monospace" font-size="20">
        ethr-goerli
    </text>
    <path
        d="M80,393.145C80.64066852367688,393.145,81.28133704735376,393.145,81.92200557103064,393.145C82.56267409470752,393.145,83.2033426183844,393.145,83.84401114206128,393.145C84.48467966573816,393.145,85.12534818941504,393.145,85.76601671309191,393.145C86.4066852367688,393.145,87.04735376044569,393.145,87.68802228412257,393.145C88.32869080779945,393.145,88.96935933147633,392.94,89.6100278551532,392.94C90.25069637883009,392.94,90.89136490250698,392.94,91.53203342618386,392.94C92.17270194986074,392.94,92.8133704735376,392.94,93.45403899721448,392.94C94.09470752089136,392.94,94.73537604456824,392.94,95.37604456824512,392.94C96.016713091922,392.94,96.6573816155989,392.94,97.29805013927577,392.94C97.93871866295265,392.94,98.57938718662953,392.94,99.22005571030641,392.94C99.86072423398329,392.94,100.50139275766017,392.94,101.14206128133705,392.94C101.78272980501393,392.94,102.42339832869081,392.94,103.06406685236769,392.94C103.70473537604457,392.94,104.34540389972145,392.94,104.98607242339833,392.94C105.6267409470752,392.94,106.2674094707521,392.94,106.90807799442898,392.94C107.54874651810586,392.94,108.18941504178272,392.94,108.8300835654596,392.94C109.47075208913648,392.94,110.11142061281336,392.94,110.75208913649024,392.94C111.39275766016712,392.94,112.03342618384401,392.94,112.6740947075209,392.94C113.31476323119777,392.94,113.95543175487465,392.94,114.59610027855153,392.94C115.23676880222841,392.94,115.8774373259053,392.94,116.51810584958218,392.94C117.15877437325906,392.94,117.79944289693593,392.94,118.44011142061281,392.94C119.08077994428969,392.94,119.72144846796658,392.94,120.36211699164346,392.94C121.00278551532034,392.94,121.64345403899722,392.94,122.2841225626741,392.94C122.92479108635098,392.94,123.56545961002786,392.735,124.20612813370474,392.735C124.84679665738162,392.735,125.4874651810585,392.735,126.12813370473538,392.735C126.76880222841226,392.735,127.40947075208913,392.735,128.050139275766,392.735C128.6908077994429,392.735,129.33147632311977,392.735,129.97214484679665,392.735C130.61281337047353,392.735,131.2534818941504,392.735,131.8941504178273,392.735C132.53481894150417,392.735,133.17548746518105,392.735,133.81615598885793,392.735C134.4568245125348,392.735,135.0974930362117,392.735,135.73816155988857,392.735C136.37883008356545,392.735,137.01949860724233,392.735,137.6601671309192,392.735C138.30083565459609,392.735,138.941504178273,390.82166666666654,139.58217270194987,390.68499999999995C140.22284122562675,390.54833333333335,140.8635097493036,390.4800000000001,141.50417827298048,390.4800000000001C142.14484679665736,390.4800000000001,142.78551532033427,390.4800000000001,143.42618384401115,390.4800000000001C144.06685236768803,390.4800000000001,144.7075208913649,390.4800000000001,145.3481894150418,390.4800000000001C145.98885793871867,390.4800000000001,146.62952646239555,390.27500000000003,147.27019498607243,390.27500000000003C147.9108635097493,390.27500000000003,148.55153203342616,390.27500000000003,149.19220055710304,390.27500000000003C149.83286908077991,390.27500000000003,150.47353760445682,390.27500000000003,151.1142061281337,390.27500000000003C151.75487465181058,390.27500000000003,152.39554317548746,389.455,153.03621169916434,389.455C153.67688022284122,389.455,154.31754874651813,389.455,154.958217270195,389.455C155.5988857938719,389.455,156.23955431754877,389.455,156.88022284122565,389.455C157.52089136490252,389.455,158.16155988857938,389.455,158.80222841225626,389.455C159.44289693593313,389.455,160.08356545961004,389.045,160.72423398328692,388.84000000000003C161.3649025069638,388.63500000000005,162.00557103064068,388.42999999999995,162.64623955431756,388.22499999999997C163.28690807799444,388.02,163.92757660167132,387.61,164.5682451253482,387.61C165.20891364902508,387.61,165.84958217270196,387.61,166.49025069637884,387.61C167.13091922005572,387.61,167.7715877437326,387.40500000000003,168.41225626740948,387.40500000000003C169.05292479108635,387.40500000000003,169.69359331476323,387.40500000000003,170.3342618384401,387.40500000000003C170.974930362117,387.40500000000003,171.61559888579387,387.40500000000003,172.25626740947075,387.40500000000003C172.89693593314763,387.40500000000003,173.5376044568245,387.40500000000003,174.1782729805014,387.40500000000003C174.81894150417827,387.40500000000003,175.45961002785515,387.40500000000003,176.10027855153203,387.40500000000003C176.7409470752089,387.40500000000003,177.3816155988858,387.20000000000005,178.02228412256267,387.20000000000005C178.66295264623955,387.20000000000005,179.30362116991643,387.20000000000005,179.9442896935933,387.20000000000005C180.58495821727018,387.20000000000005,181.22562674094706,387.20000000000005,181.86629526462394,387.20000000000005C182.50696378830082,387.20000000000005,183.14763231197773,387.20000000000005,183.7883008356546,387.20000000000005C184.4289693593315,387.20000000000005,185.06963788300834,387.20000000000005,185.71030640668522,387.20000000000005C186.3509749303621,387.20000000000005,186.991643454039,387.20000000000005,187.6323119777159,387.20000000000005C188.27298050139277,387.20000000000005,188.91364902506962,387.0975,189.5543175487465,386.995C190.19498607242338,386.8925,190.83565459610028,386.6875,191.47632311977716,386.585C192.11699164345404,386.48249999999996,192.7576601671309,386.51666666666665,193.39832869080777,386.38C194.03899721448465,386.24333333333334,194.67966573816156,385.765,195.32033426183844,385.765C195.96100278551532,385.765,196.60167130919217,385.765,197.24233983286905,385.765C197.88300835654596,385.765,198.52367688022284,385.765,199.16434540389974,385.765C199.80501392757662,385.765,200.44568245125348,385.765,201.08635097493035,385.765C201.72701949860723,385.765,202.36768802228414,385.765,203.00835654596102,385.765C203.6490250696379,385.765,204.28969359331475,385.765,204.93036211699163,385.765C205.5710306406685,385.765,206.2116991643454,385.56,206.85236768802227,385.56C207.49303621169915,385.56,208.13370473537606,385.56,208.77437325905294,385.56C209.41504178272982,385.56,210.0557103064067,385.56,210.69637883008357,385.56C211.33704735376045,385.56,211.97771587743733,385.56,212.6183844011142,385.56C213.2590529247911,385.56,213.89972144846797,385.56,214.54038997214485,385.56C215.18105849582173,385.56,215.8217270194986,385.56,216.4623955431755,385.56C217.10306406685237,385.56,217.74373259052925,385.56,218.38440111420613,385.56C219.025069637883,385.56,219.66573816155991,385.25250000000005,220.3064066852368,385.15000000000003C220.94707520891367,385.0475,221.58774373259052,384.945,222.2284122562674,384.945C222.86908077994428,384.945,223.5097493036212,384.945,224.15041782729807,384.945C224.79108635097495,384.945,225.4317548746518,384.535,226.07242339832868,384.535C226.71309192200556,384.535,227.35376044568244,384.535,227.99442896935932,384.535C228.6350974930362,384.535,229.27576601671308,384.39833333333337,229.91643454038996,384.33000000000004C230.55710306406684,384.2616666666667,231.19777158774374,384.125,231.83844011142062,384.125C232.4791086350975,384.125,233.11977715877435,384.125,233.76044568245123,384.125C234.4011142061281,384.125,235.04178272980502,384.125,235.6824512534819,384.125C236.32311977715878,384.125,236.96378830083563,384.125,237.6044568245125,384.125C238.2451253481894,384.125,238.88579387186627,384.125,239.52646239554315,384.125C240.16713091922003,384.125,240.80779944289694,383.0316666666667,241.44846796657382,382.485C242.0891364902507,381.93833333333333,242.7298050139276,381.11833333333334,243.37047353760448,380.84499999999997C244.01114206128136,380.5716666666666,244.6518105849582,380.5716666666666,245.2924791086351,380.43499999999995C245.93314763231197,380.2983333333333,246.57381615598885,380.02500000000003,247.21448467966573,380.02500000000003C247.8551532033426,380.02500000000003,248.49582172701952,380.02500000000003,249.1364902506964,380.02500000000003C249.77715877437328,380.02500000000003,250.41782729805016,380.02500000000003,251.05849582172704,380.02500000000003C251.69916434540391,380.02500000000003,252.3398328690808,379.92250000000007,252.98050139275767,379.82000000000005C253.62116991643455,379.71750000000003,254.26183844011143,379.51250000000005,254.9025069637883,379.41C255.5431754874652,379.3075,256.18384401114207,379.3416666666667,256.82451253481895,379.205C257.46518105849583,379.06833333333327,258.1058495821727,378.6925,258.7465181058496,378.18C259.38718662952647,377.6675,260.02785515320335,376.13,260.6685236768802,376.13C261.3091922005571,376.13,261.949860724234,376.13,262.59052924791087,376.13C263.23119777158774,376.13,263.8718662952646,375.6175,264.5125348189415,375.31C265.1532033426184,375.0025,265.79387186629526,374.6608333333333,266.43454038997214,374.28499999999997C267.075208913649,373.90916666666664,267.7158774373259,373.4991666666666,268.3565459610028,373.05499999999995C268.99721448467966,372.6108333333333,269.63788300835654,372.03,270.2785515320334,371.62C270.9192200557103,371.21000000000004,271.5598885793872,370.9025,272.20055710306406,370.59499999999997C272.84122562674094,370.28749999999997,273.4818941504179,369.97999999999996,274.12256267409475,369.775C274.76323119777163,369.57,275.40389972144845,369.4675,276.04456824512533,369.365C276.6852367688022,369.2625,277.3259052924791,369.22833333333335,277.966573816156,369.16C278.60724233983285,369.0916666666667,279.24791086350973,369.0916666666667,279.8885793871866,368.955C280.5292479108635,368.81833333333327,281.1699164345404,367.21250000000003,281.8105849582173,366.495C282.4512534818942,365.77750000000003,283.091922005571,364.7866666666667,283.7325905292479,364.65000000000003C284.37325905292477,364.5133333333334,285.0139275766017,364.5133333333334,285.6545961002786,364.44500000000005C286.29526462395546,364.3766666666667,286.93593314763234,364.3766666666667,287.5766016713092,364.24C288.2172701949861,364.1033333333333,288.857938718663,363.2833333333333,289.49860724233986,363.01C290.13927576601674,362.7366666666667,290.77994428969356,362.87333333333333,291.42061281337044,362.59999999999997C292.0612813370473,362.3266666666666,292.70194986072426,361.37,293.34261838440113,360.755C293.983286908078,360.14,294.6239554317549,360.14,295.2646239554318,358.91C295.90529247910865,357.68000000000006,296.54596100278553,353.6141666666667,297.1866295264624,351.735C297.8272980501393,349.8558333333334,298.4679665738161,348.7283333333333,299.108635097493,347.635C299.7493036211699,346.54166666666663,300.3899721448468,345.89250000000004,301.0306406685237,345.175C301.67130919220057,344.45750000000004,302.31197771587745,343.46666666666664,302.9526462395543,343.33C303.5933147632312,343.1933333333333,304.2339832869081,343.125,304.87465181058496,343.125C305.51532033426184,343.125,306.1559888579387,343.125,306.7966573816156,343.125C307.4373259052925,343.125,308.07799442896936,342.85166666666663,308.71866295264624,342.715C309.3593314763231,342.5783333333333,310,342.5783333333333,310.6406685236769,342.305C311.28133704735376,342.0316666666667,311.92200557103064,341.1433333333333,312.5626740947075,340.87C313.2033426183844,340.5966666666667,313.8440111420612,340.6308333333334,314.4846796657381,340.46000000000004C315.125348189415,340.2891666666667,315.7660167130919,339.84499999999997,316.4066852367688,339.84499999999997C317.0473537604457,339.84499999999997,317.6880222841226,339.84499999999997,318.3286908077995,339.84499999999997C318.96935933147637,339.84499999999997,319.6100278551532,339.84499999999997,320.25069637883007,339.84499999999997C320.89136490250695,339.84499999999997,321.53203342618383,338.37583333333333,322.1727019498607,337.385C322.8133704735376,336.39416666666665,323.45403899721447,335.4375,324.09470752089135,333.90000000000003C324.7353760445682,332.3625,325.37604456824516,329.80000000000007,326.01671309192204,328.16C326.6573816155989,326.5200000000001,327.29805013927574,325.7,327.9387186629526,324.06C328.5793871866295,322.41999999999996,329.2200557103064,320.3016666666667,329.86072423398326,318.32C330.50139275766014,316.3383333333333,331.142061281337,312.17,331.7827298050139,312.17C332.4233983286908,312.17,333.06406685236766,312.17,333.70473537604454,312.17C334.3454038997214,312.17,334.98607242339835,307.04500000000013,335.62674094707523,305.81500000000005C336.2674094707521,304.58500000000004,336.908077994429,304.2433333333334,337.5487465181059,303.97C338.18941504178275,303.69666666666666,338.8300835654596,303.8333333333333,339.47075208913645,303.55999999999995C340.11142061281333,303.2866666666665,340.75208913649027,302.56916666666666,341.39275766016715,301.715C342.033426183844,300.86083333333335,342.6740947075209,298.435,343.3147632311978,298.435C343.95543175487467,298.435,344.59610027855155,298.435,345.2367688022284,298.435C345.8774373259053,298.435,346.5181058495822,297.17083333333335,347.15877437325906,296.59000000000003C347.79944289693594,296.0091666666667,348.4401114206128,295.6675,349.0807799442897,294.95000000000005C349.7214484679666,294.2325000000001,350.36211699164346,292.285,351.00278551532034,292.285C351.6434540389972,292.285,352.2841225626741,292.285,352.924791086351,292.285C353.56545961002786,292.285,354.20612813370474,291.67,354.8467966573816,291.26C355.4874651810585,290.84999999999997,356.1281337047354,289.96166666666664,356.76880222841226,289.825C357.40947075208913,289.68833333333333,358.050139275766,289.62,358.6908077994429,289.62C359.3314763231198,289.62,359.9721448467967,289.62,360.6128133704736,289.62C361.2534818941504,289.62,361.8941504178273,289.5516666666667,362.5348189415041,289.415C363.175487465181,289.27833333333336,363.81615598885793,288.9708333333333,364.4568245125348,288.59499999999997C365.0974930362117,288.21916666666664,365.73816155988857,287.7408333333333,366.37883008356545,287.15999999999997C367.0194986072423,286.57916666666665,367.66016713091926,285.24666666666667,368.30083565459614,285.11C368.941504178273,284.97333333333336,369.58217270194984,285.0416666666667,370.2228412256267,284.90500000000003C370.8635097493036,284.7683333333334,371.5041782729805,284.4266666666667,372.14484679665736,284.29C372.78551532033424,284.15333333333336,373.4261838440112,284.2216666666667,374.06685236768806,284.085C374.70752089136494,283.94833333333327,375.34818941504176,282.9575,375.98885793871864,282.24C376.6295264623955,281.5225,377.2701949860724,280.6683333333333,377.9108635097493,279.78C378.55153203342616,278.89166666666665,379.1922005571031,278.4133333333334,379.83286908078,276.91C380.47353760445685,275.4066666666667,381.1142061281337,271.16999999999996,381.75487465181055,270.76C382.39554317548743,270.34999999999997,383.03621169916437,270.2816666666666,383.67688022284125,270.145C384.3175487465181,270.0083333333334,384.95821727019495,270.0425,385.59888579387183,269.94000000000005C386.2395543175487,269.83750000000003,386.88022284122565,269.7008333333334,387.5208913649025,269.53000000000003C388.1615598885794,269.3591666666667,388.8022284122563,269.325,389.44289693593316,268.91499999999996C390.08356545961004,268.50499999999994,390.7242339832869,265.02000000000004,391.3649025069638,264.61C392.0055710306407,264.2,392.64623955431756,264.3366666666667,393.28690807799444,263.995C393.9275766016713,263.6533333333333,394.56824512534814,262.69666666666654,395.208913649025,262.55999999999995C395.8495821727019,262.42333333333335,396.49025069637884,262.355,397.1309192200557,262.355C397.7715877437326,262.355,398.4122562674095,262.355,399.05292479108635,262.355C399.69359331476323,262.355,400.3342618384401,262.355,400.974930362117,262.355C401.6155988857939,262.355,402.25626740947075,255.04333333333335,402.89693593314763,252.925C403.5376044568245,250.80666666666667,404.1782729805014,250.70416666666668,404.81894150417827,249.645C405.45961002785515,248.5858333333333,406.1002785515321,246.97999999999996,406.74094707520896,246.56999999999996C407.38161559888584,246.16,408.02228412256267,246.36499999999998,408.66295264623955,245.955C409.3036211699164,245.54500000000004,409.9442896935933,243.97333333333341,410.5849582172702,243.70000000000005C411.22562674094706,243.42666666666668,411.86629526462394,243.29,412.5069637883008,243.29C413.1476323119777,243.29,413.7883008356546,243.29,414.42896935933146,243.29C415.06963788300834,243.29,415.7103064066853,242.19666666666674,416.35097493036216,241.24000000000004C416.99164345403904,240.28333333333336,417.6323119777159,238.57499999999996,418.2729805013928,237.54999999999995C418.9136490250697,236.52499999999998,419.5543175487465,236.08083333333326,420.1949860724234,235.08999999999997C420.83565459610026,234.09916666666663,421.4763231197772,232.56166666666667,422.11699164345407,231.605C422.75766016713095,230.64833333333334,423.39832869080783,229.62333333333328,424.0389972144847,229.34999999999997C424.6796657381616,229.07666666666665,425.3203342618384,228.94,425.9610027855153,228.94C426.60167130919217,228.94,427.2423398328691,228.94,427.883008356546,228.94C428.52367688022287,228.94,429.16434540389974,227.915,429.8050139275766,227.505C430.4456824512535,227.095,431.0863509749303,227.12916666666663,431.7270194986072,226.48000000000002C432.3676880222841,225.83083333333335,433.008356545961,225.0791666666667,433.6490250696379,223.61C434.2896935933148,222.14083333333335,434.93036211699166,219.68083333333334,435.57103064066854,217.665C436.2116991643454,215.64916666666664,436.8523676880223,211.78833333333336,437.4930362116992,211.51500000000001C438.13370473537606,211.24166666666667,438.77437325905294,211.10500000000002,439.4150417827298,211.10500000000002C440.0557103064067,211.10500000000002,440.6963788300836,211.10500000000002,441.33704735376045,211.10500000000002C441.97771587743733,211.10500000000002,442.61838440111427,211.03666666666666,443.25905292479115,210.89999999999998C443.89972144846803,210.7633333333333,444.54038997214485,208.5425,445.18105849582173,207.005C445.8217270194986,205.4675,446.46239554317543,202.97333333333333,447.1030640668523,201.675C447.74373259052925,200.37666666666658,448.3844011142061,199.9666666666667,449.02506963788306,199.215C449.66573816155994,198.46333333333337,450.30640668523677,197.16500000000002,450.94707520891365,197.16500000000002C451.5877437325905,197.16500000000002,452.22841225626735,197.16500000000002,452.8690807799442,197.16500000000002C453.50974930362116,197.16500000000002,454.15041782729804,196.89166666666668,454.791086350975,196.755C455.43175487465186,196.61833333333334,456.0724233983287,196.61833333333334,456.71309192200556,196.34500000000003C457.35376044568244,196.0716666666667,457.9944289693594,195.08083333333332,458.63509749303626,194.49999999999997C459.27576601671313,193.91916666666665,459.91643454038996,193.91916666666665,460.55710306406684,192.85999999999999C461.1977715877437,191.80083333333332,461.83844011142054,189.75083333333328,462.4791086350974,188.145C463.11977715877435,186.5391666666666,463.76044568245123,183.225,464.40111420612817,183.225C465.04178272980505,183.225,465.6824512534819,183.225,466.32311977715875,183.225C466.9637883008357,183.225,467.60445682451257,183.08833333333334,468.2451253481895,182.815C468.8857938718663,182.54166666666669,469.5264623955432,180.18416666666653,470.16713091922,177.89499999999998C470.8077994428969,175.6058333333333,471.4484679665738,171.19833333333335,472.08913649025067,169.08C472.72980501392755,166.96166666666662,473.3704735376045,166.68833333333336,474.01114206128136,165.18499999999997C474.65181058495824,163.68166666666667,475.29247910863506,161.1533333333333,475.93314763231194,160.06C476.5738161559888,158.96666666666667,477.2144846796657,158.42,477.8551532033426,158.42C478.49582172701946,158.42,479.1364902506964,158.42,479.7771587743733,158.42C480.41782729805016,158.42,481.058495821727,158.35166666666666,481.69916434540386,158.215C482.33983286908074,158.07833333333335,482.9805013927577,156.71166666666667,483.62116991643455,156.16500000000002C484.26183844011143,155.61833333333337,484.9025069637883,155.75500000000002,485.5431754874652,154.93500000000003C486.18384401114207,154.11500000000007,486.8245125348189,152.57749999999987,487.4651810584958,149.81C488.10584958217265,147.04249999999996,488.7465181058496,144.2066666666668,489.38718662952647,138.32999999999998C490.02785515320335,132.45333333333335,490.6685236768802,114.68666666666671,491.3091922005571,114.55000000000001C491.949860724234,114.41333333333331,492.59052924791087,114.4133333333333,493.23119777158774,114.34499999999997C493.8718662952646,114.27666666666664,494.5125348189415,114.27666666666664,495.1532033426184,114.14C495.79387186629526,114.00333333333336,496.43454038997214,112.80749999999999,497.075208913649,112.09C497.7158774373259,111.3725,498.35654596100284,110.34750000000003,498.9972144846797,109.83500000000002C499.6378830083566,109.32250000000005,500.2785515320334,109.28833333333334,500.9192200557103,109.01500000000001C501.5598885793872,108.74166666666667,502.20055710306406,108.63916666666668,502.84122562674094,108.19500000000002C503.4818941504178,107.75083333333335,504.12256267409475,106.62333333333333,504.76323119777163,106.35C505.4038997214485,106.07666666666667,506.04456824512533,106.04249999999999,506.6852367688022,105.94C507.3259052924791,105.83749999999999,507.966573816156,105.87166666666667,508.60724233983285,105.73500000000001C509.24791086350973,105.59833333333336,509.88857938718667,102.45500000000006,510.52924791086355,102.04500000000002C511.1699164345404,101.635,511.81058495821725,101.80583333333331,512.4512534818941,101.42999999999999C513.0919220055711,101.05416666666666,513.7325905292479,100.40500000000002,514.3732590529248,99.78999999999999C515.0139275766016,99.17500000000001,515.6545961002786,98.0133333333333,516.2952646239554,97.73999999999998C516.9359331476322,97.46666666666665,517.5766016713092,97.53499999999997,518.217270194986,97.32999999999998C518.8579387186629,97.12499999999999,519.4986072423399,96.50999999999999,520.1392757660168,96.50999999999999C520.7799442896936,96.50999999999999,521.4206128133706,96.50999999999999,522.0612813370474,96.50999999999999C522.7019498607243,96.50999999999999,523.3426183844011,95.41666666666666,523.9832869080781,95.27999999999999C524.6239554317549,95.14333333333333,525.2646239554318,95.21166666666666,525.9052924791087,95.075C526.5459610027855,94.93833333333335,527.1866295264624,94.04999999999998,527.8272980501392,93.63999999999999C528.4679665738162,93.22999999999998,529.108635097493,93.29833333333333,529.7493036211699,92.61500000000001C530.3899721448468,91.93166666666673,531.0306406685237,87.42166666666667,531.6713091922005,87.285C532.3119777158774,87.14833333333333,532.9526462395543,87.07999999999998,533.5933147632312,87.07999999999998C534.2339832869081,87.07999999999998,534.874651810585,87.07999999999998,535.5153203342619,87.07999999999998C536.1559888579387,87.07999999999998,536.7966573816157,87.07999999999998,537.4373259052925,87.07999999999998C538.0779944289694,87.07999999999998,538.7186629526462,86.29416666666665,539.3593314763232,86.05499999999999C540,85.81583333333334,540.6406685236769,85.74749999999999,541.2813370473538,85.645C541.9220055710306,85.5425,542.5626740947075,85.57666666666667,543.2033426183843,85.44000000000001C543.8440111420613,85.30333333333334,544.4846796657382,83.80000000000008,545.1253481894151,83.39000000000001C545.766016713092,82.98,546.4066852367689,82.77499999999999,547.0473537604457,82.77499999999999C547.6880222841226,82.77499999999999,548.3286908077994,82.77499999999999,548.9693593314762,82.77499999999999C549.6100278551531,82.77499999999999,550.2506963788301,82.3308333333334,550.891364902507,81.75000000000001C551.5320334261838,81.1691666666667,552.1727019498608,79.56333333333333,552.8133704735376,79.29000000000002C553.4540389972145,79.0166666666667,554.0947075208913,79.0166666666667,554.7353760445683,78.88000000000002C555.3760445682452,78.74333333333335,556.016713091922,78.70916666666672,556.657381615599,78.47000000000001C557.2980501392758,78.23083333333334,557.9387186629526,77.445,558.5793871866294,77.445C559.2200557103064,77.445,559.8607242339832,77.445,560.5013927576601,77.445C561.1420612813371,77.445,561.7827298050139,77.445,562.4233983286908,77.445C563.0640668523677,77.445,563.7047353760446,77.445,564.3454038997214,77.445C564.9860724233984,77.445,565.6267409470752,77.13749999999997,566.2674094707521,77.03499999999998C566.9080779944289,76.93249999999999,567.5487465181059,76.96666666666665,568.1894150417827,76.83000000000001C568.8300835654596,76.69333333333336,569.4707520891365,74.91666666666667,570.1114206128134,74.37C570.7520891364902,73.82333333333337,571.3927576601671,73.55000000000001,572.033426183844,73.55000000000001C572.6740947075209,73.55000000000001,573.3147632311977,73.55000000000001,573.9554317548747,73.55000000000001C574.5961002785515,73.55000000000001,575.2367688022284,73.55000000000001,575.8774373259052,73.55000000000001C576.5181058495821,73.55000000000001,577.158774373259,73.55000000000001,577.7994428969358,73.55000000000001C578.4401114206128,73.55000000000001,579.0807799442896,73.48166666666667,579.7214484679665,73.34499999999998C580.3621169916435,73.2083333333333,581.0027855153203,69.55250000000002,581.6434540389972,68.22000000000001C582.284122562674,66.88750000000007,582.924791086351,65.62333333333333,583.5654596100278,65.35000000000001C584.2061281337047,65.07666666666667,584.8467966573816,64.94,585.4874651810585,64.94C586.1281337047353,64.94,586.7688022284123,64.94,587.4094707520891,64.94C588.050139275766,64.94,588.6908077994428,64.94,589.3314763231198,64.94C589.9721448467967,64.94,590.6128133704735,64.94,591.2534818941505,64.94C591.8941504178273,64.94,592.5348189415042,64.46166666666662,593.175487465181,64.32499999999997C593.816155988858,64.18833333333333,594.4568245125348,64.25666666666665,595.0974930362117,64.12C595.7381615598886,63.98333333333336,596.3788300835655,63.504999999999995,597.0194986072423,63.3C597.6601671309191,63.095,598.3008356545961,62.9925,598.9415041782729,62.89C599.5821727019498,62.78749999999999,600.2228412256268,62.684999999999974,600.8635097493037,62.684999999999974C601.5041782729805,62.684999999999974,602.1448467966575,62.684999999999974,602.7855153203343,62.684999999999974C603.4261838440111,62.684999999999974,604.066852367688,62.17249999999996,604.7075208913649,61.864999999999974C605.3481894150418,61.55749999999997,605.9888579387186,61.31833333333334,606.6295264623956,60.839999999999996C607.2701949860724,60.36166666666668,607.9108635097493,59.67833333333333,608.5515320334262,58.99500000000002C609.1922005571031,58.31166666666667,609.8328690807799,57.14999999999998,610.4735376044569,56.739999999999995C611.1142061281338,56.33000000000001,611.7548746518106,56.295833333333356,612.3955431754875,56.12500000000002C613.0362116991644,55.9541666666667,613.6768802228413,55.71500000000002,614.3175487465181,55.71500000000002C614.958217270195,55.71500000000002,615.5988857938719,55.71500000000002,616.2395543175487,55.71500000000002C616.8802228412256,55.71500000000002,617.5208913649025,55.71500000000002,618.1615598885794,55.71500000000002C618.8022284122562,55.71500000000002,619.4428969359332,55.71500000000002,620.08356545961,55.71500000000002C620.7242339832869,55.71500000000002,621.3649025069637,55.71500000000002,622.0055710306407,55.71500000000002C622.6462395543176,55.71500000000002,623.2869080779944,55.30500000000002,623.9275766016714,55.30500000000002C624.5682451253482,55.30500000000002,625.2089136490251,55.30500000000002,625.849582172702,55.30500000000002C626.4902506963788,55.30500000000002,627.1309192200557,55.30500000000002,627.7715877437325,55.30500000000002C628.4122562674095,55.30500000000002,629.0529247910863,55.30500000000002,629.6935933147632,55.30500000000002C630.3342618384402,55.30500000000002,630.974930362117,55.30500000000002,631.6155988857939,55.30500000000002C632.2562674094708,55.30500000000002,632.8969359331476,54.724166666666676,633.5376044568244,54.485000000000014C634.1782729805013,54.24583333333332,634.8189415041782,54.143333333333324,635.4596100278551,53.86999999999999C636.100278551532,53.59666666666666,636.7409470752089,53.084166666666675,637.3816155988858,52.84500000000001C638.0222841225627,52.60583333333335,638.6629526462395,52.43500000000002,639.3036211699165,52.43500000000002C639.9442896935934,52.43500000000002,640.5849582172702,52.43500000000002,641.2256267409472,52.43500000000002C641.866295264624,52.43500000000002,642.5069637883008,52.43500000000002,643.1476323119776,52.43500000000002C643.7883008356546,52.43500000000002,644.4289693593314,52.43500000000002,645.0696378830083,52.43500000000002C645.7103064066853,52.43500000000002,646.3509749303621,52.43500000000002,646.991643454039,52.43500000000002C647.6323119777159,52.43500000000002,648.2729805013928,51.71749999999999,648.9136490250696,51.40999999999999C649.5543175487466,51.10249999999997,650.1949860724234,50.58999999999999,650.8356545961003,50.58999999999999C651.4763231197771,50.58999999999999,652.1169916434541,50.58999999999999,652.7576601671309,50.58999999999999C653.3983286908077,50.58999999999999,654.0389972144847,50.58999999999999,654.6796657381615,50.58999999999999C655.3203342618384,50.58999999999999,655.9610027855153,50.58999999999999,656.6016713091923,50.58999999999999C657.2423398328691,50.58999999999999,657.883008356546,50.28249999999999,658.5236768802229,50.17999999999999C659.1643454038997,50.07749999999999,659.8050139275766,50.111666666666665,660.4456824512534,49.97500000000001C661.0863509749304,49.838333333333345,661.7270194986072,47.10500000000001,662.3676880222841,47.10500000000001C663.008356545961,47.10500000000001,663.6490250696379,47.10500000000001,664.2896935933147,47.10500000000001C664.9303621169917,47.10500000000001,665.5710306406685,44.74749999999999,666.2116991643454,44.02999999999999C666.8523676880224,43.312499999999986,667.4930362116992,43.34666666666667,668.1337047353761,42.79999999999998C668.7743732590529,42.25333333333332,669.4150417827299,41.159999999999975,670.0557103064067,40.749999999999986C670.6963788300835,40.339999999999996,671.3370473537605,40.47666666666665,671.9777158774373,40.135000000000005C672.6183844011142,39.79333333333334,673.259052924791,38.83666666666664,673.899721448468,38.69999999999998C674.5403899721448,38.56333333333333,675.1810584958217,38.495000000000005,675.8217270194986,38.495000000000005C676.4623955431755,38.495000000000005,677.1030640668523,38.495000000000005,677.7437325905292,38.495000000000005C678.3844011142062,38.495000000000005,679.025069637883,38.085,679.66573816156,38.085C680.3064066852368,38.085,680.9470752089137,38.085,681.5877437325905,38.085C682.2284122562673,38.085,682.8690807799443,38.085,683.5097493036211,38.085C684.150417827298,38.085,684.7910863509749,38.085,685.4317548746518,38.085C686.0724233983287,38.085,686.7130919220056,38.085,687.3537604456825,38.085C687.9944289693593,38.085,688.6350974930363,37.94833333333333,689.2757660167131,37.675C689.9164345403899,37.401666666666664,690.5571030640668,36.88916666666665,691.1977715877437,36.445C691.8384401114206,36.000833333333325,692.4791086350974,35.01000000000002,693.1197771587744,35.01000000000002C693.7604456824513,35.01000000000002,694.4011142061281,35.01000000000002,695.041782729805,35.01000000000002C695.682451253482,35.01000000000002,696.3231197771588,34.839166666666706,696.9637883008357,34.60000000000002C697.6044568245126,34.36083333333335,698.2451253481895,33.575,698.8857938718663,33.575C699.5264623955431,33.575,700.1671309192201,33.575,700.8077994428969,33.575C701.4484679665738,33.575,702.0891364902507,33.575,702.7298050139276,33.575C703.3704735376044,33.575,704.0111420612814,33.30166666666666,704.6518105849582,33.165C705.2924791086351,33.02833333333333,705.933147632312,32.754999999999995,706.5738161559889,32.754999999999995C707.2144846796657,32.754999999999995,707.8551532033426,32.754999999999995,708.4958217270195,32.754999999999995C709.1364902506963,32.754999999999995,709.7771587743732,32.754999999999995,710.41782729805,32.754999999999995C711.058495821727,32.754999999999995,711.6991643454039,31.798333333333378,712.3398328690809,31.320000000000018C712.9805013927577,30.84166666666671,713.6211699164346,30.841666666666676,714.2618384401114,29.884999999999994C714.9025069637883,28.928333333333313,715.5431754874652,24.14499999999999,716.183844011142,24.14499999999999C716.824512534819,24.14499999999999,717.4651810584958,24.14499999999999,718.1058495821727,24.14499999999999C718.7465181058495,24.14499999999999,719.3871866295265,23.32499999999999,720.0278551532033,23.32499999999999C720.6685236768802,23.32499999999999,721.309192200557,23.32499999999999,721.949860724234,23.32499999999999C722.5905292479109,23.32499999999999,723.2311977715877,23.32499999999999,723.8718662952647,23.32499999999999C724.5125348189415,23.32499999999999,725.1532033426184,23.12000000000001,725.7938718662953,23.12000000000001C726.4345403899721,23.12000000000001,727.075208913649,23.12000000000001,727.7158774373258,23.12000000000001C728.3565459610028,23.12000000000001,728.9972144846796,23.12000000000001,729.6378830083565,23.12000000000001C730.2785515320334,23.12000000000001,730.9192200557103,22.98333333333332,731.5598885793871,22.91499999999999C732.200557103064,22.846666666666653,732.8412256267409,22.71000000000001,733.4818941504178,22.71000000000001C734.1225626740948,22.71000000000001,734.7632311977716,22.71000000000001,735.4038997214485,22.71000000000001C736.0445682451253,22.71000000000001,736.6852367688023,21.82166666666664,737.3259052924791,21.684999999999988C737.9665738161559,21.548333333333336,738.6072423398329,21.548333333333343,739.2479108635097,21.48000000000001C739.8885793871866,21.411666666666676,740.5292479108634,21.34333333333332,741.1699164345404,21.274999999999984C741.8105849582173,21.20666666666665,742.4512534818941,21.138333333333343,743.0919220055711,21.07000000000001C743.732590529248,21.00166666666668,744.3732590529248,20.933333333333323,745.0139275766018,20.864999999999988C745.6545961002786,20.796666666666656,746.2952646239555,20.66000000000001,746.9359331476323,20.66000000000001C747.5766016713092,20.66000000000001,748.2172701949861,20.66000000000001,748.8579387186629,20.66000000000001C749.4986072423399,20.66000000000001,750.1392757660167,20.66000000000001,750.7799442896936,20.66000000000001C751.4206128133706,20.66000000000001,752.0612813370474,20.66000000000001,752.7019498607243,20.66000000000001C753.3426183844011,20.66000000000001,753.9832869080781,20.66000000000001,754.6239554317549,20.66000000000001C755.2646239554318,20.66000000000001,755.9052924791087,20.454999999999988,756.5459610027856,20.454999999999988C757.1866295264624,20.454999999999988,757.8272980501393,20.454999999999988,758.4679665738162,20.454999999999988C759.108635097493,20.454999999999988,759.7493036211699,20.454999999999988,760.3899721448468,20.454999999999988C761.0306406685237,20.454999999999988,761.6713091922005,20.454999999999988,762.3119777158774,20.454999999999988C762.9526462395544,20.454999999999988,763.5933147632312,20.18166666666666,764.2339832869081,20.044999999999987C764.874651810585,19.908333333333328,765.5153203342618,19.634999999999984,766.1559888579386,19.634999999999984C766.7966573816155,19.634999999999984,767.4373259052925,19.634999999999984,768.0779944289694,19.634999999999984C768.7186629526462,19.634999999999984,769.3593314763232,19.634999999999984,770,19.634999999999984"
        fill="none" stroke-linecap="round" stroke-linejoin="bevel" stroke="#b45309" class="line ethr-goerli"
        stroke-width="2"></path>
    <g class="x-primary" transform="translate(0,420)" fill="none" font-size="10" font-family="sans-serif"
        text-anchor="middle" style="font-size: 23px; color: #1e293b;">
        <path class="domain" stroke="currentColor" d="M80.5,10V0.5H770.5V10"></path>
        <g class="tick" opacity="1" transform="translate(88.0278549194336, 0)">
            <line stroke="currentColor" y2="10"></line><text fill="currentColor" y="25" dy="0.71em">Jul</text>
        </g>
        <g class="tick" opacity="1" transform="translate(147.6100311279297, 0)">
            <line stroke="currentColor" y2="10"></line><text fill="currentColor" y="25" dy="0.71em">Aug</text>
        </g>
        <g class="tick" opacity="1" transform="translate(207.19219970703125, 0)">
            <line stroke="currentColor" y2="10"></line><text fill="currentColor" y="25" dy="0.71em">Sep</text>
        </g>
        <g class="tick" opacity="1" transform="translate(264.85235595703125, 0)">
            <line stroke="currentColor" y2="10"></line><text fill="currentColor" y="25" dy="0.71em">Oct</text>
        </g>
        <g class="tick" opacity="1" transform="translate(324.5146179199219, 0)">
            <line stroke="currentColor" y2="10"></line><text fill="currentColor" y="25" dy="0.71em">Nov</text>
        </g>
        <g class="tick" opacity="1" transform="translate(382.1748046875, 0)">
            <line stroke="currentColor" y2="10"></line><text fill="currentColor" y="25" dy="0.71em">Dec</text>
        </g>
        <g class="tick" opacity="1" transform="translate(441.7569580078125, 0)">
            <line stroke="currentColor" y2="10"></line><text fill="currentColor" y="25" dy="0.71em">Jan</text>
        </g>
        <g class="tick" opacity="1" transform="translate(501.3391418457031, 0)">
            <line stroke="currentColor" y2="10"></line><text fill="currentColor" y="25" dy="0.71em">Feb</text>
        </g>
        <g class="tick" opacity="1" transform="translate(555.1552734375, 0)">
            <line stroke="currentColor" y2="10"></line><text fill="currentColor" y="25" dy="0.71em">Mar</text>
        </g>
        <g class="tick" opacity="1" transform="translate(614.6574096679688, 0)">
            <line stroke="currentColor" y2="10"></line><text fill="currentColor" y="25" dy="0.71em">Apr</text>
        </g>
        <g class="tick" opacity="1" transform="translate(672.3175659179688, 0)">
            <line stroke="currentColor" y2="10"></line><text fill="currentColor" y="25" dy="0.71em">May</text>
        </g>
        <g class="tick" opacity="1" transform="translate(731.8997192382812, 0)">
            <line stroke="currentColor" y2="10"></line><text fill="currentColor" y="25" dy="0.71em">Jun</text>
        </g>
    </g>
    <g class="x-secondary" transform="translate(0,470)" fill="none" font-size="10" font-family="sans-serif"
        text-anchor="middle" style="font-size: 23px; color: #1e293b;">
        <g class="tick" opacity="1" transform="translate(382.1748046875, 0)">
            <line stroke="currentColor" y2="20"></line><text fill="currentColor" y="35" dy="0.71em"
                transform="translate(-5, -33)" style="text-anchor: end;">2022</text>
        </g>
    </g>
    <g class="y-axis" transform="translate(80,0)" fill="none" font-size="10" font-family="sans-serif" text-anchor="end"
        style="font-size: 23px; color: #1e293b;">
        <g class="tick" opacity="1" transform="translate(0, 420.5)">
            <line stroke="currentColor" x2="-6"></line><text fill="currentColor" x="-9" dy="0.32em">400</text>
        </g>
        <g class="tick" opacity="1" transform="translate(0, 379.5)">
            <line stroke="currentColor" x2="-6"></line><text fill="currentColor" x="-9" dy="0.32em">600</text>
        </g>
        <g class="tick" opacity="1" transform="translate(0, 338.5)">
            <line stroke="currentColor" x2="-6"></line><text fill="currentColor" x="-9" dy="0.32em">800</text>
        </g>
        <g class="tick" opacity="1" transform="translate(0, 297.5)">
            <line stroke="currentColor" x2="-6"></line><text fill="currentColor" x="-9" dy="0.32em">1.0k</text>
        </g>
        <g class="tick" opacity="1" transform="translate(0, 256.5)">
            <line stroke="currentColor" x2="-6"></line><text fill="currentColor" x="-9" dy="0.32em">1.2k</text>
        </g>
        <g class="tick" opacity="1" transform="translate(0, 215.5)">
            <line stroke="currentColor" x2="-6"></line><text fill="currentColor" x="-9" dy="0.32em">1.4k</text>
        </g>
        <g class="tick" opacity="1" transform="translate(0, 174.5)">
            <line stroke="currentColor" x2="-6"></line><text fill="currentColor" x="-9" dy="0.32em">1.6k</text>
        </g>
        <g class="tick" opacity="1" transform="translate(0, 133.5)">
            <line stroke="currentColor" x2="-6"></line><text fill="currentColor" x="-9" dy="0.32em">1.8k</text>
        </g>
        <g class="tick" opacity="1" transform="translate(0, 92.5)">
            <line stroke="currentColor" x2="-6"></line><text fill="currentColor" x="-9" dy="0.32em">2.0k</text>
        </g>
        <g class="tick" opacity="1" transform="translate(0, 51.5)">
            <line stroke="currentColor" x2="-6"></line><text fill="currentColor" x="-9" dy="0.32em">2.2k</text>
        </g>
        <g class="tick" opacity="1" transform="translate(0, 10.5)">
            <line stroke="currentColor" x2="-6"></line><text fill="currentColor" x="-9" dy="0.32em">2.4k</text>
        </g>
    </g>
    <line class="grid-line" x1="81" y1="10" x2="770" y2="10" fill="none" stroke="#64748b" stroke-opacity="0.1"></line>
</svg>