<svg xmlns="http://www.w3.org/2000/svg" viewBox="0,0,800,500" preserveAspectRatio="xMidYMid meet">
    <line class="grid-line" x1="81" y1="420" x2="770" y2="420" fill="none" stroke="#64748b" stroke-opacity="0.1">
    </line>

    <text x="100" y="40" text-anchor="start" fill="#4338ca" font-family="monospace" font-size="20">
        ethr-mainnet
    </text>
    <path
        d="M80,420C82.58426966292134,420,85.1685393258427,420,87.75280898876404,420C90.33707865168539,420,92.92134831460673,420,95.50561797752808,420C98.08988764044943,420,100.67415730337078,420,103.25842696629213,420C105.84269662921348,420,108.42696629213484,420,111.01123595505618,420C113.59550561797752,420,116.17977528089888,420,118.76404494382022,420C121.34831460674157,420,123.93258426966293,351.6666666666667,126.51685393258427,351.6666666666667C129.1011235955056,351.6666666666667,131.68539325842696,351.6666666666667,134.2696629213483,351.6666666666667C136.85393258426964,351.6666666666667,139.43820224719101,351.6666666666667,142.02247191011236,351.6666666666667C144.6067415730337,351.6666666666667,147.19101123595507,351.6666666666667,149.77528089887642,351.6666666666667C152.35955056179776,351.6666666666667,154.9438202247191,351.6666666666667,157.52808988764045,351.6666666666667C160.1123595505618,351.6666666666667,162.69662921348313,351.6666666666667,165.28089887640448,351.6666666666667C167.86516853932582,351.6666666666667,170.4494382022472,351.6666666666667,173.03370786516854,351.6666666666667C175.61797752808988,351.6666666666667,178.20224719101125,351.6666666666667,180.7865168539326,351.6666666666667C183.37078651685394,351.6666666666667,185.95505617977528,351.6666666666667,188.53932584269663,351.6666666666667C191.12359550561797,351.6666666666667,193.7078651685393,351.6666666666667,196.29213483146066,351.6666666666667C198.876404494382,351.6666666666667,201.46067415730337,351.6666666666667,204.04494382022472,351.6666666666667C206.62921348314606,351.6666666666667,209.21348314606743,351.6666666666667,211.79775280898878,351.6666666666667C214.38202247191012,351.6666666666667,216.96629213483143,351.6666666666667,219.55056179775278,351.6666666666667C222.13483146067415,351.6666666666667,224.7191011235955,283.33333333333337,227.30337078651687,283.33333333333337C229.8876404494382,283.33333333333337,232.47191011235955,283.33333333333337,235.0561797752809,283.33333333333337C237.64044943820224,283.33333333333337,240.22471910112358,283.33333333333337,242.80898876404493,283.33333333333337C245.39325842696627,283.33333333333337,247.9775280898876,283.33333333333337,250.56179775280896,283.33333333333337C253.14606741573033,283.33333333333337,255.7303370786517,283.33333333333337,258.3146067415731,283.33333333333337C260.8988764044944,283.33333333333337,263.48314606741576,283.33333333333337,266.0674157303371,283.33333333333337C268.65168539325845,283.33333333333337,271.23595505617976,283.33333333333337,273.82022471910113,283.33333333333337C276.4044943820225,283.33333333333337,278.9887640449438,283.33333333333337,281.5730337078652,283.33333333333337C284.15730337078656,283.33333333333337,286.7415730337079,283.33333333333337,289.32584269662925,283.33333333333337C291.91011235955057,283.33333333333337,294.49438202247194,283.33333333333337,297.07865168539325,283.33333333333337C299.6629213483146,283.33333333333337,302.24719101123594,283.33333333333337,304.8314606741573,283.33333333333337C307.4157303370786,283.33333333333337,310,283.33333333333337,312.5842696629213,283.33333333333337C315.1685393258427,283.33333333333337,317.752808988764,283.33333333333337,320.3370786516854,283.33333333333337C322.92134831460675,283.33333333333337,325.50561797752806,283.33333333333337,328.08988764044943,283.33333333333337C330.6741573033708,283.33333333333337,333.2584269662921,283.33333333333337,335.8426966292135,283.33333333333337C338.4269662921348,283.33333333333337,341.0112359550562,283.33333333333337,343.5955056179775,283.33333333333337C346.17977528089887,283.33333333333337,348.76404494382024,283.33333333333337,351.3483146067416,283.33333333333337C353.9325842696629,283.33333333333337,356.5168539325843,283.33333333333337,359.1011235955056,283.33333333333337C361.685393258427,283.33333333333337,364.2696629213483,283.33333333333337,366.85393258426967,283.33333333333337C369.43820224719104,283.33333333333337,372.02247191011236,283.33333333333337,374.60674157303373,283.33333333333337C377.1910112359551,283.33333333333337,379.7752808988764,283.33333333333337,382.3595505617978,283.33333333333337C384.9438202247191,283.33333333333337,387.5280898876405,283.33333333333337,390.1123595505618,283.33333333333337C392.69662921348316,283.33333333333337,395.2808988764045,237.77777777777786,397.86516853932585,215C400.44943820224717,192.22222222222229,403.03370786516854,146.66666666666669,405.61797752808985,146.66666666666669C408.2022471910112,146.66666666666669,410.78651685393254,146.66666666666669,413.3707865168539,146.66666666666669C415.9550561797752,146.66666666666669,418.5393258426966,146.66666666666669,421.1235955056179,146.66666666666669C423.7078651685393,146.66666666666669,426.2921348314607,101.11111111111126,428.8764044943821,78.33333333333331C431.46067415730346,55.5555555555557,434.0449438202248,10,436.62921348314615,10C439.21348314606746,10,441.7977528089888,10,444.3820224719101,10C446.96629213483146,10,449.5505617977528,10,452.13483146067415,10C454.7191011235955,10,457.30337078651684,10,459.8876404494382,10C462.4719101123596,10,465.0561797752809,10,467.64044943820227,10C470.2247191011236,10,472.80898876404495,10,475.39325842696627,10C477.97752808988764,10,480.56179775280896,10,483.14606741573033,10C485.7303370786517,10,488.314606741573,10,490.8988764044944,10C493.48314606741576,10,496.0674157303371,10,498.65168539325845,10C501.23595505617976,10,503.82022471910113,10,506.40449438202245,10C508.9887640449438,10,511.57303370786514,10,514.1573033707865,10C516.7415730337078,10,519.3258426966293,10,521.9101123595506,10C524.4943820224719,10,527.0786516853933,10,529.6629213483146,10C532.2471910112359,10,534.8314606741574,10,537.4157303370787,10C540,10,542.5842696629213,10,545.1685393258426,10C547.7528089887641,10,550.3370786516854,10,552.9213483146068,10C555.5056179775281,10,558.0898876404494,10,560.6741573033707,10C563.2584269662921,10,565.8426966292135,10,568.4269662921348,10C571.0112359550561,10,573.5955056179776,10,576.1797752808989,10C578.7640449438202,10,581.3483146067416,10,583.9325842696629,10C586.5168539325842,10,589.1011235955057,10,591.685393258427,10C594.2696629213483,10,596.8539325842697,10,599.438202247191,10C602.0224719101124,10,604.6067415730337,10,607.191011235955,10C609.7752808988764,10,612.3595505617977,10,614.9438202247192,10C617.5280898876405,10,620.1123595505619,10,622.6966292134832,10C625.2808988764045,10,627.8651685393259,10,630.4494382022472,10C633.0337078651685,10,635.6179775280899,10,638.2022471910112,10C640.7865168539325,10,643.370786516854,10,645.9550561797753,10C648.5393258426966,10,651.123595505618,10,653.7078651685393,10C656.2921348314607,10,658.876404494382,10,661.4606741573033,10C664.0449438202247,10,666.629213483146,10,669.2134831460675,10C671.7977528089888,10,674.3820224719101,10,676.9662921348314,10C679.5505617977528,10,682.1348314606741,10,684.7191011235956,10C687.3033707865169,10,689.8876404494382,10,692.4719101123595,10C695.0561797752808,10,697.6404494382023,10,700.2247191011236,10C702.8089887640449,10,705.3932584269663,10,707.9775280898876,10C710.561797752809,10,713.1460674157304,10,715.7303370786517,10C718.314606741573,10,720.8988764044944,10,723.4831460674158,10C726.0674157303371,10,728.6516853932584,10,731.2359550561797,10C733.8202247191011,10,736.4044943820224,10,738.9887640449439,10C741.5730337078652,10,744.1573033707865,10,746.7415730337078,10C749.3258426966291,10,751.9101123595506,10,754.4943820224719,10C757.0786516853932,10,759.6629213483145,10,762.2471910112358,10C764.8314606741573,10,767.4157303370786,10,770,10"
        fill="none" stroke-linecap="round" stroke-linejoin="bevel" stroke="#4338ca" class="line ethr-goerli"
        stroke-width="2"></path>
    <g class="x-primary" transform="translate(0,420)" fill="none" font-size="10" font-family="sans-serif"
        text-anchor="middle" style="font-size: 23px; color: #1e293b;">
        <path class="domain" stroke="currentColor" d="M80.5,10V0.5H770.5V10"></path>
        <g class="tick" opacity="1" transform="translate(95.68258666992188, 0)">
            <line stroke="currentColor" y2="10"></line><text fill="currentColor" y="25" dy="0.71em">26</text>
        </g>
        <g class="tick" opacity="1" transform="translate(149.62921142578125, 0)">
            <line stroke="currentColor" y2="10"></line><text fill="currentColor" y="25" dy="0.71em">2</text>
        </g>
        <g class="tick" opacity="1" transform="translate(203.8988800048828, 0)">
            <line stroke="currentColor" y2="10"></line><text fill="currentColor" y="25" dy="0.71em">9</text>
        </g>
        <g class="tick" opacity="1" transform="translate(258.1685485839844, 0)">
            <line stroke="currentColor" y2="10"></line><text fill="currentColor" y="25" dy="0.71em">16</text>
        </g>
        <g class="tick" opacity="1" transform="translate(312.4382019042969, 0)">
            <line stroke="currentColor" y2="10"></line><text fill="currentColor" y="25" dy="0.71em">23</text>
        </g>
        <g class="tick" opacity="1" transform="translate(366.7078552246094, 0)">
            <line stroke="currentColor" y2="10"></line><text fill="currentColor" y="25" dy="0.71em">30</text>
        </g>
        <g class="tick" opacity="1" transform="translate(420.9775390625, 0)">
            <line stroke="currentColor" y2="10"></line><text fill="currentColor" y="25" dy="0.71em">7</text>
        </g>
        <g class="tick" opacity="1" transform="translate(475.2471923828125, 0)">
            <line stroke="currentColor" y2="10"></line><text fill="currentColor" y="25" dy="0.71em">14</text>
        </g>
        <g class="tick" opacity="1" transform="translate(529.516845703125, 0)">
            <line stroke="currentColor" y2="10"></line><text fill="currentColor" y="25" dy="0.71em">21</text>
        </g>
        <g class="tick" opacity="1" transform="translate(583.7864990234375, 0)">
            <line stroke="currentColor" y2="10"></line><text fill="currentColor" y="25" dy="0.71em">28</text>
        </g>
        <g class="tick" opacity="1" transform="translate(638.05615234375, 0)">
            <line stroke="currentColor" y2="10"></line><text fill="currentColor" y="25" dy="0.71em">4</text>
        </g>
        <g class="tick" opacity="1" transform="translate(692.3258666992188, 0)">
            <line stroke="currentColor" y2="10"></line><text fill="currentColor" y="25" dy="0.71em">11</text>
        </g>
        <g class="tick" opacity="1" transform="translate(746.5955200195312, 0)">
            <line stroke="currentColor" y2="10"></line><text fill="currentColor" y="25" dy="0.71em">18</text>
        </g>
    </g>
    <g class="x-secondary" transform="translate(0,470)" fill="none" font-size="10" font-family="sans-serif"
        text-anchor="middle" style="font-size: 23px; color: #1e293b;">
        <g class="tick" opacity="1" transform="translate(95.68258666992188, 0)">
            <line stroke="currentColor" y2="20"></line><text fill="currentColor" y="35" dy="0.71em"
                transform="translate(-5, -33)" style="text-anchor: end;">March</text>
        </g>
        <g class="tick" opacity="1" transform="translate(366.7078552246094, 0)">
            <line stroke="currentColor" y2="20"></line><text fill="currentColor" y="35" dy="0.71em"
                transform="translate(-5, -33)" style="text-anchor: end;">April</text>
        </g>
        <g class="tick" opacity="1" transform="translate(583.7864990234375, 0)">
            <line stroke="currentColor" y2="20"></line><text fill="currentColor" y="35" dy="0.71em"
                transform="translate(-5, -33)" style="text-anchor: end;">May</text>
        </g>
    </g>
    <g class="y-axis" transform="translate(80,0)" fill="none" font-size="10" font-family="sans-serif" text-anchor="end"
        style="font-size: 23px; color: #1e293b;">
        <g class="tick" opacity="1" transform="translate(0, 420.5)">
            <line stroke="currentColor" x2="-6"></line><text fill="currentColor" x="-9" dy="0.32em">4332</text>
        </g>
        <g class="tick" opacity="1" transform="translate(0, 386.3333435058594)">

        </g>
        <g class="tick" opacity="1" transform="translate(0, 352.1666564941406)">
            <line stroke="currentColor" x2="-6"></line><text fill="currentColor" x="-9" dy="0.32em">4333</text>
        </g>
        <g class="tick" opacity="1" transform="translate(0, 318)">

        </g>
        <g class="tick" opacity="1" transform="translate(0, 283.8333435058594)">
            <line stroke="currentColor" x2="-6"></line><text fill="currentColor" x="-9" dy="0.32em">4334</text>
        </g>
        <g class="tick" opacity="1" transform="translate(0, 249.6666717529297)">

        </g>
        <g class="tick" opacity="1" transform="translate(0, 215.5)">

        </g>
        <g class="tick" opacity="1" transform="translate(0, 181.3333282470703)">

        </g>
        <g class="tick" opacity="1" transform="translate(0, 147.1666717529297)">
            <line stroke="currentColor" x2="-6"></line><text fill="currentColor" x="-9" dy="0.32em">4336</text>
        </g>
        <g class="tick" opacity="1" transform="translate(0, 113)">

        </g>
        <g class="tick" opacity="1" transform="translate(0, 78.83333587646484)">

        </g>
        <g class="tick" opacity="1" transform="translate(0, 44.66666793823242)">

        </g>
        <g class="tick" opacity="1" transform="translate(0, 10.5)">
            <line stroke="currentColor" x2="-6"></line><text fill="currentColor" x="-9" dy="0.32em">4338</text>
        </g>
    </g>
    <line class="grid-line" x1="81" y1="385.8333333333333" x2="770" y2="385.8333333333333" fill="none" stroke="#64748b"
        stroke-opacity="0.1"></line>
    <line class="grid-line" x1="81" y1="351.6666666666667" x2="770" y2="351.6666666666667" fill="none" stroke="#64748b"
        stroke-opacity="0.1"></line>
    <line class="grid-line" x1="81" y1="317.5" x2="770" y2="317.5" fill="none" stroke="#64748b" stroke-opacity="0.1">
    </line>
    <line class="grid-line" x1="81" y1="283.33333333333337" x2="770" y2="283.33333333333337" fill="none"
        stroke="#64748b" stroke-opacity="0.1"></line>
    <line class="grid-line" x1="81" y1="249.16666666666663" x2="770" y2="249.16666666666663" fill="none"
        stroke="#64748b" stroke-opacity="0.1"></line>
    <line class="grid-line" x1="81" y1="215" x2="770" y2="215" fill="none" stroke="#64748b" stroke-opacity="0.1">
    </line>
    <line class="grid-line" x1="81" y1="180.83333333333331" x2="770" y2="180.83333333333331" fill="none"
        stroke="#64748b" stroke-opacity="0.1"></line>
    <line class="grid-line" x1="81" y1="146.66666666666669" x2="770" y2="146.66666666666669" fill="none"
        stroke="#64748b" stroke-opacity="0.1"></line>
    <line class="grid-line" x1="81" y1="112.5" x2="770" y2="112.5" fill="none" stroke="#64748b" stroke-opacity="0.1">
    </line>
    <line class="grid-line" x1="81" y1="78.33333333333331" x2="770" y2="78.33333333333331" fill="none" stroke="#64748b"
        stroke-opacity="0.1"></line>
    <line class="grid-line" x1="81" y1="44.16666666666668" x2="770" y2="44.16666666666668" fill="none" stroke="#64748b"
        stroke-opacity="0.1"></line>
    <line class="grid-line" x1="81" y1="10" x2="770" y2="10" fill="none" stroke="#64748b" stroke-opacity="0.1"></line>
</svg>