<svg xmlns="http://www.w3.org/2000/svg" viewBox="0,0,800,500" preserveAspectRatio="xMidYMid meet">
    <line class="grid-line" x1="81" y1="420" x2="770" y2="420" fill="none" stroke="#64748b" stroke-opacity="0.1">
    </line>
    <line class="grid-line" x1="81" y1="382.72727272727275" x2="770" y2="382.72727272727275" fill="none"
        stroke="#64748b" stroke-opacity="0.1"></line>
    <line class="grid-line" x1="81" y1="345.45454545454544" x2="770" y2="345.45454545454544" fill="none"
        stroke="#64748b" stroke-opacity="0.1"></line>
    <line class="grid-line" x1="81" y1="308.1818181818182" x2="770" y2="308.1818181818182" fill="none" stroke="#64748b"
        stroke-opacity="0.1"></line>
    <line class="grid-line" x1="81" y1="270.9090909090909" x2="770" y2="270.9090909090909" fill="none" stroke="#64748b"
        stroke-opacity="0.1"></line>
    <line class="grid-line" x1="81" y1="233.6363636363636" x2="770" y2="233.6363636363636" fill="none" stroke="#64748b"
        stroke-opacity="0.1"></line>
    <line class="grid-line" x1="81" y1="196.3636363636364" x2="770" y2="196.3636363636364" fill="none" stroke="#64748b"
        stroke-opacity="0.1"></line>
    <line class="grid-line" x1="81" y1="159.0909090909091" x2="770" y2="159.0909090909091" fill="none" stroke="#64748b"
        stroke-opacity="0.1"></line>
    <line class="grid-line" x1="81" y1="121.81818181818181" x2="770" y2="121.81818181818181" fill="none"
        stroke="#64748b" stroke-opacity="0.1"></line>
    <line class="grid-line" x1="81" y1="84.54545454545453" x2="770" y2="84.54545454545453" fill="none" stroke="#64748b"
        stroke-opacity="0.1"></line>

    <text x="100" y="30" text-anchor="start" fill="#b45309" font-family="monospace" font-size="20">
        ethr-goerli
    </text>
    <path
        d="M80,416.27272727272725C82.58426966292134,415.34090909090907,85.1685393258427,414.4090909090909,87.75280898876404,414.4090909090909C90.33707865168539,414.4090909090909,92.92134831460673,414.4090909090909,95.50561797752808,414.4090909090909C98.08988764044943,414.4090909090909,100.67415730337078,409.75,103.25842696629213,406.95454545454544C105.84269662921348,404.1590909090909,108.42696629213484,401.9848484848485,111.01123595505618,397.6363636363636C113.59550561797752,393.28787878787875,116.17977528089888,387.0757575757576,118.76404494382022,380.8636363636364C121.34831460674157,374.6515151515151,123.93258426966293,364.090909090909,126.51685393258427,360.3636363636363C129.1011235955056,356.6363636363636,131.68539325842696,356.32575757575756,134.2696629213483,354.77272727272725C136.85393258426964,353.21969696969694,139.43820224719101,351.04545454545456,142.02247191011236,351.04545454545456C144.6067415730337,351.04545454545456,147.19101123595507,351.04545454545456,149.77528089887642,351.04545454545456C152.35955056179776,351.04545454545456,154.9438202247191,351.04545454545456,157.52808988764045,351.04545454545456C160.1123595505618,351.04545454545456,162.69662921348313,351.04545454545456,165.28089887640448,351.04545454545456C167.86516853932582,351.04545454545456,170.4494382022472,351.04545454545456,173.03370786516854,351.04545454545456C175.61797752808988,351.04545454545456,178.20224719101125,347.3181818181818,180.7865168539326,347.3181818181818C183.37078651685394,347.3181818181818,185.95505617977528,347.3181818181818,188.53932584269663,347.3181818181818C191.12359550561797,347.3181818181818,193.7078651685393,347.3181818181818,196.29213483146066,347.3181818181818C198.876404494382,347.3181818181818,201.46067415730337,347.3181818181818,204.04494382022472,347.3181818181818C206.62921348314606,347.3181818181818,209.21348314606743,347.3181818181818,211.79775280898878,347.3181818181818C214.38202247191012,347.3181818181818,216.96629213483143,342.0378787878788,219.55056179775278,339.8636363636364C222.13483146067415,337.68939393939394,224.7191011235955,336.75757575757575,227.30337078651687,334.27272727272725C229.8876404494382,331.78787878787875,232.47191011235955,327.1287878787879,235.0561797752809,324.95454545454544C237.64044943820224,322.780303030303,240.22471910112358,321.22727272727275,242.80898876404493,321.22727272727275C245.39325842696627,321.22727272727275,247.9775280898876,321.22727272727275,250.56179775280896,321.22727272727275C253.14606741573033,321.22727272727275,255.7303370786517,321.22727272727275,258.3146067415731,321.22727272727275C260.8988764044944,321.22727272727275,263.48314606741576,321.22727272727275,266.0674157303371,321.22727272727275C268.65168539325845,321.22727272727275,271.23595505617976,321.22727272727275,273.82022471910113,321.22727272727275C276.4044943820225,321.22727272727275,278.9887640449438,314.70454545454544,281.5730337078652,311.9090909090909C284.15730337078656,309.1136363636363,286.7415730337079,304.4545454545455,289.32584269662925,304.4545454545455C291.91011235955057,304.4545454545455,294.49438202247194,304.4545454545455,297.07865168539325,304.4545454545455C299.6629213483146,304.4545454545455,302.24719101123594,304.4545454545455,304.8314606741573,304.4545454545455C307.4157303370786,304.4545454545455,310,304.4545454545455,312.5842696629213,304.4545454545455C315.1685393258427,304.4545454545455,317.752808988764,301.65909090909093,320.3370786516854,300.72727272727275C322.92134831460675,299.79545454545456,325.50561797752806,300.1060606060606,328.08988764044943,298.8636363636364C330.6741573033708,297.6212121212121,333.2584269662921,272.77272727272725,335.8426966292135,272.77272727272725C338.4269662921348,272.77272727272725,341.0112359550562,272.77272727272725,343.5955056179775,272.77272727272725C346.17977528089887,272.77272727272725,348.76404494382024,251.34090909090912,351.3483146067416,244.81818181818184C353.9325842696629,238.29545454545465,356.5168539325843,238.60606060606054,359.1011235955056,233.6363636363636C361.685393258427,228.66666666666663,364.2696629213483,218.72727272727275,366.85393258426967,215C369.43820224719104,211.27272727272725,372.02247191011236,212.51515151515147,374.60674157303373,209.40909090909088C377.1910112359551,206.30303030303028,379.7752808988764,197.6060606060607,382.3595505617978,196.3636363636364C384.9438202247191,195.12121212121212,387.5280898876405,194.49999999999997,390.1123595505618,194.49999999999997C392.69662921348316,194.49999999999997,395.2808988764045,194.49999999999997,397.86516853932585,194.49999999999997C400.44943820224717,194.49999999999997,403.03370786516854,190.77272727272728,405.61797752808985,190.77272727272728C408.2022471910112,190.77272727272728,410.78651685393254,190.77272727272728,413.3707865168539,190.77272727272728C415.9550561797752,190.77272727272728,418.5393258426966,190.77272727272728,421.1235955056179,190.77272727272728C423.7078651685393,190.77272727272728,426.2921348314607,190.77272727272728,428.8764044943821,190.77272727272728C431.46067415730346,190.77272727272728,434.0449438202248,190.77272727272728,436.62921348314615,190.77272727272728C439.21348314606746,190.77272727272728,441.7977528089888,189.53030303030297,444.3820224719101,187.04545454545453C446.96629213483146,184.56060606060606,449.5505617977528,179.90151515151516,452.13483146067415,175.86363636363637C454.7191011235955,171.8257575757576,457.30337078651684,162.8181818181818,459.8876404494382,162.8181818181818C462.4719101123596,162.8181818181818,465.0561797752809,162.8181818181818,467.64044943820227,162.8181818181818C470.2247191011236,162.8181818181818,472.80898876404495,161.2651515151515,475.39325842696627,159.0909090909091C477.97752808988764,156.91666666666666,480.56179775280896,149.77272727272728,483.14606741573033,149.77272727272728C485.7303370786517,149.77272727272728,488.314606741573,149.77272727272728,490.8988764044944,149.77272727272728C493.48314606741576,149.77272727272728,496.0674157303371,149.77272727272728,498.65168539325845,149.77272727272728C501.23595505617976,149.77272727272728,503.82022471910113,147.28787878787878,506.40449438202245,146.04545454545453C508.9887640449438,144.80303030303028,511.57303370786514,142.31818181818184,514.1573033707865,142.31818181818184C516.7415730337078,142.31818181818184,519.3258426966293,142.31818181818184,521.9101123595506,142.31818181818184C524.4943820224719,142.31818181818184,527.0786516853933,142.31818181818184,529.6629213483146,142.31818181818184C532.2471910112359,142.31818181818184,534.8314606741574,133.62121212121215,537.4157303370787,129.27272727272725C540,124.92424242424242,542.5842696629213,124.92424242424241,545.1685393258426,116.2272727272727C547.7528089887641,107.53030303030275,550.3370786516854,64.04545454545456,552.9213483146068,64.04545454545456C555.5056179775281,64.04545454545456,558.0898876404494,64.04545454545456,560.6741573033707,64.04545454545456C563.2584269662921,64.04545454545456,565.8426966292135,56.59090909090909,568.4269662921348,56.59090909090909C571.0112359550561,56.59090909090909,573.5955056179776,56.59090909090909,576.1797752808989,56.59090909090909C578.7640449438202,56.59090909090909,581.3483146067416,56.59090909090909,583.9325842696629,56.59090909090909C586.5168539325842,56.59090909090909,589.1011235955057,54.72727272727274,591.685393258427,54.72727272727274C594.2696629213483,54.72727272727274,596.8539325842697,54.72727272727274,599.438202247191,54.72727272727274C602.0224719101124,54.72727272727274,604.6067415730337,54.72727272727274,607.191011235955,54.72727272727274C609.7752808988764,54.72727272727274,612.3595505617977,53.48484848484848,614.9438202247192,52.863636363636346C617.5280898876405,52.24242424242423,620.1123595505619,50.99999999999999,622.6966292134832,50.99999999999999C625.2808988764045,50.99999999999999,627.8651685393259,50.99999999999999,630.4494382022472,50.99999999999999C633.0337078651685,50.99999999999999,635.6179775280899,42.924242424242415,638.2022471910112,41.68181818181818C640.7865168539325,40.439393939393945,643.370786516854,40.439393939393945,645.9550561797753,39.81818181818183C648.5393258426966,39.19696969696971,651.123595505618,38.575757575757606,653.7078651685393,37.954545454545475C656.2921348314607,37.33333333333336,658.876404494382,36.7121212121212,661.4606741573033,36.09090909090908C664.0449438202247,35.46969696969695,666.629213483146,34.848484848484844,669.2134831460675,34.22727272727272C671.7977528089888,33.60606060606061,674.3820224719101,32.363636363636374,676.9662921348314,32.363636363636374C679.5505617977528,32.363636363636374,682.1348314606741,32.363636363636374,684.7191011235956,32.363636363636374C687.3033707865169,32.363636363636374,689.8876404494382,32.363636363636374,692.4719101123595,32.363636363636374C695.0561797752808,32.363636363636374,697.6404494382023,32.363636363636374,700.2247191011236,32.363636363636374C702.8089887640449,32.363636363636374,705.3932584269663,32.363636363636374,707.9775280898876,32.363636363636374C710.561797752809,32.363636363636374,713.1460674157304,30.500000000000018,715.7303370786517,30.500000000000018C718.314606741573,30.500000000000018,720.8988764044944,30.500000000000018,723.4831460674158,30.500000000000018C726.0674157303371,30.500000000000018,728.6516853932584,30.500000000000018,731.2359550561797,30.500000000000018C733.8202247191011,30.500000000000018,736.4044943820224,30.500000000000018,738.9887640449439,30.500000000000018C741.5730337078652,30.500000000000018,744.1573033707865,28.0151515151515,746.7415730337078,26.772727272727266C749.3258426966291,25.530303030303013,751.9101123595506,23.04545454545456,754.4943820224719,23.04545454545456C757.0786516853932,23.04545454545456,759.6629213483145,23.04545454545456,762.2471910112358,23.04545454545456C764.8314606741573,23.04545454545456,767.4157303370786,23.04545454545456,770,23.04545454545456"
        fill="none" stroke-linecap="round" stroke-linejoin="bevel" stroke="#b45309" class="line ethr-goerli"
        stroke-width="2"></path>
    <g class="x-primary" transform="translate(0,420)" fill="none" font-size="10" font-family="sans-serif"
        text-anchor="middle" style="font-size: 23px; color: #1e293b;">
        <path class="domain" stroke="currentColor" d="M80.5,10V0.5H770.5V10"></path>
        <g class="tick" opacity="1" transform="translate(95.68258666992188, 0)">
            <line stroke="currentColor" y2="10"></line><text fill="currentColor" y="25" dy="0.71em">26</text>
        </g>
        <g class="tick" opacity="1" transform="translate(149.62921142578125, 0)">
            <line stroke="currentColor" y2="10"></line><text fill="currentColor" y="25" dy="0.71em">2</text>
        </g>
        <g class="tick" opacity="1" transform="translate(203.8988800048828, 0)">
            <line stroke="currentColor" y2="10"></line><text fill="currentColor" y="25" dy="0.71em">9</text>
        </g>
        <g class="tick" opacity="1" transform="translate(258.1685485839844, 0)">
            <line stroke="currentColor" y2="10"></line><text fill="currentColor" y="25" dy="0.71em">16</text>
        </g>
        <g class="tick" opacity="1" transform="translate(312.4382019042969, 0)">
            <line stroke="currentColor" y2="10"></line><text fill="currentColor" y="25" dy="0.71em">23</text>
        </g>
        <g class="tick" opacity="1" transform="translate(366.7078552246094, 0)">
            <line stroke="currentColor" y2="10"></line><text fill="currentColor" y="25" dy="0.71em">30</text>
        </g>
        <g class="tick" opacity="1" transform="translate(420.9775390625, 0)">
            <line stroke="currentColor" y2="10"></line><text fill="currentColor" y="25" dy="0.71em">7</text>
        </g>
        <g class="tick" opacity="1" transform="translate(475.2471923828125, 0)">
            <line stroke="currentColor" y2="10"></line><text fill="currentColor" y="25" dy="0.71em">14</text>
        </g>
        <g class="tick" opacity="1" transform="translate(529.516845703125, 0)">
            <line stroke="currentColor" y2="10"></line><text fill="currentColor" y="25" dy="0.71em">21</text>
        </g>
        <g class="tick" opacity="1" transform="translate(583.7864990234375, 0)">
            <line stroke="currentColor" y2="10"></line><text fill="currentColor" y="25" dy="0.71em">28</text>
        </g>
        <g class="tick" opacity="1" transform="translate(638.05615234375, 0)">
            <line stroke="currentColor" y2="10"></line><text fill="currentColor" y="25" dy="0.71em">4</text>
        </g>
        <g class="tick" opacity="1" transform="translate(692.3258666992188, 0)">
            <line stroke="currentColor" y2="10"></line><text fill="currentColor" y="25" dy="0.71em">11</text>
        </g>
        <g class="tick" opacity="1" transform="translate(746.5955200195312, 0)">
            <line stroke="currentColor" y2="10"></line><text fill="currentColor" y="25" dy="0.71em">18</text>
        </g>
    </g>
    <g class="x-secondary" transform="translate(0,470)" fill="none" font-size="10" font-family="sans-serif"
        text-anchor="middle" style="font-size: 23px; color: #1e293b;">
        <g class="tick" opacity="1" transform="translate(95.68258666992188, 0)">
            <line stroke="currentColor" y2="20"></line><text fill="currentColor" y="35" dy="0.71em"
                transform="translate(-5, -33)" style="text-anchor: end;">March</text>
        </g>
        <g class="tick" opacity="1" transform="translate(366.7078552246094, 0)">
            <line stroke="currentColor" y2="20"></line><text fill="currentColor" y="35" dy="0.71em"
                transform="translate(-5, -33)" style="text-anchor: end;">April</text>
        </g>
        <g class="tick" opacity="1" transform="translate(583.7864990234375, 0)">
            <line stroke="currentColor" y2="20"></line><text fill="currentColor" y="35" dy="0.71em"
                transform="translate(-5, -33)" style="text-anchor: end;">May</text>
        </g>
    </g>
    <g class="y-axis" transform="translate(80,0)" fill="none" font-size="10" font-family="sans-serif" text-anchor="end"
        style="font-size: 23px; color: #1e293b;">
        <g class="tick" opacity="1" transform="translate(0, 420.5)">
            <line stroke="currentColor" x2="-6"></line><text fill="currentColor" x="-9" dy="0.32em">2.1k</text>
        </g>
        <g class="tick" opacity="1" transform="translate(0, 383.2272644042969)">
            <line stroke="currentColor" x2="-6"></line><text fill="currentColor" x="-9" dy="0.32em">2.2k</text>
        </g>
        <g class="tick" opacity="1" transform="translate(0, 345.9545593261719)">
            <line stroke="currentColor" x2="-6"></line><text fill="currentColor" x="-9" dy="0.32em">2.2k</text>
        </g>
        <g class="tick" opacity="1" transform="translate(0, 308.68182373046875)">
            <line stroke="currentColor" x2="-6"></line><text fill="currentColor" x="-9" dy="0.32em">2.2k</text>
        </g>
        <g class="tick" opacity="1" transform="translate(0, 271.4090881347656)">
            <line stroke="currentColor" x2="-6"></line><text fill="currentColor" x="-9" dy="0.32em">2.2k</text>
        </g>
        <g class="tick" opacity="1" transform="translate(0, 234.13636779785156)">
            <line stroke="currentColor" x2="-6"></line><text fill="currentColor" x="-9" dy="0.32em">2.2k</text>
        </g>
        <g class="tick" opacity="1" transform="translate(0, 196.86363220214844)">
            <line stroke="currentColor" x2="-6"></line><text fill="currentColor" x="-9" dy="0.32em">2.3k</text>
        </g>
        <g class="tick" opacity="1" transform="translate(0, 159.59091186523438)">
            <line stroke="currentColor" x2="-6"></line><text fill="currentColor" x="-9" dy="0.32em">2.3k</text>
        </g>
        <g class="tick" opacity="1" transform="translate(0, 122.31818389892578)">
            <line stroke="currentColor" x2="-6"></line><text fill="currentColor" x="-9" dy="0.32em">2.3k</text>
        </g>
        <g class="tick" opacity="1" transform="translate(0, 85.04545593261719)">
            <line stroke="currentColor" x2="-6"></line><text fill="currentColor" x="-9" dy="0.32em">2.3k</text>
        </g>
        <g class="tick" opacity="1" transform="translate(0, 47.772727966308594)">
            <line stroke="currentColor" x2="-6"></line><text fill="currentColor" x="-9" dy="0.32em">2.3k</text>
        </g>
        <g class="tick" opacity="1" transform="translate(0, 10.5)">
            <line stroke="currentColor" x2="-6"></line><text fill="currentColor" x="-9" dy="0.32em">2.4k</text>
        </g>
    </g>
    <line class="grid-line" x1="81" y1="47.27272727272728" x2="770" y2="47.27272727272728" fill="none" stroke="#64748b"
        stroke-opacity="0.1"></line>
    <line class="grid-line" x1="81" y1="10" x2="770" y2="10" fill="none" stroke="#64748b" stroke-opacity="0.1"></line>
</svg>