<svg xmlns="http://www.w3.org/2000/svg" viewBox="0,0,800,500" preserveAspectRatio="xMidYMid meet">
    <line class="grid-line" x1="81" y1="420" x2="770" y2="420" fill="none" stroke="#64748b" stroke-opacity="0.1">
    </line>
    <line class="grid-line" x1="81" y1="382.72727272727275" x2="770" y2="382.72727272727275" fill="none"
        stroke="#64748b" stroke-opacity="0.1"></line>
    <line class="grid-line" x1="81" y1="345.45454545454544" x2="770" y2="345.45454545454544" fill="none"
        stroke="#64748b" stroke-opacity="0.1"></line>
    <line class="grid-line" x1="81" y1="308.1818181818182" x2="770" y2="308.1818181818182" fill="none" stroke="#64748b"
        stroke-opacity="0.1"></line>
    <line class="grid-line" x1="81" y1="270.9090909090909" x2="770" y2="270.9090909090909" fill="none" stroke="#64748b"
        stroke-opacity="0.1"></line>
    <line class="grid-line" x1="81" y1="233.6363636363636" x2="770" y2="233.6363636363636" fill="none" stroke="#64748b"
        stroke-opacity="0.1"></line>
    <line class="grid-line" x1="81" y1="196.3636363636364" x2="770" y2="196.3636363636364" fill="none" stroke="#64748b"
        stroke-opacity="0.1"></line>
    <line class="grid-line" x1="81" y1="159.0909090909091" x2="770" y2="159.0909090909091" fill="none" stroke="#64748b"
        stroke-opacity="0.1"></line>
    <line class="grid-line" x1="81" y1="121.81818181818181" x2="770" y2="121.81818181818181" fill="none"
        stroke="#64748b" stroke-opacity="0.1"></line>
    <line class="grid-line" x1="81" y1="84.54545454545453" x2="770" y2="84.54545454545453" fill="none" stroke="#64748b"
        stroke-opacity="0.1"></line>
    <g class="x-primary" transform="translate(0,420)" fill="none" font-size="10" font-family="sans-serif"
        text-anchor="middle" style="font-size: 23px; color: #1e293b;">
        <path class="domain" stroke="currentColor" d="M80.5,10V0.5H770.5V10"></path>
        <g class="tick" opacity="1" transform="translate(126.10344696044922, 0)">
            <line stroke="currentColor" y2="10"></line><text fill="currentColor" y="25" dy="0.71em">25</text>
        </g>
        <g class="tick" opacity="1" transform="translate(173.6896514892578, 0)">
            <line stroke="currentColor" y2="10"></line><text fill="currentColor" y="25" dy="0.71em">27</text>
        </g>
        <g class="tick" opacity="1" transform="translate(221.27586364746094, 0)">
            <line stroke="currentColor" y2="10"></line><text fill="currentColor" y="25" dy="0.71em">29</text>
        </g>
        <g class="tick" opacity="1" transform="translate(268.862060546875, 0)">
            <line stroke="currentColor" y2="10"></line><text fill="currentColor" y="25" dy="0.71em">31</text>
        </g>
        <g class="tick" opacity="1" transform="translate(292.6551818847656, 0)">
            <line stroke="currentColor" y2="10"></line><text fill="currentColor" y="25" dy="0.71em">1</text>
        </g>
        <g class="tick" opacity="1" transform="translate(340.24139404296875, 0)">
            <line stroke="currentColor" y2="10"></line><text fill="currentColor" y="25" dy="0.71em">3</text>
        </g>
        <g class="tick" opacity="1" transform="translate(387.82757568359375, 0)">
            <line stroke="currentColor" y2="10"></line><text fill="currentColor" y="25" dy="0.71em">5</text>
        </g>
        <g class="tick" opacity="1" transform="translate(435.4137878417969, 0)">
            <line stroke="currentColor" y2="10"></line><text fill="currentColor" y="25" dy="0.71em">7</text>
        </g>
        <g class="tick" opacity="1" transform="translate(483, 0)">
            <line stroke="currentColor" y2="10"></line><text fill="currentColor" y="25" dy="0.71em">9</text>
        </g>
        <g class="tick" opacity="1" transform="translate(530.586181640625, 0)">
            <line stroke="currentColor" y2="10"></line><text fill="currentColor" y="25" dy="0.71em">11</text>
        </g>
        <g class="tick" opacity="1" transform="translate(578.1724243164062, 0)">
            <line stroke="currentColor" y2="10"></line><text fill="currentColor" y="25" dy="0.71em">13</text>
        </g>
        <g class="tick" opacity="1" transform="translate(625.7586059570312, 0)">
            <line stroke="currentColor" y2="10"></line><text fill="currentColor" y="25" dy="0.71em">15</text>
        </g>
        <g class="tick" opacity="1" transform="translate(673.3448486328125, 0)">
            <line stroke="currentColor" y2="10"></line><text fill="currentColor" y="25" dy="0.71em">17</text>
        </g>
        <g class="tick" opacity="1" transform="translate(720.9310302734375, 0)">
            <line stroke="currentColor" y2="10"></line><text fill="currentColor" y="25" dy="0.71em">19</text>
        </g>
        <g class="tick" opacity="1" transform="translate(768.5172119140625, 0)">
            <line stroke="currentColor" y2="10"></line><text fill="currentColor" y="25" dy="0.71em">21</text>
        </g>
    </g>
    <g class="x-secondary" transform="translate(0,470)" fill="none" font-size="10" font-family="sans-serif"
        text-anchor="middle" style="font-size: 23px; color: #1e293b;">
        <g class="tick" opacity="1" transform="translate(268.862060546875, 0)">
            <line stroke="currentColor" y2="20"></line><text fill="currentColor" y="35" dy="0.71em"
                transform="translate(-5, -33)" style="text-anchor: end;">May</text>
        </g>
    </g>
    <g class="y-axis" transform="translate(80,0)" fill="none" font-size="10" font-family="sans-serif" text-anchor="end"
        style="font-size: 23px; color: #1e293b;">
        <g class="tick" opacity="1" transform="translate(0, 420.5)">
            <line stroke="currentColor" x2="-6"></line><text fill="currentColor" x="-9" dy="0.32em">2.3k</text>
        </g>
        <g class="tick" opacity="1" transform="translate(0, 383.2272644042969)">
            <line stroke="currentColor" x2="-6"></line><text fill="currentColor" x="-9" dy="0.32em">2.3k</text>
        </g>
        <g class="tick" opacity="1" transform="translate(0, 345.9545593261719)">
            <line stroke="currentColor" x2="-6"></line><text fill="currentColor" x="-9" dy="0.32em">2.3k</text>
        </g>
        <g class="tick" opacity="1" transform="translate(0, 308.68182373046875)">
            <line stroke="currentColor" x2="-6"></line><text fill="currentColor" x="-9" dy="0.32em">2.3k</text>
        </g>
        <g class="tick" opacity="1" transform="translate(0, 271.4090881347656)">
            <line stroke="currentColor" x2="-6"></line><text fill="currentColor" x="-9" dy="0.32em">2.3k</text>
        </g>
        <g class="tick" opacity="1" transform="translate(0, 234.13636779785156)">
            <line stroke="currentColor" x2="-6"></line><text fill="currentColor" x="-9" dy="0.32em">2.3k</text>
        </g>
        <g class="tick" opacity="1" transform="translate(0, 196.86363220214844)">
            <line stroke="currentColor" x2="-6"></line><text fill="currentColor" x="-9" dy="0.32em">2.3k</text>
        </g>
        <g class="tick" opacity="1" transform="translate(0, 159.59091186523438)">
            <line stroke="currentColor" x2="-6"></line><text fill="currentColor" x="-9" dy="0.32em">2.3k</text>
        </g>
        <g class="tick" opacity="1" transform="translate(0, 122.31818389892578)">
            <line stroke="currentColor" x2="-6"></line><text fill="currentColor" x="-9" dy="0.32em">2.3k</text>
        </g>
        <g class="tick" opacity="1" transform="translate(0, 85.04545593261719)">
            <line stroke="currentColor" x2="-6"></line><text fill="currentColor" x="-9" dy="0.32em">2.3k</text>
        </g>
        <g class="tick" opacity="1" transform="translate(0, 47.772727966308594)">
            <line stroke="currentColor" x2="-6"></line><text fill="currentColor" x="-9" dy="0.32em">2.4k</text>
        </g>
        <g class="tick" opacity="1" transform="translate(0, 10.5)">
            <line stroke="currentColor" x2="-6"></line><text fill="currentColor" x="-9" dy="0.32em">2.4k</text>
        </g>
    </g>
    <line class="grid-line" x1="81" y1="47.27272727272728" x2="770" y2="47.27272727272728" fill="none" stroke="#64748b"
        stroke-opacity="0.1"></line>
    <line class="grid-line" x1="81" y1="10" x2="770" y2="10" fill="none" stroke="#64748b" stroke-opacity="0.1"></line>

    <text x="100" y="30" text-anchor="start" fill="#b45309" font-family="monospace" font-size="20">
        ethr-goerli
    </text>
    <path
        d="M80,397.6363636363636C87.93103448275862,293.27272727272725,95.86206896551724,188.9090909090909,103.79310344827586,188.9090909090909C111.72413793103448,188.9090909090909,119.6551724137931,188.9090909090909,127.58620689655172,188.9090909090909C135.51724137931032,188.9090909090909,143.44827586206895,159.0909090909091,151.37931034482756,159.0909090909091C159.3103448275862,159.0909090909091,167.2413793103448,159.0909090909091,175.17241379310343,159.0909090909091C183.10344827586206,159.0909090909091,191.03448275862067,159.0909090909091,198.9655172413793,159.0909090909091C206.89655172413794,159.0909090909091,214.82758620689654,151.63636363636363,222.75862068965517,151.63636363636363C230.6896551724138,151.63636363636363,238.6206896551724,151.63636363636363,246.55172413793105,151.63636363636363C254.48275862068968,151.63636363636363,262.4137931034483,151.63636363636363,270.3448275862069,151.63636363636363C278.2758620689655,151.63636363636363,286.2068965517242,146.66666666666669,294.1379310344828,144.1818181818182C302.0689655172414,141.69696969696972,310,136.72727272727272,317.9310344827586,136.72727272727272C325.8620689655172,136.72727272727272,333.7931034482758,136.72727272727272,341.7241379310344,136.72727272727272C349.6551724137931,136.72727272727272,357.5862068965517,104.42424242424244,365.51724137931035,99.45454545454544C373.44827586206895,94.48484848484847,381.37931034482756,94.48484848484847,389.31034482758616,91.99999999999999C397.24137931034477,89.5151515151515,405.17241379310343,87.03030303030302,413.10344827586204,84.54545454545453C421.03448275862064,82.06060606060605,428.9655172413793,79.57575757575758,436.8965517241379,77.09090909090911C444.82758620689657,74.60606060606062,452.7586206896552,72.12121212121214,460.68965517241384,69.63636363636365C468.62068965517244,67.15151515151517,476.55172413793105,62.1818181818182,484.48275862068965,62.1818181818182C492.4137931034483,62.1818181818182,500.3448275862069,62.1818181818182,508.2758620689656,62.1818181818182C516.2068965517242,62.1818181818182,524.1379310344828,62.1818181818182,532.0689655172414,62.1818181818182C540,62.1818181818182,547.9310344827586,62.1818181818182,555.8620689655172,62.1818181818182C563.7931034482758,62.1818181818182,571.7241379310345,62.1818181818182,579.6551724137931,62.1818181818182C587.5862068965517,62.1818181818182,595.5172413793102,54.72727272727274,603.4482758620688,54.72727272727274C611.3793103448276,54.72727272727274,619.3103448275862,54.72727272727274,627.2413793103449,54.72727272727274C635.1724137931035,54.72727272727274,643.103448275862,54.72727272727274,651.0344827586206,54.72727272727274C658.9655172413792,54.72727272727274,666.8965517241379,54.72727272727274,674.8275862068965,54.72727272727274C682.7586206896551,54.72727272727274,690.6896551724137,44.78787878787879,698.6206896551723,39.81818181818183C706.5517241379309,34.848484848484844,714.4827586206897,24.909090909090914,722.4137931034483,24.909090909090914C730.3448275862069,24.909090909090914,738.2758620689655,24.909090909090914,746.2068965517241,24.909090909090914C754.1379310344827,24.909090909090914,762.0689655172414,24.909090909090914,770,24.909090909090914"
        fill="none" stroke-linecap="round" stroke-linejoin="bevel" stroke="#b45309" class="line ethr-goerli"
        stroke-width="2"></path>
</svg>