<svg xmlns="http://www.w3.org/2000/svg" viewBox="0,0,800,500" preserveAspectRatio="xMidYMid meet">
    <line class="grid-line" x1="81" y1="215" x2="770" y2="215" fill="none" stroke="lightgray" stroke-opacity="0.1">
    </line>
    <line class="grid-line" x1="81" y1="385.8333333333333" x2="770" y2="385.8333333333333" fill="none" stroke="#64748b"
        stroke-opacity="0.1"></line>
    <line class="grid-line" x1="81" y1="351.6666666666667" x2="770" y2="351.6666666666667" fill="none" stroke="#64748b"
        stroke-opacity="0.1"></line>
    <line class="grid-line" x1="81" y1="317.5" x2="770" y2="317.5" fill="none" stroke="#64748b" stroke-opacity="0.1">
    </line>
    <line class="grid-line" x1="81" y1="283.33333333333337" x2="770" y2="283.33333333333337" fill="none"
        stroke="#64748b" stroke-opacity="0.1"></line>
    <line class="grid-line" x1="81" y1="249.16666666666663" x2="770" y2="249.16666666666663" fill="none"
        stroke="#64748b" stroke-opacity="0.1"></line>
    <line class="grid-line" x1="81" y1="215" x2="770" y2="215" fill="none" stroke="#64748b" stroke-opacity="0.1">
    </line>
    <line class="grid-line" x1="81" y1="180.83333333333331" x2="770" y2="180.83333333333331" fill="none"
        stroke="#64748b" stroke-opacity="0.1"></line>
    <line class="grid-line" x1="81" y1="146.66666666666669" x2="770" y2="146.66666666666669" fill="none"
        stroke="#64748b" stroke-opacity="0.1"></line>
    <line class="grid-line" x1="81" y1="112.5" x2="770" y2="112.5" fill="none" stroke="#64748b" stroke-opacity="0.1">
    </line>
    <line class="grid-line" x1="81" y1="78.33333333333331" x2="770" y2="78.33333333333331" fill="none" stroke="#64748b"
        stroke-opacity="0.1"></line>
    <line class="grid-line" x1="81" y1="44.16666666666668" x2="770" y2="44.16666666666668" fill="none" stroke="#64748b"
        stroke-opacity="0.1"></line>
    <line class="grid-line" x1="81" y1="10" x2="770" y2="10" fill="none" stroke="#64748b" stroke-opacity="0.1"></line>

    <text x="100" y="40" text-anchor="start" fill="#059669" font-family="monospace" font-size="20">
        ethr-rinkeby
    </text>

    <path
        d="M80,215C80.64066852367688,215,81.28133704735376,215,81.92200557103064,215C82.56267409470752,215,83.2033426183844,215,83.84401114206128,215C84.48467966573816,215,85.12534818941504,215,85.76601671309191,215C86.4066852367688,215,87.04735376044569,215,87.68802228412257,215C88.32869080779945,215,88.96935933147633,215,89.6100278551532,215C90.25069637883009,215,90.89136490250698,215,91.53203342618386,215C92.17270194986074,215,92.8133704735376,215,93.45403899721448,215C94.09470752089136,215,94.73537604456824,215,95.37604456824512,215C96.016713091922,215,96.6573816155989,215,97.29805013927577,215C97.93871866295265,215,98.57938718662953,215,99.22005571030641,215C99.86072423398329,215,100.50139275766017,215,101.14206128133705,215C101.78272980501393,215,102.42339832869081,215,103.06406685236769,215C103.70473537604457,215,104.34540389972145,215,104.98607242339833,215C105.6267409470752,215,106.2674094707521,215,106.90807799442898,215C107.54874651810586,215,108.18941504178272,215,108.8300835654596,215C109.47075208913648,215,110.11142061281336,215,110.75208913649024,215C111.39275766016712,215,112.03342618384401,215,112.6740947075209,215C113.31476323119777,215,113.95543175487465,215,114.59610027855153,215C115.23676880222841,215,115.8774373259053,215,116.51810584958218,215C117.15877437325906,215,117.79944289693593,215,118.44011142061281,215C119.08077994428969,215,119.72144846796658,215,120.36211699164346,215C121.00278551532034,215,121.64345403899722,215,122.2841225626741,215C122.92479108635098,215,123.56545961002786,215,124.20612813370474,215C124.84679665738162,215,125.4874651810585,215,126.12813370473538,215C126.76880222841226,215,127.40947075208913,215,128.050139275766,215C128.6908077994429,215,129.33147632311977,215,129.97214484679665,215C130.61281337047353,215,131.2534818941504,215,131.8941504178273,215C132.53481894150417,215,133.17548746518105,215,133.81615598885793,215C134.4568245125348,215,135.0974930362117,215,135.73816155988857,215C136.37883008356545,215,137.01949860724233,215,137.6601671309192,215C138.30083565459609,215,138.941504178273,215,139.58217270194987,215C140.22284122562675,215,140.8635097493036,215,141.50417827298048,215C142.14484679665736,215,142.78551532033427,215,143.42618384401115,215C144.06685236768803,215,144.7075208913649,215,145.3481894150418,215C145.98885793871867,215,146.62952646239555,215,147.27019498607243,215C147.9108635097493,215,148.55153203342616,215,149.19220055710304,215C149.83286908077991,215,150.47353760445682,215,151.1142061281337,215C151.75487465181058,215,152.39554317548746,215,153.03621169916434,215C153.67688022284122,215,154.31754874651813,215,154.958217270195,215C155.5988857938719,215,156.23955431754877,215,156.88022284122565,215C157.52089136490252,215,158.16155988857938,215,158.80222841225626,215C159.44289693593313,215,160.08356545961004,215,160.72423398328692,215C161.3649025069638,215,162.00557103064068,215,162.64623955431756,215C163.28690807799444,215,163.92757660167132,215,164.5682451253482,215C165.20891364902508,215,165.84958217270196,215,166.49025069637884,215C167.13091922005572,215,167.7715877437326,215,168.41225626740948,215C169.05292479108635,215,169.69359331476323,215,170.3342618384401,215C170.974930362117,215,171.61559888579387,215,172.25626740947075,215C172.89693593314763,215,173.5376044568245,215,174.1782729805014,215C174.81894150417827,215,175.45961002785515,215,176.10027855153203,215C176.7409470752089,215,177.3816155988858,215,178.02228412256267,215C178.66295264623955,215,179.30362116991643,215,179.9442896935933,215C180.58495821727018,215,181.22562674094706,215,181.86629526462394,215C182.50696378830082,215,183.14763231197773,215,183.7883008356546,215C184.4289693593315,215,185.06963788300834,215,185.71030640668522,215C186.3509749303621,215,186.991643454039,215,187.6323119777159,215C188.27298050139277,215,188.91364902506962,215,189.5543175487465,215C190.19498607242338,215,190.83565459610028,215,191.47632311977716,215C192.11699164345404,215,192.7576601671309,215,193.39832869080777,215C194.03899721448465,215,194.67966573816156,215,195.32033426183844,215C195.96100278551532,215,196.60167130919217,215,197.24233983286905,215C197.88300835654596,215,198.52367688022284,215,199.16434540389974,215C199.80501392757662,215,200.44568245125348,215,201.08635097493035,215C201.72701949860723,215,202.36768802228414,215,203.00835654596102,215C203.6490250696379,215,204.28969359331475,215,204.93036211699163,215C205.5710306406685,215,206.2116991643454,215,206.85236768802227,215C207.49303621169915,215,208.13370473537606,215,208.77437325905294,215C209.41504178272982,215,210.0557103064067,215,210.69637883008357,215C211.33704735376045,215,211.97771587743733,215,212.6183844011142,215C213.2590529247911,215,213.89972144846797,215,214.54038997214485,215C215.18105849582173,215,215.8217270194986,215,216.4623955431755,215C217.10306406685237,215,217.74373259052925,215,218.38440111420613,215C219.025069637883,215,219.66573816155991,215,220.3064066852368,215C220.94707520891367,215,221.58774373259052,215,222.2284122562674,215C222.86908077994428,215,223.5097493036212,215,224.15041782729807,215C224.79108635097495,215,225.4317548746518,215,226.07242339832868,215C226.71309192200556,215,227.35376044568244,215,227.99442896935932,215C228.6350974930362,215,229.27576601671308,215,229.91643454038996,215C230.55710306406684,215,231.19777158774374,215,231.83844011142062,215C232.4791086350975,215,233.11977715877435,215,233.76044568245123,215C234.4011142061281,215,235.04178272980502,215,235.6824512534819,215C236.32311977715878,215,236.96378830083563,215,237.6044568245125,215C238.2451253481894,215,238.88579387186627,215,239.52646239554315,215C240.16713091922003,215,240.80779944289694,215,241.44846796657382,215C242.0891364902507,215,242.7298050139276,215,243.37047353760448,215C244.01114206128136,215,244.6518105849582,215,245.2924791086351,215C245.93314763231197,215,246.57381615598885,215,247.21448467966573,215C247.8551532033426,215,248.49582172701952,215,249.1364902506964,215C249.77715877437328,215,250.41782729805016,215,251.05849582172704,215C251.69916434540391,215,252.3398328690808,215,252.98050139275767,215C253.62116991643455,215,254.26183844011143,215,254.9025069637883,215C255.5431754874652,215,256.18384401114207,215,256.82451253481895,215C257.46518105849583,215,258.1058495821727,215,258.7465181058496,215C259.38718662952647,215,260.02785515320335,215,260.6685236768802,215C261.3091922005571,215,261.949860724234,215,262.59052924791087,215C263.23119777158774,215,263.8718662952646,215,264.5125348189415,215C265.1532033426184,215,265.79387186629526,215,266.43454038997214,215C267.075208913649,215,267.7158774373259,215,268.3565459610028,215C268.99721448467966,215,269.63788300835654,215,270.2785515320334,215C270.9192200557103,215,271.5598885793872,215,272.20055710306406,215C272.84122562674094,215,273.4818941504179,215,274.12256267409475,215C274.76323119777163,215,275.40389972144845,215,276.04456824512533,215C276.6852367688022,215,277.3259052924791,215,277.966573816156,215C278.60724233983285,215,279.24791086350973,215,279.8885793871866,215C280.5292479108635,215,281.1699164345404,215,281.8105849582173,215C282.4512534818942,215,283.091922005571,215,283.7325905292479,215C284.37325905292477,215,285.0139275766017,215,285.6545961002786,215C286.29526462395546,215,286.93593314763234,215,287.5766016713092,215C288.2172701949861,215,288.857938718663,215,289.49860724233986,215C290.13927576601674,215,290.77994428969356,215,291.42061281337044,215C292.0612813370473,215,292.70194986072426,215,293.34261838440113,215C293.983286908078,215,294.6239554317549,215,295.2646239554318,215C295.90529247910865,215,296.54596100278553,215,297.1866295264624,215C297.8272980501393,215,298.4679665738161,215,299.108635097493,215C299.7493036211699,215,300.3899721448468,215,301.0306406685237,215C301.67130919220057,215,302.31197771587745,215,302.9526462395543,215C303.5933147632312,215,304.2339832869081,215,304.87465181058496,215C305.51532033426184,215,306.1559888579387,215,306.7966573816156,215C307.4373259052925,215,308.07799442896936,215,308.71866295264624,215C309.3593314763231,215,310,215,310.6406685236769,215C311.28133704735376,215,311.92200557103064,215,312.5626740947075,215C313.2033426183844,215,313.8440111420612,215,314.4846796657381,215C315.125348189415,215,315.7660167130919,215,316.4066852367688,215C317.0473537604457,215,317.6880222841226,215,318.3286908077995,215C318.96935933147637,215,319.6100278551532,215,320.25069637883007,215C320.89136490250695,215,321.53203342618383,215,322.1727019498607,215C322.8133704735376,215,323.45403899721447,215,324.09470752089135,215C324.7353760445682,215,325.37604456824516,215,326.01671309192204,215C326.6573816155989,215,327.29805013927574,215,327.9387186629526,215C328.5793871866295,215,329.2200557103064,215,329.86072423398326,215C330.50139275766014,215,331.142061281337,215,331.7827298050139,215C332.4233983286908,215,333.06406685236766,215,333.70473537604454,215C334.3454038997214,215,334.98607242339835,215,335.62674094707523,215C336.2674094707521,215,336.908077994429,215,337.5487465181059,215C338.18941504178275,215,338.8300835654596,215,339.47075208913645,215C340.11142061281333,215,340.75208913649027,215,341.39275766016715,215C342.033426183844,215,342.6740947075209,215,343.3147632311978,215C343.95543175487467,215,344.59610027855155,215,345.2367688022284,215C345.8774373259053,215,346.5181058495822,215,347.15877437325906,215C347.79944289693594,215,348.4401114206128,215,349.0807799442897,215C349.7214484679666,215,350.36211699164346,215,351.00278551532034,215C351.6434540389972,215,352.2841225626741,215,352.924791086351,215C353.56545961002786,215,354.20612813370474,215,354.8467966573816,215C355.4874651810585,215,356.1281337047354,215,356.76880222841226,215C357.40947075208913,215,358.050139275766,215,358.6908077994429,215C359.3314763231198,215,359.9721448467967,215,360.6128133704736,215C361.2534818941504,215,361.8941504178273,215,362.5348189415041,215C363.175487465181,215,363.81615598885793,215,364.4568245125348,215C365.0974930362117,215,365.73816155988857,215,366.37883008356545,215C367.0194986072423,215,367.66016713091926,215,368.30083565459614,215C368.941504178273,215,369.58217270194984,215,370.2228412256267,215C370.8635097493036,215,371.5041782729805,215,372.14484679665736,215C372.78551532033424,215,373.4261838440112,215,374.06685236768806,215C374.70752089136494,215,375.34818941504176,215,375.98885793871864,215C376.6295264623955,215,377.2701949860724,215,377.9108635097493,215C378.55153203342616,215,379.1922005571031,215,379.83286908078,215C380.47353760445685,215,381.1142061281337,215,381.75487465181055,215C382.39554317548743,215,383.03621169916437,215,383.67688022284125,215C384.3175487465181,215,384.95821727019495,215,385.59888579387183,215C386.2395543175487,215,386.88022284122565,215,387.5208913649025,215C388.1615598885794,215,388.8022284122563,215,389.44289693593316,215C390.08356545961004,215,390.7242339832869,215,391.3649025069638,215C392.0055710306407,215,392.64623955431756,215,393.28690807799444,215C393.9275766016713,215,394.56824512534814,215,395.208913649025,215C395.8495821727019,215,396.49025069637884,215,397.1309192200557,215C397.7715877437326,215,398.4122562674095,215,399.05292479108635,215C399.69359331476323,215,400.3342618384401,215,400.974930362117,215C401.6155988857939,215,402.25626740947075,215,402.89693593314763,215C403.5376044568245,215,404.1782729805014,215,404.81894150417827,215C405.45961002785515,215,406.1002785515321,215,406.74094707520896,215C407.38161559888584,215,408.02228412256267,215,408.66295264623955,215C409.3036211699164,215,409.9442896935933,215,410.5849582172702,215C411.22562674094706,215,411.86629526462394,215,412.5069637883008,215C413.1476323119777,215,413.7883008356546,215,414.42896935933146,215C415.06963788300834,215,415.7103064066853,215,416.35097493036216,215C416.99164345403904,215,417.6323119777159,215,418.2729805013928,215C418.9136490250697,215,419.5543175487465,215,420.1949860724234,215C420.83565459610026,215,421.4763231197772,215,422.11699164345407,215C422.75766016713095,215,423.39832869080783,215,424.0389972144847,215C424.6796657381616,215,425.3203342618384,215,425.9610027855153,215C426.60167130919217,215,427.2423398328691,215,427.883008356546,215C428.52367688022287,215,429.16434540389974,215,429.8050139275766,215C430.4456824512535,215,431.0863509749303,215,431.7270194986072,215C432.3676880222841,215,433.008356545961,215,433.6490250696379,215C434.2896935933148,215,434.93036211699166,215,435.57103064066854,215C436.2116991643454,215,436.8523676880223,215,437.4930362116992,215C438.13370473537606,215,438.77437325905294,215,439.4150417827298,215C440.0557103064067,215,440.6963788300836,215,441.33704735376045,215C441.97771587743733,215,442.61838440111427,215,443.25905292479115,215C443.89972144846803,215,444.54038997214485,215,445.18105849582173,215C445.8217270194986,215,446.46239554317543,215,447.1030640668523,215C447.74373259052925,215,448.3844011142061,215,449.02506963788306,215C449.66573816155994,215,450.30640668523677,215,450.94707520891365,215C451.5877437325905,215,452.22841225626735,215,452.8690807799442,215C453.50974930362116,215,454.15041782729804,215,454.791086350975,215C455.43175487465186,215,456.0724233983287,215,456.71309192200556,215C457.35376044568244,215,457.9944289693594,215,458.63509749303626,215C459.27576601671313,215,459.91643454038996,215,460.55710306406684,215C461.1977715877437,215,461.83844011142054,215,462.4791086350974,215C463.11977715877435,215,463.76044568245123,215,464.40111420612817,215C465.04178272980505,215,465.6824512534819,215,466.32311977715875,215C466.9637883008357,215,467.60445682451257,215,468.2451253481895,215C468.8857938718663,215,469.5264623955432,215,470.16713091922,215C470.8077994428969,215,471.4484679665738,215,472.08913649025067,215C472.72980501392755,215,473.3704735376045,215,474.01114206128136,215C474.65181058495824,215,475.29247910863506,215,475.93314763231194,215C476.5738161559888,215,477.2144846796657,215,477.8551532033426,215C478.49582172701946,215,479.1364902506964,215,479.7771587743733,215C480.41782729805016,215,481.058495821727,215,481.69916434540386,215C482.33983286908074,215,482.9805013927577,215,483.62116991643455,215C484.26183844011143,215,484.9025069637883,215,485.5431754874652,215C486.18384401114207,215,486.8245125348189,215,487.4651810584958,215C488.10584958217265,215,488.7465181058496,215,489.38718662952647,215C490.02785515320335,215,490.6685236768802,215,491.3091922005571,215C491.949860724234,215,492.59052924791087,215,493.23119777158774,215C493.8718662952646,215,494.5125348189415,215,495.1532033426184,215C495.79387186629526,215,496.43454038997214,215,497.075208913649,215C497.7158774373259,215,498.35654596100284,215,498.9972144846797,215C499.6378830083566,215,500.2785515320334,215,500.9192200557103,215C501.5598885793872,215,502.20055710306406,215,502.84122562674094,215C503.4818941504178,215,504.12256267409475,215,504.76323119777163,215C505.4038997214485,215,506.04456824512533,215,506.6852367688022,215C507.3259052924791,215,507.966573816156,215,508.60724233983285,215C509.24791086350973,215,509.88857938718667,215,510.52924791086355,215C511.1699164345404,215,511.81058495821725,215,512.4512534818941,215C513.0919220055711,215,513.7325905292479,215,514.3732590529248,215C515.0139275766016,215,515.6545961002786,215,516.2952646239554,215C516.9359331476322,215,517.5766016713092,215,518.217270194986,215C518.8579387186629,215,519.4986072423399,215,520.1392757660168,215C520.7799442896936,215,521.4206128133706,215,522.0612813370474,215C522.7019498607243,215,523.3426183844011,215,523.9832869080781,215C524.6239554317549,215,525.2646239554318,215,525.9052924791087,215C526.5459610027855,215,527.1866295264624,215,527.8272980501392,215C528.4679665738162,215,529.108635097493,215,529.7493036211699,215C530.3899721448468,215,531.0306406685237,215,531.6713091922005,215C532.3119777158774,215,532.9526462395543,215,533.5933147632312,215C534.2339832869081,215,534.874651810585,215,535.5153203342619,215C536.1559888579387,215,536.7966573816157,215,537.4373259052925,215C538.0779944289694,215,538.7186629526462,215,539.3593314763232,215C540,215,540.6406685236769,215,541.2813370473538,215C541.9220055710306,215,542.5626740947075,215,543.2033426183843,215C543.8440111420613,215,544.4846796657382,215,545.1253481894151,215C545.766016713092,215,546.4066852367689,215,547.0473537604457,215C547.6880222841226,215,548.3286908077994,215,548.9693593314762,215C549.6100278551531,215,550.2506963788301,215,550.891364902507,215C551.5320334261838,215,552.1727019498608,215,552.8133704735376,215C553.4540389972145,215,554.0947075208913,215,554.7353760445683,215C555.3760445682452,215,556.016713091922,215,556.657381615599,215C557.2980501392758,215,557.9387186629526,215,558.5793871866294,215C559.2200557103064,215,559.8607242339832,215,560.5013927576601,215C561.1420612813371,215,561.7827298050139,215,562.4233983286908,215C563.0640668523677,215,563.7047353760446,215,564.3454038997214,215C564.9860724233984,215,565.6267409470752,215,566.2674094707521,215C566.9080779944289,215,567.5487465181059,215,568.1894150417827,215C568.8300835654596,215,569.4707520891365,215,570.1114206128134,215C570.7520891364902,215,571.3927576601671,215,572.033426183844,215C572.6740947075209,215,573.3147632311977,215,573.9554317548747,215C574.5961002785515,215,575.2367688022284,215,575.8774373259052,215C576.5181058495821,215,577.158774373259,215,577.7994428969358,215C578.4401114206128,215,579.0807799442896,215,579.7214484679665,215C580.3621169916435,215,581.0027855153203,215,581.6434540389972,215C582.284122562674,215,582.924791086351,215,583.5654596100278,215C584.2061281337047,215,584.8467966573816,215,585.4874651810585,215C586.1281337047353,215,586.7688022284123,215,587.4094707520891,215C588.050139275766,215,588.6908077994428,215,589.3314763231198,215C589.9721448467967,215,590.6128133704735,215,591.2534818941505,215C591.8941504178273,215,592.5348189415042,215,593.175487465181,215C593.816155988858,215,594.4568245125348,215,595.0974930362117,215C595.7381615598886,215,596.3788300835655,215,597.0194986072423,215C597.6601671309191,215,598.3008356545961,215,598.9415041782729,215C599.5821727019498,215,600.2228412256268,215,600.8635097493037,215C601.5041782729805,215,602.1448467966575,215,602.7855153203343,215C603.4261838440111,215,604.066852367688,215,604.7075208913649,215C605.3481894150418,215,605.9888579387186,215,606.6295264623956,215C607.2701949860724,215,607.9108635097493,215,608.5515320334262,215C609.1922005571031,215,609.8328690807799,215,610.4735376044569,215C611.1142061281338,215,611.7548746518106,215,612.3955431754875,215C613.0362116991644,215,613.6768802228413,215,614.3175487465181,215C614.958217270195,215,615.5988857938719,215,616.2395543175487,215C616.8802228412256,215,617.5208913649025,215,618.1615598885794,215C618.8022284122562,215,619.4428969359332,215,620.08356545961,215C620.7242339832869,215,621.3649025069637,215,622.0055710306407,215C622.6462395543176,215,623.2869080779944,215,623.9275766016714,215C624.5682451253482,215,625.2089136490251,215,625.849582172702,215C626.4902506963788,215,627.1309192200557,215,627.7715877437325,215C628.4122562674095,215,629.0529247910863,215,629.6935933147632,215C630.3342618384402,215,630.974930362117,215,631.6155988857939,215C632.2562674094708,215,632.8969359331476,215,633.5376044568244,215C634.1782729805013,215,634.8189415041782,215,635.4596100278551,215C636.100278551532,215,636.7409470752089,215,637.3816155988858,215C638.0222841225627,215,638.6629526462395,215,639.3036211699165,215C639.9442896935934,215,640.5849582172702,215,641.2256267409472,215C641.866295264624,215,642.5069637883008,215,643.1476323119776,215C643.7883008356546,215,644.4289693593314,215,645.0696378830083,215C645.7103064066853,215,646.3509749303621,215,646.991643454039,215C647.6323119777159,215,648.2729805013928,215,648.9136490250696,215C649.5543175487466,215,650.1949860724234,215,650.8356545961003,215C651.4763231197771,215,652.1169916434541,215,652.7576601671309,215C653.3983286908077,215,654.0389972144847,215,654.6796657381615,215C655.3203342618384,215,655.9610027855153,215,656.6016713091923,215C657.2423398328691,215,657.883008356546,215,658.5236768802229,215C659.1643454038997,215,659.8050139275766,215,660.4456824512534,215C661.0863509749304,215,661.7270194986072,215,662.3676880222841,215C663.008356545961,215,663.6490250696379,215,664.2896935933147,215C664.9303621169917,215,665.5710306406685,215,666.2116991643454,215C666.8523676880224,215,667.4930362116992,215,668.1337047353761,215C668.7743732590529,215,669.4150417827299,215,670.0557103064067,215C670.6963788300835,215,671.3370473537605,215,671.9777158774373,215C672.6183844011142,215,673.259052924791,215,673.899721448468,215C674.5403899721448,215,675.1810584958217,215,675.8217270194986,215C676.4623955431755,215,677.1030640668523,215,677.7437325905292,215C678.3844011142062,215,679.025069637883,215,679.66573816156,215C680.3064066852368,215,680.9470752089137,215,681.5877437325905,215C682.2284122562673,215,682.8690807799443,215,683.5097493036211,215C684.150417827298,215,684.7910863509749,215,685.4317548746518,215C686.0724233983287,215,686.7130919220056,215,687.3537604456825,215C687.9944289693593,215,688.6350974930363,215,689.2757660167131,215C689.9164345403899,215,690.5571030640668,215,691.1977715877437,215C691.8384401114206,215,692.4791086350974,215,693.1197771587744,215C693.7604456824513,215,694.4011142061281,215,695.041782729805,215C695.682451253482,215,696.3231197771588,215,696.9637883008357,215C697.6044568245126,215,698.2451253481895,215,698.8857938718663,215C699.5264623955431,215,700.1671309192201,215,700.8077994428969,215C701.4484679665738,215,702.0891364902507,215,702.7298050139276,215C703.3704735376044,215,704.0111420612814,215,704.6518105849582,215C705.2924791086351,215,705.933147632312,215,706.5738161559889,215C707.2144846796657,215,707.8551532033426,215,708.4958217270195,215C709.1364902506963,215,709.7771587743732,215,710.41782729805,215C711.058495821727,215,711.6991643454039,215,712.3398328690809,215C712.9805013927577,215,713.6211699164346,215,714.2618384401114,215C714.9025069637883,215,715.5431754874652,215,716.183844011142,215C716.824512534819,215,717.4651810584958,215,718.1058495821727,215C718.7465181058495,215,719.3871866295265,215,720.0278551532033,215C720.6685236768802,215,721.309192200557,215,721.949860724234,215C722.5905292479109,215,723.2311977715877,215,723.8718662952647,215C724.5125348189415,215,725.1532033426184,215,725.7938718662953,215C726.4345403899721,215,727.075208913649,215,727.7158774373258,215C728.3565459610028,215,728.9972144846796,215,729.6378830083565,215C730.2785515320334,215,730.9192200557103,215,731.5598885793871,215C732.200557103064,215,732.8412256267409,215,733.4818941504178,215C734.1225626740948,215,734.7632311977716,215,735.4038997214485,215C736.0445682451253,215,736.6852367688023,215,737.3259052924791,215C737.9665738161559,215,738.6072423398329,215,739.2479108635097,215C739.8885793871866,215,740.5292479108634,215,741.1699164345404,215C741.8105849582173,215,742.4512534818941,215,743.0919220055711,215C743.732590529248,215,744.3732590529248,215,745.0139275766018,215C745.6545961002786,215,746.2952646239555,215,746.9359331476323,215C747.5766016713092,215,748.2172701949861,215,748.8579387186629,215C749.4986072423399,215,750.1392757660167,215,750.7799442896936,215C751.4206128133706,215,752.0612813370474,215,752.7019498607243,215C753.3426183844011,215,753.9832869080781,215,754.6239554317549,215C755.2646239554318,215,755.9052924791087,215,756.5459610027856,215C757.1866295264624,215,757.8272980501393,215,758.4679665738162,215C759.108635097493,215,759.7493036211699,215,760.3899721448468,215C761.0306406685237,215,761.6713091922005,215,762.3119777158774,215C762.9526462395544,215,763.5933147632312,215,764.2339832869081,215C764.874651810585,215,765.5153203342618,215,766.1559888579386,215C766.7966573816155,215,767.4373259052925,215,768.0779944289694,215C768.7186629526462,215,769.3593314763232,215,770,215"
        fill="none" stroke-linecap="round" stroke-linejoin="bevel" stroke="#059669" class="line ethr-goerli"
        stroke-width="2"></path>
    <g class="x-primary" transform="translate(0,420)" fill="none" font-size="10" font-family="sans-serif"
        text-anchor="middle" style="font-size: 23px; color: #1e293b;">
        <path class="domain" stroke="currentColor" d="M80.5,10V0.5H770.5V10"></path>
        <g class="tick" opacity="1" transform="translate(95.68258666992188, 0)">
            <line stroke="currentColor" y2="10"></line><text fill="currentColor" y="25" dy="0.71em">26</text>
        </g>
        <g class="tick" opacity="1" transform="translate(149.62921142578125, 0)">
            <line stroke="currentColor" y2="10"></line><text fill="currentColor" y="25" dy="0.71em">2</text>
        </g>
        <g class="tick" opacity="1" transform="translate(203.8988800048828, 0)">
            <line stroke="currentColor" y2="10"></line><text fill="currentColor" y="25" dy="0.71em">9</text>
        </g>
        <g class="tick" opacity="1" transform="translate(258.1685485839844, 0)">
            <line stroke="currentColor" y2="10"></line><text fill="currentColor" y="25" dy="0.71em">16</text>
        </g>
        <g class="tick" opacity="1" transform="translate(312.4382019042969, 0)">
            <line stroke="currentColor" y2="10"></line><text fill="currentColor" y="25" dy="0.71em">23</text>
        </g>
        <g class="tick" opacity="1" transform="translate(366.7078552246094, 0)">
            <line stroke="currentColor" y2="10"></line><text fill="currentColor" y="25" dy="0.71em">30</text>
        </g>
        <g class="tick" opacity="1" transform="translate(420.9775390625, 0)">
            <line stroke="currentColor" y2="10"></line><text fill="currentColor" y="25" dy="0.71em">7</text>
        </g>
        <g class="tick" opacity="1" transform="translate(475.2471923828125, 0)">
            <line stroke="currentColor" y2="10"></line><text fill="currentColor" y="25" dy="0.71em">14</text>
        </g>
        <g class="tick" opacity="1" transform="translate(529.516845703125, 0)">
            <line stroke="currentColor" y2="10"></line><text fill="currentColor" y="25" dy="0.71em">21</text>
        </g>
        <g class="tick" opacity="1" transform="translate(583.7864990234375, 0)">
            <line stroke="currentColor" y2="10"></line><text fill="currentColor" y="25" dy="0.71em">28</text>
        </g>
        <g class="tick" opacity="1" transform="translate(638.05615234375, 0)">
            <line stroke="currentColor" y2="10"></line><text fill="currentColor" y="25" dy="0.71em">4</text>
        </g>
        <g class="tick" opacity="1" transform="translate(692.3258666992188, 0)">
            <line stroke="currentColor" y2="10"></line><text fill="currentColor" y="25" dy="0.71em">11</text>
        </g>
        <g class="tick" opacity="1" transform="translate(746.5955200195312, 0)">
            <line stroke="currentColor" y2="10"></line><text fill="currentColor" y="25" dy="0.71em">18</text>
        </g>
    </g>
    <g class="x-secondary" transform="translate(0,470)" fill="none" font-size="10" font-family="sans-serif"
        text-anchor="middle" style="font-size: 23px; color: #1e293b;">
        <g class="tick" opacity="1" transform="translate(95.68258666992188, 0)">
            <line stroke="currentColor" y2="20"></line><text fill="currentColor" y="35" dy="0.71em"
                transform="translate(-5, -33)" style="text-anchor: end;">March</text>
        </g>
        <g class="tick" opacity="1" transform="translate(366.7078552246094, 0)">
            <line stroke="currentColor" y2="20"></line><text fill="currentColor" y="35" dy="0.71em"
                transform="translate(-5, -33)" style="text-anchor: end;">April</text>
        </g>
        <g class="tick" opacity="1" transform="translate(583.7864990234375, 0)">
            <line stroke="currentColor" y2="20"></line><text fill="currentColor" y="35" dy="0.71em"
                transform="translate(-5, -33)" style="text-anchor: end;">May</text>
        </g>
    </g>
    <g class="y-axis" transform="translate(80,0)" fill="none" font-size="10" font-family="sans-serif" text-anchor="end"
        style="font-size: 23px; color: #1e293b;">
        <g class="tick" opacity="1" transform="translate(0, 215.5)">
            <line stroke="currentColor" x2="-6"></line><text fill="currentColor" x="-9" dy="0.32em">7008</text>
        </g>
    </g>
</svg>