<svg xmlns="http://www.w3.org/2000/svg" viewBox="0,0,800,500" preserveAspectRatio="xMidYMid meet">
    <line class="grid-line" x1="81" y1="420" x2="770" y2="420" fill="none" stroke="#64748b" stroke-opacity="0.1">
    </line>

    <text x="100" y="40" text-anchor="start" fill="#4338ca" font-family="monospace" font-size="20">
        ethr-mainnet
    </text>
    <path
        d="M80,376.72222222222223C80.64066852367688,376.72222222222223,81.28133704735376,376.72222222222223,81.92200557103064,376.72222222222223C82.56267409470752,376.72222222222223,83.2033426183844,376.72222222222223,83.84401114206128,376.72222222222223C84.48467966573816,376.72222222222223,85.12534818941504,376.72222222222223,85.76601671309191,376.72222222222223C86.4066852367688,376.72222222222223,87.04735376044569,374.4444444444444,87.68802228412257,374.4444444444444C88.32869080779945,374.4444444444444,88.96935933147633,374.4444444444444,89.6100278551532,374.4444444444444C90.25069637883009,374.4444444444444,90.89136490250698,374.4444444444444,91.53203342618386,374.4444444444444C92.17270194986074,374.4444444444444,92.8133704735376,369.8888888888889,93.45403899721448,369.8888888888889C94.09470752089136,369.8888888888889,94.73537604456824,369.8888888888889,95.37604456824512,369.8888888888889C96.016713091922,369.8888888888889,96.6573816155989,369.8888888888889,97.29805013927577,369.8888888888889C97.93871866295265,369.8888888888889,98.57938718662953,367.6111111111111,99.22005571030641,367.6111111111111C99.86072423398329,367.6111111111111,100.50139275766017,367.6111111111111,101.14206128133705,367.6111111111111C101.78272980501393,367.6111111111111,102.42339832869081,367.6111111111111,103.06406685236769,367.6111111111111C103.70473537604457,367.6111111111111,104.34540389972145,367.6111111111111,104.98607242339833,367.6111111111111C105.6267409470752,367.6111111111111,106.2674094707521,367.6111111111111,106.90807799442898,367.6111111111111C107.54874651810586,367.6111111111111,108.18941504178272,367.6111111111111,108.8300835654596,367.6111111111111C109.47075208913648,367.6111111111111,110.11142061281336,367.6111111111111,110.75208913649024,367.6111111111111C111.39275766016712,367.6111111111111,112.03342618384401,366.09259259259255,112.6740947075209,365.3333333333333C113.31476323119777,364.5740740740741,113.95543175487465,363.0555555555556,114.59610027855153,363.0555555555556C115.23676880222841,363.0555555555556,115.8774373259053,363.0555555555556,116.51810584958218,363.0555555555556C117.15877437325906,363.0555555555556,117.79944289693593,363.0555555555556,118.44011142061281,363.0555555555556C119.08077994428969,363.0555555555556,119.72144846796658,363.0555555555556,120.36211699164346,363.0555555555556C121.00278551532034,363.0555555555556,121.64345403899722,359.6388888888889,122.2841225626741,358.5C122.92479108635098,357.3611111111111,123.56545961002786,356.22222222222223,124.20612813370474,356.22222222222223C124.84679665738162,356.22222222222223,125.4874651810585,356.22222222222223,126.12813370473538,356.22222222222223C126.76880222841226,356.22222222222223,127.40947075208913,355.0833333333333,128.050139275766,353.9444444444444C128.6908077994429,352.8055555555555,129.33147632311977,349.38888888888886,129.97214484679665,349.38888888888886C130.61281337047353,349.38888888888886,131.2534818941504,349.38888888888886,131.8941504178273,349.38888888888886C132.53481894150417,349.38888888888886,133.17548746518105,349.38888888888886,133.81615598885793,349.38888888888886C134.4568245125348,349.38888888888886,135.0974930362117,347.1111111111111,135.73816155988857,347.1111111111111C136.37883008356545,347.1111111111111,137.01949860724233,347.1111111111111,137.6601671309192,347.1111111111111C138.30083565459609,347.1111111111111,138.941504178273,345.97222222222223,139.58217270194987,344.8333333333333C140.22284122562675,343.69444444444446,140.8635097493036,340.2777777777778,141.50417827298048,340.2777777777778C142.14484679665736,340.2777777777778,142.78551532033427,340.2777777777778,143.42618384401115,340.2777777777778C144.06685236768803,340.2777777777778,144.7075208913649,340.2777777777778,145.3481894150418,340.2777777777778C145.98885793871867,340.2777777777778,146.62952646239555,340.2777777777778,147.27019498607243,340.2777777777778C147.9108635097493,340.2777777777778,148.55153203342616,338.75925925925924,149.19220055710304,338C149.83286908077991,337.2407407407407,150.47353760445682,335.72222222222223,151.1142061281337,335.72222222222223C151.75487465181058,335.72222222222223,152.39554317548746,335.72222222222223,153.03621169916434,335.72222222222223C153.67688022284122,335.72222222222223,154.31754874651813,335.72222222222223,154.958217270195,335.72222222222223C155.5988857938719,335.72222222222223,156.23955431754877,335.72222222222223,156.88022284122565,335.72222222222223C157.52089136490252,335.72222222222223,158.16155988857938,335.72222222222223,158.80222841225626,335.72222222222223C159.44289693593313,335.72222222222223,160.08356545961004,333.4444444444444,160.72423398328692,333.4444444444444C161.3649025069638,333.4444444444444,162.00557103064068,333.4444444444444,162.64623955431756,333.4444444444444C163.28690807799444,333.4444444444444,163.92757660167132,331.1666666666667,164.5682451253482,331.1666666666667C165.20891364902508,331.1666666666667,165.84958217270196,331.1666666666667,166.49025069637884,331.1666666666667C167.13091922005572,331.1666666666667,167.7715877437326,328.8888888888889,168.41225626740948,328.8888888888889C169.05292479108635,328.8888888888889,169.69359331476323,328.8888888888889,170.3342618384401,328.8888888888889C170.974930362117,328.8888888888889,171.61559888579387,328.8888888888889,172.25626740947075,328.8888888888889C172.89693593314763,328.8888888888889,173.5376044568245,328.8888888888889,174.1782729805014,328.8888888888889C174.81894150417827,328.8888888888889,175.45961002785515,326.61111111111114,176.10027855153203,326.61111111111114C176.7409470752089,326.61111111111114,177.3816155988858,326.61111111111114,178.02228412256267,326.61111111111114C178.66295264623955,326.61111111111114,179.30362116991643,326.61111111111114,179.9442896935933,326.61111111111114C180.58495821727018,326.61111111111114,181.22562674094706,326.61111111111114,181.86629526462394,326.61111111111114C182.50696378830082,326.61111111111114,183.14763231197773,326.61111111111114,183.7883008356546,326.61111111111114C184.4289693593315,326.61111111111114,185.06963788300834,325.09259259259255,185.71030640668522,324.3333333333333C186.3509749303621,323.574074074074,186.991643454039,322.81481481481484,187.6323119777159,322.05555555555554C188.27298050139277,321.2962962962963,188.91364902506962,320.537037037037,189.5543175487465,319.77777777777777C190.19498607242338,319.0185185185185,190.83565459610028,317.5,191.47632311977716,317.5C192.11699164345404,317.5,192.7576601671309,317.5,193.39832869080777,317.5C194.03899721448465,317.5,194.67966573816156,317.5,195.32033426183844,317.5C195.96100278551532,317.5,196.60167130919217,317.5,197.24233983286905,317.5C197.88300835654596,317.5,198.52367688022284,317.5,199.16434540389974,317.5C199.80501392757662,317.5,200.44568245125348,317.5,201.08635097493035,317.5C201.72701949860723,317.5,202.36768802228414,317.5,203.00835654596102,317.5C203.6490250696379,317.5,204.28969359331475,317.5,204.93036211699163,317.5C205.5710306406685,317.5,206.2116991643454,317.5,206.85236768802227,317.5C207.49303621169915,317.5,208.13370473537606,312.94444444444446,208.77437325905294,312.94444444444446C209.41504178272982,312.94444444444446,210.0557103064067,312.94444444444446,210.69637883008357,312.94444444444446C211.33704735376045,312.94444444444446,211.97771587743733,312.94444444444446,212.6183844011142,312.94444444444446C213.2590529247911,312.94444444444446,213.89972144846797,312.94444444444446,214.54038997214485,312.94444444444446C215.18105849582173,312.94444444444446,215.8217270194986,311.8055555555556,216.4623955431755,310.6666666666667C217.10306406685237,309.52777777777777,217.74373259052925,307.25,218.38440111420613,306.1111111111111C219.025069637883,304.9722222222222,219.66573816155991,304.97222222222223,220.3064066852368,303.8333333333333C220.94707520891367,302.69444444444446,221.58774373259052,300.79629629629625,222.2284122562674,299.27777777777777C222.86908077994428,297.75925925925924,223.5097493036212,294.7222222222222,224.15041782729807,294.7222222222222C224.79108635097495,294.7222222222222,225.4317548746518,294.7222222222222,226.07242339832868,294.7222222222222C226.71309192200556,294.7222222222222,227.35376044568244,289.4074074074074,227.99442896935932,287.8888888888889C228.6350974930362,286.37037037037044,229.27576601671308,286.75,229.91643454038996,285.61111111111114C230.55710306406684,284.47222222222223,231.19777158774374,281.0555555555556,231.83844011142062,281.0555555555556C232.4791086350975,281.0555555555556,233.11977715877435,281.0555555555556,233.76044568245123,281.0555555555556C234.4011142061281,281.0555555555556,235.04178272980502,279.9166666666667,235.6824512534819,278.77777777777777C236.32311977715878,277.63888888888886,236.96378830083563,274.2222222222222,237.6044568245125,274.2222222222222C238.2451253481894,274.2222222222222,238.88579387186627,274.2222222222222,239.52646239554315,274.2222222222222C240.16713091922003,274.2222222222222,240.80779944289694,271.9444444444444,241.44846796657382,271.9444444444444C242.0891364902507,271.9444444444444,242.7298050139276,271.9444444444444,243.37047353760448,271.9444444444444C244.01114206128136,271.9444444444444,244.6518105849582,271.9444444444444,245.2924791086351,271.9444444444444C245.93314763231197,271.9444444444444,246.57381615598885,269.6666666666667,247.21448467966573,269.6666666666667C247.8551532033426,269.6666666666667,248.49582172701952,269.6666666666667,249.1364902506964,269.6666666666667C249.77715877437328,269.6666666666667,250.41782729805016,269.6666666666667,251.05849582172704,269.6666666666667C251.69916434540391,269.6666666666667,252.3398328690808,267.3888888888889,252.98050139275767,267.3888888888889C253.62116991643455,267.3888888888889,254.26183844011143,267.3888888888889,254.9025069637883,267.3888888888889C255.5431754874652,267.3888888888889,256.18384401114207,265.1111111111111,256.82451253481895,265.1111111111111C257.46518105849583,265.1111111111111,258.1058495821727,265.1111111111111,258.7465181058496,265.1111111111111C259.38718662952647,265.1111111111111,260.02785515320335,265.1111111111111,260.6685236768802,265.1111111111111C261.3091922005571,265.1111111111111,261.949860724234,265.1111111111111,262.59052924791087,265.1111111111111C263.23119777158774,265.1111111111111,263.8718662952646,265.1111111111111,264.5125348189415,265.1111111111111C265.1532033426184,265.1111111111111,265.79387186629526,262.8333333333333,266.43454038997214,262.8333333333333C267.075208913649,262.8333333333333,267.7158774373259,262.8333333333333,268.3565459610028,262.8333333333333C268.99721448467966,262.8333333333333,269.63788300835654,262.8333333333333,270.2785515320334,262.8333333333333C270.9192200557103,262.8333333333333,271.5598885793872,259.4166666666667,272.20055710306406,258.2777777777778C272.84122562674094,257.1388888888889,273.4818941504179,256,274.12256267409475,256C274.76323119777163,256,275.40389972144845,256,276.04456824512533,256C276.6852367688022,256,277.3259052924791,254.48148148148147,277.966573816156,253.7222222222222C278.60724233983285,252.96296296296293,279.24791086350973,251.44444444444446,279.8885793871866,251.44444444444446C280.5292479108635,251.44444444444446,281.1699164345404,251.44444444444446,281.8105849582173,251.44444444444446C282.4512534818942,251.44444444444446,283.091922005571,251.44444444444446,283.7325905292479,251.44444444444446C284.37325905292477,251.44444444444446,285.0139275766017,251.44444444444446,285.6545961002786,251.44444444444446C286.29526462395546,251.44444444444446,286.93593314763234,248.02777777777777,287.5766016713092,246.88888888888889C288.2172701949861,245.75,288.857938718663,244.6111111111111,289.49860724233986,244.6111111111111C290.13927576601674,244.6111111111111,290.77994428969356,244.6111111111111,291.42061281337044,244.6111111111111C292.0612813370473,244.6111111111111,292.70194986072426,244.6111111111111,293.34261838440113,244.6111111111111C293.983286908078,244.6111111111111,294.6239554317549,244.6111111111111,295.2646239554318,244.6111111111111C295.90529247910865,244.6111111111111,296.54596100278553,244.6111111111111,297.1866295264624,244.6111111111111C297.8272980501393,244.6111111111111,298.4679665738161,244.6111111111111,299.108635097493,244.6111111111111C299.7493036211699,244.6111111111111,300.3899721448468,240.05555555555554,301.0306406685237,240.05555555555554C301.67130919220057,240.05555555555554,302.31197771587745,240.05555555555554,302.9526462395543,240.05555555555554C303.5933147632312,240.05555555555554,304.2339832869081,240.05555555555554,304.87465181058496,240.05555555555554C305.51532033426184,240.05555555555554,306.1559888579387,240.05555555555554,306.7966573816156,240.05555555555554C307.4373259052925,240.05555555555554,308.07799442896936,240.05555555555554,308.71866295264624,240.05555555555554C309.3593314763231,240.05555555555554,310,240.05555555555554,310.6406685236769,240.05555555555554C311.28133704735376,240.05555555555554,311.92200557103064,240.05555555555554,312.5626740947075,240.05555555555554C313.2033426183844,240.05555555555554,313.8440111420612,240.05555555555554,314.4846796657381,240.05555555555554C315.125348189415,240.05555555555554,315.7660167130919,240.05555555555554,316.4066852367688,240.05555555555554C317.0473537604457,240.05555555555554,317.6880222841226,240.05555555555554,318.3286908077995,240.05555555555554C318.96935933147637,240.05555555555554,319.6100278551532,240.05555555555554,320.25069637883007,240.05555555555554C320.89136490250695,240.05555555555554,321.53203342618383,240.05555555555554,322.1727019498607,240.05555555555554C322.8133704735376,240.05555555555554,323.45403899721447,240.05555555555554,324.09470752089135,240.05555555555554C324.7353760445682,240.05555555555554,325.37604456824516,237.7777777777778,326.01671309192204,237.7777777777778C326.6573816155989,237.7777777777778,327.29805013927574,237.7777777777778,327.9387186629526,237.7777777777778C328.5793871866295,237.7777777777778,329.2200557103064,237.7777777777778,329.86072423398326,237.7777777777778C330.50139275766014,237.7777777777778,331.142061281337,230.18518518518516,331.7827298050139,228.66666666666666C332.4233983286908,227.14814814814815,333.06406685236766,227.52777777777777,333.70473537604454,226.3888888888889C334.3454038997214,225.25000000000003,334.98607242339835,221.83333333333331,335.62674094707523,221.83333333333331C336.2674094707521,221.83333333333331,336.908077994429,221.83333333333331,337.5487465181059,221.83333333333331C338.18941504178275,221.83333333333331,338.8300835654596,221.83333333333331,339.47075208913645,221.83333333333331C340.11142061281333,221.83333333333331,340.75208913649027,221.83333333333331,341.39275766016715,221.83333333333331C342.033426183844,221.83333333333331,342.6740947075209,218.41666666666666,343.3147632311978,217.27777777777777C343.95543175487467,216.13888888888889,344.59610027855155,215.75925925925927,345.2367688022284,215C345.8774373259053,214.24074074074073,346.5181058495822,212.72222222222223,347.15877437325906,212.72222222222223C347.79944289693594,212.72222222222223,348.4401114206128,212.72222222222223,349.0807799442897,212.72222222222223C349.7214484679666,212.72222222222223,350.36211699164346,212.72222222222223,351.00278551532034,212.72222222222223C351.6434540389972,212.72222222222223,352.2841225626741,201.33333333333334,352.924791086351,201.33333333333334C353.56545961002786,201.33333333333334,354.20612813370474,201.33333333333334,354.8467966573816,201.33333333333334C355.4874651810585,201.33333333333334,356.1281337047354,201.33333333333334,356.76880222841226,201.33333333333334C357.40947075208913,201.33333333333334,358.050139275766,199.05555555555557,358.6908077994429,199.05555555555557C359.3314763231198,199.05555555555557,359.9721448467967,199.05555555555557,360.6128133704736,199.05555555555557C361.2534818941504,199.05555555555557,361.8941504178273,197.53703703703704,362.5348189415041,196.7777777777778C363.175487465181,196.0185185185185,363.81615598885793,195.25925925925924,364.4568245125348,194.49999999999997C365.0974930362117,193.7407407407407,365.73816155988857,192.2222222222222,366.37883008356545,192.2222222222222C367.0194986072423,192.2222222222222,367.66016713091926,192.2222222222222,368.30083565459614,192.2222222222222C368.941504178273,192.2222222222222,369.58217270194984,189.94444444444446,370.2228412256267,189.94444444444446C370.8635097493036,189.94444444444446,371.5041782729805,189.94444444444446,372.14484679665736,189.94444444444446C372.78551532033424,189.94444444444446,373.4261838440112,189.94444444444446,374.06685236768806,189.94444444444446C374.70752089136494,189.94444444444446,375.34818941504176,189.94444444444446,375.98885793871864,189.94444444444446C376.6295264623955,189.94444444444446,377.2701949860724,189.94444444444446,377.9108635097493,189.94444444444446C378.55153203342616,189.94444444444446,379.1922005571031,188.42592592592592,379.83286908078,187.66666666666666C380.47353760445685,186.90740740740742,381.1142061281337,185.3888888888889,381.75487465181055,185.3888888888889C382.39554317548743,185.3888888888889,383.03621169916437,185.3888888888889,383.67688022284125,185.3888888888889C384.3175487465181,185.3888888888889,384.95821727019495,185.3888888888889,385.59888579387183,185.3888888888889C386.2395543175487,185.3888888888889,386.88022284122565,185.3888888888889,387.5208913649025,185.3888888888889C388.1615598885794,185.3888888888889,388.8022284122563,185.3888888888889,389.44289693593316,185.3888888888889C390.08356545961004,185.3888888888889,390.7242339832869,185.3888888888889,391.3649025069638,185.3888888888889C392.0055710306407,185.3888888888889,392.64623955431756,185.3888888888889,393.28690807799444,185.3888888888889C393.9275766016713,185.3888888888889,394.56824512534814,183.87037037037035,395.208913649025,183.11111111111111C395.8495821727019,182.35185185185182,396.49025069637884,180.83333333333331,397.1309192200557,180.83333333333331C397.7715877437326,180.83333333333331,398.4122562674095,180.83333333333331,399.05292479108635,180.83333333333331C399.69359331476323,180.83333333333331,400.3342618384401,180.83333333333331,400.974930362117,180.83333333333331C401.6155988857939,180.83333333333331,402.25626740947075,180.83333333333331,402.89693593314763,180.83333333333331C403.5376044568245,180.83333333333331,404.1782729805014,180.83333333333331,404.81894150417827,180.83333333333331C405.45961002785515,180.83333333333331,406.1002785515321,180.83333333333331,406.74094707520896,180.83333333333331C407.38161559888584,180.83333333333331,408.02228412256267,180.83333333333331,408.66295264623955,180.83333333333331C409.3036211699164,180.83333333333331,409.9442896935933,180.83333333333331,410.5849582172702,180.83333333333331C411.22562674094706,180.83333333333331,411.86629526462394,180.83333333333331,412.5069637883008,180.83333333333331C413.1476323119777,180.83333333333331,413.7883008356546,180.83333333333331,414.42896935933146,180.83333333333331C415.06963788300834,180.83333333333331,415.7103064066853,180.83333333333331,416.35097493036216,180.83333333333331C416.99164345403904,180.83333333333331,417.6323119777159,179.3148148148148,418.2729805013928,178.55555555555554C418.9136490250697,177.7962962962963,419.5543175487465,177.79629629629622,420.1949860724234,176.2777777777778C420.83565459610026,174.7592592592593,421.4763231197772,169.44444444444443,422.11699164345407,169.44444444444443C422.75766016713095,169.44444444444443,423.39832869080783,169.44444444444443,424.0389972144847,169.44444444444443C424.6796657381616,169.44444444444443,425.3203342618384,162.9907407407407,425.9610027855153,160.33333333333334C426.60167130919217,157.67592592592584,427.2423398328691,155.7777777777778,427.883008356546,153.5C428.52367688022287,151.22222222222226,429.16434540389974,148.94444444444449,429.8050139275766,146.66666666666669C430.4456824512535,144.38888888888894,431.0863509749303,141.3518518518518,431.7270194986072,139.83333333333334C432.3676880222841,138.3148148148148,433.008356545961,137.55555555555554,433.6490250696379,137.55555555555554C434.2896935933148,137.55555555555554,434.93036211699166,137.55555555555554,435.57103064066854,137.55555555555554C436.2116991643454,137.55555555555554,436.8523676880223,136.03703703703707,437.4930362116992,135.2777777777778C438.13370473537606,134.51851851851853,438.77437325905294,133,439.4150417827298,133C440.0557103064067,133,440.6963788300836,133,441.33704735376045,133C441.97771587743733,133,442.61838440111427,133,443.25905292479115,133C443.89972144846803,133,444.54038997214485,132.2407407407407,445.18105849582173,130.7222222222222C445.8217270194986,129.2037037037037,446.46239554317543,123.8888888888889,447.1030640668523,123.8888888888889C447.74373259052925,123.8888888888889,448.3844011142061,123.8888888888889,449.02506963788306,123.8888888888889C449.66573816155994,123.8888888888889,450.30640668523677,121.61111111111111,450.94707520891365,121.61111111111111C451.5877437325905,121.61111111111111,452.22841225626735,121.61111111111111,452.8690807799442,121.61111111111111C453.50974930362116,121.61111111111111,454.15041782729804,121.61111111111111,454.791086350975,121.61111111111111C455.43175487465186,121.61111111111111,456.0724233983287,117.05555555555554,456.71309192200556,117.05555555555554C457.35376044568244,117.05555555555554,457.9944289693594,117.05555555555554,458.63509749303626,117.05555555555554C459.27576601671313,117.05555555555554,459.91643454038996,116.29629629629629,460.55710306406684,114.77777777777777C461.1977715877437,113.25925925925925,461.83844011142054,107.94444444444446,462.4791086350974,107.94444444444446C463.11977715877435,107.94444444444446,463.76044568245123,107.94444444444446,464.40111420612817,107.94444444444446C465.04178272980505,107.94444444444446,465.6824512534819,107.94444444444446,466.32311977715875,107.94444444444446C466.9637883008357,107.94444444444446,467.60445682451257,107.94444444444446,468.2451253481895,107.94444444444446C468.8857938718663,107.94444444444446,469.5264623955432,100.35185185185175,470.16713091922,98.83333333333333C470.8077994428969,97.31481481481481,471.4484679665738,98.07407407407408,472.08913649025067,96.55555555555556C472.72980501392755,95.037037037037,473.3704735376045,64.66666666666666,474.01114206128136,64.66666666666666C474.65181058495824,64.66666666666666,475.29247910863506,64.66666666666666,475.93314763231194,64.66666666666666C476.5738161559888,64.66666666666666,477.2144846796657,64.66666666666666,477.8551532033426,64.66666666666666C478.49582172701946,64.66666666666666,479.1364902506964,64.66666666666666,479.7771587743733,64.66666666666666C480.41782729805016,64.66666666666666,481.058495821727,64.66666666666666,481.69916434540386,64.66666666666666C482.33983286908074,64.66666666666666,482.9805013927577,64.66666666666666,483.62116991643455,64.66666666666666C484.26183844011143,64.66666666666666,484.9025069637883,62.388888888888886,485.5431754874652,62.388888888888886C486.18384401114207,62.388888888888886,486.8245125348189,62.388888888888886,487.4651810584958,62.388888888888886C488.10584958217265,62.388888888888886,488.7465181058496,62.388888888888886,489.38718662952647,62.388888888888886C490.02785515320335,62.388888888888886,490.6685236768802,62.388888888888886,491.3091922005571,62.388888888888886C491.949860724234,62.388888888888886,492.59052924791087,62.388888888888886,493.23119777158774,62.388888888888886C493.8718662952646,62.388888888888886,494.5125348189415,62.388888888888886,495.1532033426184,62.388888888888886C495.79387186629526,62.388888888888886,496.43454038997214,62.388888888888886,497.075208913649,62.388888888888886C497.7158774373259,62.388888888888886,498.35654596100284,62.388888888888886,498.9972144846797,62.388888888888886C499.6378830083566,62.388888888888886,500.2785515320334,60.87037037037036,500.9192200557103,60.111111111111114C501.5598885793872,59.35185185185185,502.20055710306406,58.59259259259259,502.84122562674094,57.83333333333334C503.4818941504178,57.074074074074076,504.12256267409475,56.31481481481486,504.76323119777163,55.55555555555557C505.4038997214485,54.79629629629633,506.04456824512533,53.27777777777776,506.6852367688022,53.27777777777776C507.3259052924791,53.27777777777776,507.966573816156,53.27777777777776,508.60724233983285,53.27777777777776C509.24791086350973,53.27777777777776,509.88857938718667,48.72222222222222,510.52924791086355,48.72222222222222C511.1699164345404,48.72222222222222,511.81058495821725,48.72222222222222,512.4512534818941,48.72222222222222C513.0919220055711,48.72222222222222,513.7325905292479,48.72222222222222,514.3732590529248,48.72222222222222C515.0139275766016,48.72222222222222,515.6545961002786,48.72222222222222,516.2952646239554,48.72222222222222C516.9359331476322,48.72222222222222,517.5766016713092,48.72222222222222,518.217270194986,48.72222222222222C518.8579387186629,48.72222222222222,519.4986072423399,47.96296296296297,520.1392757660168,46.44444444444446C520.7799442896936,44.92592592592613,521.4206128133706,39.6111111111111,522.0612813370474,39.6111111111111C522.7019498607243,39.6111111111111,523.3426183844011,39.6111111111111,523.9832869080781,39.6111111111111C524.6239554317549,39.6111111111111,525.2646239554318,39.6111111111111,525.9052924791087,39.6111111111111C526.5459610027855,39.6111111111111,527.1866295264624,39.6111111111111,527.8272980501392,39.6111111111111C528.4679665738162,39.6111111111111,529.108635097493,39.6111111111111,529.7493036211699,39.6111111111111C530.3899721448468,39.6111111111111,531.0306406685237,39.6111111111111,531.6713091922005,39.6111111111111C532.3119777158774,39.6111111111111,532.9526462395543,39.6111111111111,533.5933147632312,39.6111111111111C534.2339832869081,39.6111111111111,534.874651810585,39.6111111111111,535.5153203342619,39.6111111111111C536.1559888579387,39.6111111111111,536.7966573816157,39.6111111111111,537.4373259052925,39.6111111111111C538.0779944289694,39.6111111111111,538.7186629526462,39.6111111111111,539.3593314763232,39.6111111111111C540,39.6111111111111,540.6406685236769,38.09259259259259,541.2813370473538,37.33333333333333C541.9220055710306,36.57407407407407,542.5626740947075,35.05555555555556,543.2033426183843,35.05555555555556C543.8440111420613,35.05555555555556,544.4846796657382,35.05555555555556,545.1253481894151,35.05555555555556C545.766016713092,35.05555555555556,546.4066852367689,35.05555555555556,547.0473537604457,35.05555555555556C547.6880222841226,35.05555555555556,548.3286908077994,35.05555555555556,548.9693593314762,35.05555555555556C549.6100278551531,35.05555555555556,550.2506963788301,35.05555555555556,550.891364902507,35.05555555555556C551.5320334261838,35.05555555555556,552.1727019498608,35.05555555555556,552.8133704735376,35.05555555555556C553.4540389972145,35.05555555555556,554.0947075208913,35.05555555555556,554.7353760445683,35.05555555555556C555.3760445682452,35.05555555555556,556.016713091922,35.05555555555556,556.657381615599,35.05555555555556C557.2980501392758,35.05555555555556,557.9387186629526,32.777777777777786,558.5793871866294,32.777777777777786C559.2200557103064,32.777777777777786,559.8607242339832,32.777777777777786,560.5013927576601,32.777777777777786C561.1420612813371,32.777777777777786,561.7827298050139,32.777777777777786,562.4233983286908,32.777777777777786C563.0640668523677,32.777777777777786,563.7047353760446,32.777777777777786,564.3454038997214,32.777777777777786C564.9860724233984,32.777777777777786,565.6267409470752,30.500000000000018,566.2674094707521,30.500000000000018C566.9080779944289,30.500000000000018,567.5487465181059,30.500000000000018,568.1894150417827,30.500000000000018C568.8300835654596,30.500000000000018,569.4707520891365,30.500000000000018,570.1114206128134,30.500000000000018C570.7520891364902,30.500000000000018,571.3927576601671,30.500000000000018,572.033426183844,30.500000000000018C572.6740947075209,30.500000000000018,573.3147632311977,30.500000000000018,573.9554317548747,30.500000000000018C574.5961002785515,30.500000000000018,575.2367688022284,30.500000000000018,575.8774373259052,30.500000000000018C576.5181058495821,30.500000000000018,577.158774373259,30.500000000000018,577.7994428969358,30.500000000000018C578.4401114206128,30.500000000000018,579.0807799442896,30.500000000000018,579.7214484679665,30.500000000000018C580.3621169916435,30.500000000000018,581.0027855153203,30.500000000000018,581.6434540389972,30.500000000000018C582.284122562674,30.500000000000018,582.924791086351,30.500000000000018,583.5654596100278,30.500000000000018C584.2061281337047,30.500000000000018,584.8467966573816,30.500000000000018,585.4874651810585,30.500000000000018C586.1281337047353,30.500000000000018,586.7688022284123,30.500000000000018,587.4094707520891,30.500000000000018C588.050139275766,30.500000000000018,588.6908077994428,28.2222222222222,589.3314763231198,28.2222222222222C589.9721448467967,28.2222222222222,590.6128133704735,28.2222222222222,591.2534818941505,28.2222222222222C591.8941504178273,28.2222222222222,592.5348189415042,28.2222222222222,593.175487465181,28.2222222222222C593.816155988858,28.2222222222222,594.4568245125348,28.2222222222222,595.0974930362117,28.2222222222222C595.7381615598886,28.2222222222222,596.3788300835655,28.2222222222222,597.0194986072423,28.2222222222222C597.6601671309191,28.2222222222222,598.3008356545961,28.2222222222222,598.9415041782729,28.2222222222222C599.5821727019498,28.2222222222222,600.2228412256268,28.2222222222222,600.8635097493037,28.2222222222222C601.5041782729805,28.2222222222222,602.1448467966575,28.2222222222222,602.7855153203343,28.2222222222222C603.4261838440111,28.2222222222222,604.066852367688,28.2222222222222,604.7075208913649,28.2222222222222C605.3481894150418,28.2222222222222,605.9888579387186,28.2222222222222,606.6295264623956,28.2222222222222C607.2701949860724,28.2222222222222,607.9108635097493,28.2222222222222,608.5515320334262,28.2222222222222C609.1922005571031,28.2222222222222,609.8328690807799,25.944444444444432,610.4735376044569,25.944444444444432C611.1142061281338,25.944444444444432,611.7548746518106,25.944444444444432,612.3955431754875,25.944444444444432C613.0362116991644,25.944444444444432,613.6768802228413,25.944444444444432,614.3175487465181,25.944444444444432C614.958217270195,25.944444444444432,615.5988857938719,25.944444444444432,616.2395543175487,25.944444444444432C616.8802228412256,25.944444444444432,617.5208913649025,25.944444444444432,618.1615598885794,25.944444444444432C618.8022284122562,25.944444444444432,619.4428969359332,25.944444444444432,620.08356545961,25.944444444444432C620.7242339832869,25.944444444444432,621.3649025069637,25.944444444444432,622.0055710306407,25.944444444444432C622.6462395543176,25.944444444444432,623.2869080779944,25.944444444444432,623.9275766016714,25.944444444444432C624.5682451253482,25.944444444444432,625.2089136490251,25.944444444444432,625.849582172702,25.944444444444432C626.4902506963788,25.944444444444432,627.1309192200557,25.944444444444432,627.7715877437325,25.944444444444432C628.4122562674095,25.944444444444432,629.0529247910863,25.944444444444432,629.6935933147632,25.944444444444432C630.3342618384402,25.944444444444432,630.974930362117,25.944444444444432,631.6155988857939,25.944444444444432C632.2562674094708,25.944444444444432,632.8969359331476,25.944444444444432,633.5376044568244,25.944444444444432C634.1782729805013,25.944444444444432,634.8189415041782,23.666666666666664,635.4596100278551,23.666666666666664C636.100278551532,23.666666666666664,636.7409470752089,23.666666666666664,637.3816155988858,23.666666666666664C638.0222841225627,23.666666666666664,638.6629526462395,23.666666666666664,639.3036211699165,23.666666666666664C639.9442896935934,23.666666666666664,640.5849582172702,23.666666666666664,641.2256267409472,23.666666666666664C641.866295264624,23.666666666666664,642.5069637883008,23.666666666666664,643.1476323119776,23.666666666666664C643.7883008356546,23.666666666666664,644.4289693593314,23.666666666666664,645.0696378830083,23.666666666666664C645.7103064066853,23.666666666666664,646.3509749303621,23.666666666666664,646.991643454039,23.666666666666664C647.6323119777159,23.666666666666664,648.2729805013928,23.666666666666664,648.9136490250696,23.666666666666664C649.5543175487466,23.666666666666664,650.1949860724234,23.666666666666664,650.8356545961003,23.666666666666664C651.4763231197771,23.666666666666664,652.1169916434541,23.666666666666664,652.7576601671309,23.666666666666664C653.3983286908077,23.666666666666664,654.0389972144847,23.666666666666664,654.6796657381615,23.666666666666664C655.3203342618384,23.666666666666664,655.9610027855153,23.666666666666664,656.6016713091923,23.666666666666664C657.2423398328691,23.666666666666664,657.883008356546,23.666666666666664,658.5236768802229,23.666666666666664C659.1643454038997,23.666666666666664,659.8050139275766,23.666666666666664,660.4456824512534,23.666666666666664C661.0863509749304,23.666666666666664,661.7270194986072,23.666666666666664,662.3676880222841,23.666666666666664C663.008356545961,23.666666666666664,663.6490250696379,23.666666666666664,664.2896935933147,23.666666666666664C664.9303621169917,23.666666666666664,665.5710306406685,23.666666666666664,666.2116991643454,23.666666666666664C666.8523676880224,23.666666666666664,667.4930362116992,23.666666666666664,668.1337047353761,23.666666666666664C668.7743732590529,23.666666666666664,669.4150417827299,23.666666666666664,670.0557103064067,23.666666666666664C670.6963788300835,23.666666666666664,671.3370473537605,23.666666666666664,671.9777158774373,23.666666666666664C672.6183844011142,23.666666666666664,673.259052924791,23.666666666666664,673.899721448468,23.666666666666664C674.5403899721448,23.666666666666664,675.1810584958217,23.666666666666664,675.8217270194986,23.666666666666664C676.4623955431755,23.666666666666664,677.1030640668523,22.14814814814815,677.7437325905292,21.388888888888893C678.3844011142062,20.629629629629637,679.025069637883,19.11111111111112,679.66573816156,19.11111111111112C680.3064066852368,19.11111111111112,680.9470752089137,19.11111111111112,681.5877437325905,19.11111111111112C682.2284122562673,19.11111111111112,682.8690807799443,19.11111111111112,683.5097493036211,19.11111111111112C684.150417827298,19.11111111111112,684.7910863509749,17.592592592592617,685.4317548746518,16.833333333333353C686.0724233983287,16.07407407407409,686.7130919220056,14.55555555555554,687.3537604456825,14.55555555555554C687.9944289693593,14.55555555555554,688.6350974930363,14.55555555555554,689.2757660167131,14.55555555555554C689.9164345403899,14.55555555555554,690.5571030640668,14.55555555555554,691.1977715877437,14.55555555555554C691.8384401114206,14.55555555555554,692.4791086350974,14.55555555555554,693.1197771587744,14.55555555555554C693.7604456824513,14.55555555555554,694.4011142061281,14.55555555555554,695.041782729805,14.55555555555554C695.682451253482,14.55555555555554,696.3231197771588,14.55555555555554,696.9637883008357,14.55555555555554C697.6044568245126,14.55555555555554,698.2451253481895,14.55555555555554,698.8857938718663,14.55555555555554C699.5264623955431,14.55555555555554,700.1671309192201,14.55555555555554,700.8077994428969,14.55555555555554C701.4484679665738,14.55555555555554,702.0891364902507,14.55555555555554,702.7298050139276,14.55555555555554C703.3704735376044,14.55555555555554,704.0111420612814,14.55555555555554,704.6518105849582,14.55555555555554C705.2924791086351,14.55555555555554,705.933147632312,14.55555555555554,706.5738161559889,14.55555555555554C707.2144846796657,14.55555555555554,707.8551532033426,14.55555555555554,708.4958217270195,14.55555555555554C709.1364902506963,14.55555555555554,709.7771587743732,14.55555555555554,710.41782729805,14.55555555555554C711.058495821727,14.55555555555554,711.6991643454039,14.55555555555554,712.3398328690809,14.55555555555554C712.9805013927577,14.55555555555554,713.6211699164346,14.55555555555554,714.2618384401114,14.55555555555554C714.9025069637883,14.55555555555554,715.5431754874652,14.55555555555554,716.183844011142,14.55555555555554C716.824512534819,14.55555555555554,717.4651810584958,14.55555555555554,718.1058495821727,14.55555555555554C718.7465181058495,14.55555555555554,719.3871866295265,14.55555555555554,720.0278551532033,14.55555555555554C720.6685236768802,14.55555555555554,721.309192200557,14.55555555555554,721.949860724234,14.55555555555554C722.5905292479109,14.55555555555554,723.2311977715877,14.55555555555554,723.8718662952647,14.55555555555554C724.5125348189415,14.55555555555554,725.1532033426184,14.55555555555554,725.7938718662953,14.55555555555554C726.4345403899721,14.55555555555554,727.075208913649,14.55555555555554,727.7158774373258,14.55555555555554C728.3565459610028,14.55555555555554,728.9972144846796,14.55555555555554,729.6378830083565,14.55555555555554C730.2785515320334,14.55555555555554,730.9192200557103,14.55555555555554,731.5598885793871,14.55555555555554C732.200557103064,14.55555555555554,732.8412256267409,14.55555555555554,733.4818941504178,14.55555555555554C734.1225626740948,14.55555555555554,734.7632311977716,14.55555555555554,735.4038997214485,14.55555555555554C736.0445682451253,14.55555555555554,736.6852367688023,14.55555555555554,737.3259052924791,14.55555555555554C737.9665738161559,14.55555555555554,738.6072423398329,14.55555555555554,739.2479108635097,14.55555555555554C739.8885793871866,14.55555555555554,740.5292479108634,14.55555555555554,741.1699164345404,14.55555555555554C741.8105849582173,14.55555555555554,742.4512534818941,14.55555555555554,743.0919220055711,14.55555555555554C743.732590529248,14.55555555555554,744.3732590529248,14.55555555555554,745.0139275766018,14.55555555555554C745.6545961002786,14.55555555555554,746.2952646239555,14.55555555555554,746.9359331476323,14.55555555555554C747.5766016713092,14.55555555555554,748.2172701949861,14.55555555555554,748.8579387186629,14.55555555555554C749.4986072423399,14.55555555555554,750.1392757660167,14.55555555555554,750.7799442896936,14.55555555555554C751.4206128133706,14.55555555555554,752.0612813370474,14.55555555555554,752.7019498607243,14.55555555555554C753.3426183844011,14.55555555555554,753.9832869080781,14.55555555555554,754.6239554317549,14.55555555555554C755.2646239554318,14.55555555555554,755.9052924791087,14.55555555555554,756.5459610027856,14.55555555555554C757.1866295264624,14.55555555555554,757.8272980501393,14.55555555555554,758.4679665738162,14.55555555555554C759.108635097493,14.55555555555554,759.7493036211699,14.55555555555554,760.3899721448468,14.55555555555554C761.0306406685237,14.55555555555554,761.6713091922005,14.55555555555554,762.3119777158774,14.55555555555554C762.9526462395544,14.55555555555554,763.5933147632312,14.55555555555554,764.2339832869081,14.55555555555554C764.874651810585,14.55555555555554,765.5153203342618,14.55555555555554,766.1559888579386,14.55555555555554C766.7966573816155,14.55555555555554,767.4373259052925,14.55555555555554,768.0779944289694,14.55555555555554C768.7186629526462,14.55555555555554,769.3593314763232,14.55555555555554,770,14.55555555555554"
        fill="none" stroke-linecap="round" stroke-linejoin="bevel" stroke="#4338ca" class="line ethr-goerli"
        stroke-width="2"></path>
    <g class="x-primary" transform="translate(0,420)" fill="none" font-size="10" font-family="sans-serif"
        text-anchor="middle" style="font-size: 23px; color: #1e293b">
        <path class="domain" stroke="currentColor" d="M80.5,10V0.5H770.5V10"></path>
        <g class="tick" opacity="1" transform="translate(88.0278549194336, 0)">
            <line stroke="currentColor" y2="10"></line><text fill="currentColor" y="25" dy="0.71em">Jul</text>
        </g>
        <g class="tick" opacity="1" transform="translate(147.6100311279297, 0)">
            <line stroke="currentColor" y2="10"></line><text fill="currentColor" y="25" dy="0.71em">Aug</text>
        </g>
        <g class="tick" opacity="1" transform="translate(207.19219970703125, 0)">
            <line stroke="currentColor" y2="10"></line><text fill="currentColor" y="25" dy="0.71em">Sep</text>
        </g>
        <g class="tick" opacity="1" transform="translate(264.85235595703125, 0)">
            <line stroke="currentColor" y2="10"></line><text fill="currentColor" y="25" dy="0.71em">Oct</text>
        </g>
        <g class="tick" opacity="1" transform="translate(324.5146179199219, 0)">
            <line stroke="currentColor" y2="10"></line><text fill="currentColor" y="25" dy="0.71em">Nov</text>
        </g>
        <g class="tick" opacity="1" transform="translate(382.1748046875, 0)">
            <line stroke="currentColor" y2="10"></line><text fill="currentColor" y="25" dy="0.71em">Dec</text>
        </g>
        <g class="tick" opacity="1" transform="translate(441.7569580078125, 0)">
            <line stroke="currentColor" y2="10"></line><text fill="currentColor" y="25" dy="0.71em">Jan</text>
        </g>
        <g class="tick" opacity="1" transform="translate(501.3391418457031, 0)">
            <line stroke="currentColor" y2="10"></line><text fill="currentColor" y="25" dy="0.71em">Feb</text>
        </g>
        <g class="tick" opacity="1" transform="translate(555.1552734375, 0)">
            <line stroke="currentColor" y2="10"></line><text fill="currentColor" y="25" dy="0.71em">Mar</text>
        </g>
        <g class="tick" opacity="1" transform="translate(614.6574096679688, 0)">
            <line stroke="currentColor" y2="10"></line><text fill="currentColor" y="25" dy="0.71em">Apr</text>
        </g>
        <g class="tick" opacity="1" transform="translate(672.3175659179688, 0)">
            <line stroke="currentColor" y2="10"></line><text fill="currentColor" y="25" dy="0.71em">May</text>
        </g>
        <g class="tick" opacity="1" transform="translate(731.8997192382812, 0)">
            <line stroke="currentColor" y2="10"></line><text fill="currentColor" y="25" dy="0.71em">Jun</text>
        </g>
    </g>
    <g class="x-secondary" transform="translate(0,470)" fill="none" font-size="10" font-family="sans-serif"
        text-anchor="middle" style="font-size: 23px; color: #1e293b">
        <g class="tick" opacity="1" transform="translate(382.1748046875, 0)">
            <line stroke="currentColor" y2="20"></line><text fill="currentColor" y="35" dy="0.71em"
                transform="translate(-5, -33)" style="text-anchor: end;">2022</text>
        </g>
    </g>
    <g class="y-axis" transform="translate(80,0)" fill="none" font-size="10" font-family="sans-serif" text-anchor="end"
        style="font-size: 23px; color: #1e293b">
        <g class="tick" opacity="1" transform="translate(0, 420.5)">
            <line stroke="currentColor" x2="-6"></line><text fill="currentColor" x="-9" dy="0.32em">4160</text>
        </g>
        <g class="tick" opacity="1" transform="translate(0, 374.9444580078125)">
            <line stroke="currentColor" x2="-6"></line><text fill="currentColor" x="-9" dy="0.32em">4180</text>
        </g>
        <g class="tick" opacity="1" transform="translate(0, 329.3888854980469)">
            <line stroke="currentColor" x2="-6"></line><text fill="currentColor" x="-9" dy="0.32em">4200</text>
        </g>
        <g class="tick" opacity="1" transform="translate(0, 283.8333435058594)">
            <line stroke="currentColor" x2="-6"></line><text fill="currentColor" x="-9" dy="0.32em">4220</text>
        </g>
        <g class="tick" opacity="1" transform="translate(0, 238.27777099609375)">
            <line stroke="currentColor" x2="-6"></line><text fill="currentColor" x="-9" dy="0.32em">4240</text>
        </g>
        <g class="tick" opacity="1" transform="translate(0, 192.72222900390625)">
            <line stroke="currentColor" x2="-6"></line><text fill="currentColor" x="-9" dy="0.32em">4260</text>
        </g>
        <g class="tick" opacity="1" transform="translate(0, 147.1666717529297)">
            <line stroke="currentColor" x2="-6"></line><text fill="currentColor" x="-9" dy="0.32em">4280</text>
        </g>
        <g class="tick" opacity="1" transform="translate(0, 101.61111450195312)">
            <line stroke="currentColor" x2="-6"></line><text fill="currentColor" x="-9" dy="0.32em">4300</text>
        </g>
        <g class="tick" opacity="1" transform="translate(0, 56.05555725097656)">
            <line stroke="currentColor" x2="-6"></line><text fill="currentColor" x="-9" dy="0.32em">4320</text>
        </g>
        <g class="tick" opacity="1" transform="translate(0, 10.5)">
            <line stroke="currentColor" x2="-6"></line><text fill="currentColor" x="-9" dy="0.32em">4340</text>
        </g>
    </g>
    <line class="grid-line" x1="81" y1="374.4444444444444" x2="770" y2="374.4444444444444" fill="none" stroke="#64748b"
        stroke-opacity="0.1"></line>
    <line class="grid-line" x1="81" y1="328.8888888888889" x2="770" y2="328.8888888888889" fill="none" stroke="#64748b"
        stroke-opacity="0.1"></line>
    <line class="grid-line" x1="81" y1="283.33333333333337" x2="770" y2="283.33333333333337" fill="none"
        stroke="#64748b" stroke-opacity="0.1"></line>
    <line class="grid-line" x1="81" y1="237.7777777777778" x2="770" y2="237.7777777777778" fill="none" stroke="#64748b"
        stroke-opacity="0.1"></line>
    <line class="grid-line" x1="81" y1="192.2222222222222" x2="770" y2="192.2222222222222" fill="none" stroke="#64748b"
        stroke-opacity="0.1"></line>
    <line class="grid-line" x1="81" y1="146.66666666666669" x2="770" y2="146.66666666666669" fill="none"
        stroke="#64748b" stroke-opacity="0.1"></line>
    <line class="grid-line" x1="81" y1="101.1111111111111" x2="770" y2="101.1111111111111" fill="none" stroke="#64748b"
        stroke-opacity="0.1"></line>
    <line class="grid-line" x1="81" y1="55.55555555555557" x2="770" y2="55.55555555555557" fill="none" stroke="#64748b"
        stroke-opacity="0.1"></line>
    <line class="grid-line" x1="81" y1="10" x2="770" y2="10" fill="none" stroke="#64748b" stroke-opacity="0.1"></line>
</svg>