<svg xmlns="http://www.w3.org/2000/svg" viewBox="0,0,800,500" preserveAspectRatio="xMidYMid meet">
    <line class="grid-line" x1="81" y1="420" x2="770" y2="420" fill="none" stroke="#64748b" stroke-opacity="0.1">
    </line>
    <g class="x-primary" transform="translate(0,420)" fill="none" font-size="10" font-family="sans-serif"
        text-anchor="middle" style="font-size: 23px; color: #1e293b;">
        <path class="domain" stroke="currentColor" d="M80.5,10V0.5H770.5V10"></path>
        <g class="tick" opacity="1" transform="translate(95.68258666992188, 0)">
            <line stroke="currentColor" y2="10"></line><text fill="currentColor" y="25" dy="0.71em">26</text>
        </g>
        <g class="tick" opacity="1" transform="translate(149.62921142578125, 0)">
            <line stroke="currentColor" y2="10"></line><text fill="currentColor" y="25" dy="0.71em">2</text>
        </g>
        <g class="tick" opacity="1" transform="translate(203.8988800048828, 0)">
            <line stroke="currentColor" y2="10"></line><text fill="currentColor" y="25" dy="0.71em">9</text>
        </g>
        <g class="tick" opacity="1" transform="translate(258.1685485839844, 0)">
            <line stroke="currentColor" y2="10"></line><text fill="currentColor" y="25" dy="0.71em">16</text>
        </g>
        <g class="tick" opacity="1" transform="translate(312.4382019042969, 0)">
            <line stroke="currentColor" y2="10"></line><text fill="currentColor" y="25" dy="0.71em">23</text>
        </g>
        <g class="tick" opacity="1" transform="translate(366.7078552246094, 0)">
            <line stroke="currentColor" y2="10"></line><text fill="currentColor" y="25" dy="0.71em">30</text>
        </g>
        <g class="tick" opacity="1" transform="translate(420.9775390625, 0)">
            <line stroke="currentColor" y2="10"></line><text fill="currentColor" y="25" dy="0.71em">7</text>
        </g>
        <g class="tick" opacity="1" transform="translate(475.2471923828125, 0)">
            <line stroke="currentColor" y2="10"></line><text fill="currentColor" y="25" dy="0.71em">14</text>
        </g>
        <g class="tick" opacity="1" transform="translate(529.516845703125, 0)">
            <line stroke="currentColor" y2="10"></line><text fill="currentColor" y="25" dy="0.71em">21</text>
        </g>
        <g class="tick" opacity="1" transform="translate(583.7864990234375, 0)">
            <line stroke="currentColor" y2="10"></line><text fill="currentColor" y="25" dy="0.71em">28</text>
        </g>
        <g class="tick" opacity="1" transform="translate(638.05615234375, 0)">
            <line stroke="currentColor" y2="10"></line><text fill="currentColor" y="25" dy="0.71em">04</text>
        </g>
        <g class="tick" opacity="1" transform="translate(692.3258666992188, 0)">
            <line stroke="currentColor" y2="10"></line><text fill="currentColor" y="25" dy="0.71em">11</text>
        </g>
        <g class="tick" opacity="1" transform="translate(746.5955200195312, 0)">
            <line stroke="currentColor" y2="10"></line><text fill="currentColor" y="25" dy="0.71em">18</text>
        </g>
    </g>
    <g class="x-secondary" transform="translate(0,470)" fill="none" font-size="10" font-family="sans-serif"
        text-anchor="middle" style="font-size: 23px; color: #1e293b;">
        <g class="tick" opacity="1" transform="translate(95.68258666992188, 0)">
            <line stroke="currentColor" y2="20"></line><text fill="currentColor" y="35" dy="0.71em"
                transform="translate(-5, -33)" style="text-anchor: end;">March</text>
        </g>
        <g class="tick" opacity="1" transform="translate(366.7078552246094, 0)">
            <line stroke="currentColor" y2="20"></line><text fill="currentColor" y="35" dy="0.71em"
                transform="translate(-5, -33)" style="text-anchor: end;">April</text>
        </g>
        <g class="tick" opacity="1" transform="translate(583.7864990234375, 0)">
            <line stroke="currentColor" y2="20"></line><text fill="currentColor" y="35" dy="0.71em"
                transform="translate(-5, -33)" style="text-anchor: end;">May</text>
        </g>
    </g>
    <g class="y-axis" transform="translate(80,0)" fill="none" font-size="10" font-family="sans-serif" text-anchor="end"
        style="font-size: 23px; color: #1e293b;">
        <g class="tick" opacity="1" transform="translate(0, 420.5)">
            <line stroke="currentColor" x2="-6"></line><text fill="currentColor" x="-9" dy="0.32em">2.0k</text>
        </g>
        <g class="tick" opacity="1" transform="translate(0, 379.5)">
            <line stroke="currentColor" x2="-6"></line><text fill="currentColor" x="-9" dy="0.32em">2.5k</text>
        </g>
        <g class="tick" opacity="1" transform="translate(0, 338.5)">
            <line stroke="currentColor" x2="-6"></line><text fill="currentColor" x="-9" dy="0.32em">3.0k</text>
        </g>
        <g class="tick" opacity="1" transform="translate(0, 297.5)">
            <line stroke="currentColor" x2="-6"></line><text fill="currentColor" x="-9" dy="0.32em">3.5k</text>
        </g>
        <g class="tick" opacity="1" transform="translate(0, 256.5)">
            <line stroke="currentColor" x2="-6"></line><text fill="currentColor" x="-9" dy="0.32em">4.0k</text>
        </g>
        <g class="tick" opacity="1" transform="translate(0, 215.5)">
            <line stroke="currentColor" x2="-6"></line><text fill="currentColor" x="-9" dy="0.32em">4.5k</text>
        </g>
        <g class="tick" opacity="1" transform="translate(0, 174.5)">
            <line stroke="currentColor" x2="-6"></line><text fill="currentColor" x="-9" dy="0.32em">5.0k</text>
        </g>
        <g class="tick" opacity="1" transform="translate(0, 133.5)">
            <line stroke="currentColor" x2="-6"></line><text fill="currentColor" x="-9" dy="0.32em">5.5k</text>
        </g>
        <g class="tick" opacity="1" transform="translate(0, 92.5)">
            <line stroke="currentColor" x2="-6"></line><text fill="currentColor" x="-9" dy="0.32em">6.0k</text>
        </g>
        <g class="tick" opacity="1" transform="translate(0, 51.5)">
            <line stroke="currentColor" x2="-6"></line><text fill="currentColor" x="-9" dy="0.32em">6.5k</text>
        </g>
        <g class="tick" opacity="1" transform="translate(0, 10.5)">
            <line stroke="currentColor" x2="-6"></line><text fill="currentColor" x="-9" dy="0.32em">7.0k</text>
        </g>
    </g>
    <line class="grid-line" x1="81" y1="379" x2="770" y2="379" fill="none" stroke="#64748b" stroke-opacity="0.1">
    </line>
    <line class="grid-line" x1="81" y1="338" x2="770" y2="338" fill="none" stroke="#64748b" stroke-opacity="0.1">
    </line>
    <line class="grid-line" x1="81" y1="297" x2="770" y2="297" fill="none" stroke="#64748b" stroke-opacity="0.1">
    </line>
    <line class="grid-line" x1="81" y1="256" x2="770" y2="256" fill="none" stroke="#64748b" stroke-opacity="0.1">
    </line>
    <line class="grid-line" x1="81" y1="215" x2="770" y2="215" fill="none" stroke="#64748b" stroke-opacity="0.1">
    </line>
    <line class="grid-line" x1="81" y1="174" x2="770" y2="174" fill="none" stroke="#64748b" stroke-opacity="0.1">
    </line>
    <line class="grid-line" x1="81" y1="133" x2="770" y2="133" fill="none" stroke="#64748b" stroke-opacity="0.1">
    </line>
    <line class="grid-line" x1="81" y1="91.99999999999999" x2="770" y2="91.99999999999999" fill="none" stroke="#64748b"
        stroke-opacity="0.1"></line>
    <line class="grid-line" x1="81" y1="50.99999999999999" x2="770" y2="50.99999999999999" fill="none" stroke="#64748b"
        stroke-opacity="0.1"></line>
    <line class="grid-line" x1="81" y1="10" x2="770" y2="10" fill="none" stroke="#64748b" stroke-opacity="0.1"></line>

    <g>
        <text x="760" text-anchor="end" y="260" font-family="monospace" font-size="20"
            fill="#4338ca">ethr-mainnet</text>
        <path
            d="M80,229.26799999999997C82.58426966292134,229.26799999999997,85.1685393258427,229.26799999999997,87.75280898876404,229.26799999999997C90.33707865168539,229.26799999999997,92.92134831460673,229.26799999999997,95.50561797752808,229.26799999999997C98.08988764044943,229.26799999999997,100.67415730337078,229.26799999999997,103.25842696629213,229.26799999999997C105.84269662921348,229.26799999999997,108.42696629213484,229.26799999999997,111.01123595505618,229.26799999999997C113.59550561797752,229.26799999999997,116.17977528089888,229.26799999999997,118.76404494382022,229.26799999999997C121.34831460674157,229.26799999999997,123.93258426966293,229.18599999999998,126.51685393258427,229.18599999999998C129.1011235955056,229.18599999999998,131.68539325842696,229.18599999999998,134.2696629213483,229.18599999999998C136.85393258426964,229.18599999999998,139.43820224719101,229.18599999999998,142.02247191011236,229.18599999999998C144.6067415730337,229.18599999999998,147.19101123595507,229.18599999999998,149.77528089887642,229.18599999999998C152.35955056179776,229.18599999999998,154.9438202247191,229.18599999999998,157.52808988764045,229.18599999999998C160.1123595505618,229.18599999999998,162.69662921348313,229.18599999999998,165.28089887640448,229.18599999999998C167.86516853932582,229.18599999999998,170.4494382022472,229.18599999999998,173.03370786516854,229.18599999999998C175.61797752808988,229.18599999999998,178.20224719101125,229.18599999999998,180.7865168539326,229.18599999999998C183.37078651685394,229.18599999999998,185.95505617977528,229.18599999999998,188.53932584269663,229.18599999999998C191.12359550561797,229.18599999999998,193.7078651685393,229.18599999999998,196.29213483146066,229.18599999999998C198.876404494382,229.18599999999998,201.46067415730337,229.18599999999998,204.04494382022472,229.18599999999998C206.62921348314606,229.18599999999998,209.21348314606743,229.18599999999998,211.79775280898878,229.18599999999998C214.38202247191012,229.18599999999998,216.96629213483143,229.18599999999998,219.55056179775278,229.18599999999998C222.13483146067415,229.18599999999998,224.7191011235955,229.104,227.30337078651687,229.104C229.8876404494382,229.104,232.47191011235955,229.104,235.0561797752809,229.104C237.64044943820224,229.104,240.22471910112358,229.104,242.80898876404493,229.104C245.39325842696627,229.104,247.9775280898876,229.104,250.56179775280896,229.104C253.14606741573033,229.104,255.7303370786517,229.104,258.3146067415731,229.104C260.8988764044944,229.104,263.48314606741576,229.104,266.0674157303371,229.104C268.65168539325845,229.104,271.23595505617976,229.104,273.82022471910113,229.104C276.4044943820225,229.104,278.9887640449438,229.104,281.5730337078652,229.104C284.15730337078656,229.104,286.7415730337079,229.104,289.32584269662925,229.104C291.91011235955057,229.104,294.49438202247194,229.104,297.07865168539325,229.104C299.6629213483146,229.104,302.24719101123594,229.104,304.8314606741573,229.104C307.4157303370786,229.104,310,229.104,312.5842696629213,229.104C315.1685393258427,229.104,317.752808988764,229.104,320.3370786516854,229.104C322.92134831460675,229.104,325.50561797752806,229.104,328.08988764044943,229.104C330.6741573033708,229.104,333.2584269662921,229.104,335.8426966292135,229.104C338.4269662921348,229.104,341.0112359550562,229.104,343.5955056179775,229.104C346.17977528089887,229.104,348.76404494382024,229.104,351.3483146067416,229.104C353.9325842696629,229.104,356.5168539325843,229.104,359.1011235955056,229.104C361.685393258427,229.104,364.2696629213483,229.104,366.85393258426967,229.104C369.43820224719104,229.104,372.02247191011236,229.104,374.60674157303373,229.104C377.1910112359551,229.104,379.7752808988764,229.104,382.3595505617978,229.104C384.9438202247191,229.104,387.5280898876405,229.104,390.1123595505618,229.104C392.69662921348316,229.104,395.2808988764045,229.104,397.86516853932585,229.104C400.44943820224717,229.104,403.03370786516854,229.104,405.61797752808985,229.104C408.2022471910112,229.104,410.78651685393254,229.104,413.3707865168539,229.104C415.9550561797752,229.104,418.5393258426966,229.104,421.1235955056179,229.104C423.7078651685393,229.104,426.2921348314607,229.104,428.8764044943821,229.104C431.46067415730346,229.104,434.0449438202248,229.104,436.62921348314615,229.104C439.21348314606746,229.104,441.7977528089888,229.104,444.3820224719101,229.104C446.96629213483146,229.104,449.5505617977528,229.104,452.13483146067415,229.104C454.7191011235955,229.104,457.30337078651684,229.104,459.8876404494382,229.104C462.4719101123596,229.104,465.0561797752809,229.104,467.64044943820227,229.104C470.2247191011236,229.104,472.80898876404495,229.104,475.39325842696627,229.104C477.97752808988764,229.104,480.56179775280896,229.104,483.14606741573033,229.104C485.7303370786517,229.104,488.314606741573,229.104,490.8988764044944,229.104C493.48314606741576,229.104,496.0674157303371,229.104,498.65168539325845,229.104C501.23595505617976,229.104,503.82022471910113,229.104,506.40449438202245,229.104C508.9887640449438,229.104,511.57303370786514,229.104,514.1573033707865,229.104C516.7415730337078,229.104,519.3258426966293,229.104,521.9101123595506,229.104C524.4943820224719,229.104,527.0786516853933,229.104,529.6629213483146,229.104C532.2471910112359,229.104,534.8314606741574,229.104,537.4157303370787,229.104C540,229.104,542.5842696629213,229.104,545.1685393258426,229.104C547.7528089887641,229.104,550.3370786516854,229.104,552.9213483146068,229.104C555.5056179775281,229.104,558.0898876404494,229.104,560.6741573033707,229.104C563.2584269662921,229.104,565.8426966292135,229.104,568.4269662921348,229.104C571.0112359550561,229.104,573.5955056179776,229.104,576.1797752808989,229.104C578.7640449438202,229.104,581.3483146067416,229.104,583.9325842696629,229.104C586.5168539325842,229.104,589.1011235955057,229.104,591.685393258427,229.104C594.2696629213483,229.104,596.8539325842697,229.104,599.438202247191,229.104C602.0224719101124,229.104,604.6067415730337,229.104,607.191011235955,229.104C609.7752808988764,229.104,612.3595505617977,229.104,614.9438202247192,229.104C617.5280898876405,229.104,620.1123595505619,229.104,622.6966292134832,229.104C625.2808988764045,229.104,627.8651685393259,229.104,630.4494382022472,229.104C633.0337078651685,229.104,635.6179775280899,229.104,638.2022471910112,229.104C640.7865168539325,229.104,643.370786516854,229.104,645.9550561797753,229.104C648.5393258426966,229.104,651.123595505618,229.104,653.7078651685393,229.104C656.2921348314607,229.104,658.876404494382,229.104,661.4606741573033,229.104C664.0449438202247,229.104,666.629213483146,229.104,669.2134831460675,229.104C671.7977528089888,229.104,674.3820224719101,229.104,676.9662921348314,229.104C679.5505617977528,229.104,682.1348314606741,229.104,684.7191011235956,229.104C687.3033707865169,229.104,689.8876404494382,229.104,692.4719101123595,229.104C695.0561797752808,229.104,697.6404494382023,229.104,700.2247191011236,229.104C702.8089887640449,229.104,705.3932584269663,229.104,707.9775280898876,229.104C710.561797752809,229.104,713.1460674157304,229.104,715.7303370786517,229.104C718.314606741573,229.104,720.8988764044944,229.104,723.4831460674158,229.104C726.0674157303371,229.104,728.6516853932584,229.104,731.2359550561797,229.104C733.8202247191011,229.104,736.4044943820224,229.104,738.9887640449439,229.104C741.5730337078652,229.104,744.1573033707865,229.104,746.7415730337078,229.104C749.3258426966291,229.104,751.9101123595506,229.104,754.4943820224719,229.104C757.0786516853932,229.104,759.6629213483145,229.104,762.2471910112358,229.104C764.8314606741573,229.104,767.4157303370786,229.104,770,229.104"
            fill="none" stroke-linecap="round" stroke-linejoin="bevel" stroke="#4338ca" stroke-width="2"
            class="line ethr-mainnet"></path>
    </g>


    <g>
        <text x="760" text-anchor="end" y="40" font-family="monospace" font-size="20" fill="#059669">ethr-rinkeby</text>
        <path
            d="M80,13.771999999999993C82.58426966292134,13.771999999999993,85.1685393258427,13.771999999999993,87.75280898876404,13.771999999999993C90.33707865168539,13.771999999999993,92.92134831460673,13.771999999999993,95.50561797752808,13.771999999999993C98.08988764044943,13.771999999999993,100.67415730337078,13.771999999999993,103.25842696629213,13.771999999999993C105.84269662921348,13.771999999999993,108.42696629213484,13.771999999999993,111.01123595505618,13.771999999999993C113.59550561797752,13.771999999999993,116.17977528089888,13.771999999999993,118.76404494382022,13.771999999999993C121.34831460674157,13.771999999999993,123.93258426966293,13.771999999999993,126.51685393258427,13.771999999999993C129.1011235955056,13.771999999999993,131.68539325842696,13.771999999999993,134.2696629213483,13.771999999999993C136.85393258426964,13.771999999999993,139.43820224719101,13.771999999999993,142.02247191011236,13.771999999999993C144.6067415730337,13.771999999999993,147.19101123595507,13.771999999999993,149.77528089887642,13.771999999999993C152.35955056179776,13.771999999999993,154.9438202247191,13.771999999999993,157.52808988764045,13.771999999999993C160.1123595505618,13.771999999999993,162.69662921348313,13.771999999999993,165.28089887640448,13.771999999999993C167.86516853932582,13.771999999999993,170.4494382022472,13.771999999999993,173.03370786516854,13.771999999999993C175.61797752808988,13.771999999999993,178.20224719101125,13.771999999999993,180.7865168539326,13.771999999999993C183.37078651685394,13.771999999999993,185.95505617977528,13.771999999999993,188.53932584269663,13.771999999999993C191.12359550561797,13.771999999999993,193.7078651685393,13.771999999999993,196.29213483146066,13.771999999999993C198.876404494382,13.771999999999993,201.46067415730337,13.771999999999993,204.04494382022472,13.771999999999993C206.62921348314606,13.771999999999993,209.21348314606743,13.771999999999993,211.79775280898878,13.771999999999993C214.38202247191012,13.771999999999993,216.96629213483143,13.771999999999993,219.55056179775278,13.771999999999993C222.13483146067415,13.771999999999993,224.7191011235955,13.771999999999993,227.30337078651687,13.771999999999993C229.8876404494382,13.771999999999993,232.47191011235955,13.771999999999993,235.0561797752809,13.771999999999993C237.64044943820224,13.771999999999993,240.22471910112358,13.771999999999993,242.80898876404493,13.771999999999993C245.39325842696627,13.771999999999993,247.9775280898876,13.771999999999993,250.56179775280896,13.771999999999993C253.14606741573033,13.771999999999993,255.7303370786517,13.771999999999993,258.3146067415731,13.771999999999993C260.8988764044944,13.771999999999993,263.48314606741576,13.771999999999993,266.0674157303371,13.771999999999993C268.65168539325845,13.771999999999993,271.23595505617976,13.771999999999993,273.82022471910113,13.771999999999993C276.4044943820225,13.771999999999993,278.9887640449438,13.771999999999993,281.5730337078652,13.771999999999993C284.15730337078656,13.771999999999993,286.7415730337079,13.771999999999993,289.32584269662925,13.771999999999993C291.91011235955057,13.771999999999993,294.49438202247194,13.771999999999993,297.07865168539325,13.771999999999993C299.6629213483146,13.771999999999993,302.24719101123594,13.771999999999993,304.8314606741573,13.771999999999993C307.4157303370786,13.771999999999993,310,13.771999999999993,312.5842696629213,13.771999999999993C315.1685393258427,13.771999999999993,317.752808988764,13.771999999999993,320.3370786516854,13.771999999999993C322.92134831460675,13.771999999999993,325.50561797752806,13.771999999999993,328.08988764044943,13.771999999999993C330.6741573033708,13.771999999999993,333.2584269662921,13.771999999999993,335.8426966292135,13.771999999999993C338.4269662921348,13.771999999999993,341.0112359550562,13.771999999999993,343.5955056179775,13.771999999999993C346.17977528089887,13.771999999999993,348.76404494382024,13.771999999999993,351.3483146067416,13.771999999999993C353.9325842696629,13.771999999999993,356.5168539325843,13.771999999999993,359.1011235955056,13.771999999999993C361.685393258427,13.771999999999993,364.2696629213483,13.771999999999993,366.85393258426967,13.771999999999993C369.43820224719104,13.771999999999993,372.02247191011236,13.771999999999993,374.60674157303373,13.771999999999993C377.1910112359551,13.771999999999993,379.7752808988764,13.771999999999993,382.3595505617978,13.771999999999993C384.9438202247191,13.771999999999993,387.5280898876405,13.771999999999993,390.1123595505618,13.771999999999993C392.69662921348316,13.771999999999993,395.2808988764045,13.771999999999993,397.86516853932585,13.771999999999993C400.44943820224717,13.771999999999993,403.03370786516854,13.771999999999993,405.61797752808985,13.771999999999993C408.2022471910112,13.771999999999993,410.78651685393254,13.771999999999993,413.3707865168539,13.771999999999993C415.9550561797752,13.771999999999993,418.5393258426966,13.771999999999993,421.1235955056179,13.771999999999993C423.7078651685393,13.771999999999993,426.2921348314607,13.771999999999993,428.8764044943821,13.771999999999993C431.46067415730346,13.771999999999993,434.0449438202248,13.771999999999993,436.62921348314615,13.771999999999993C439.21348314606746,13.771999999999993,441.7977528089888,13.771999999999993,444.3820224719101,13.771999999999993C446.96629213483146,13.771999999999993,449.5505617977528,13.771999999999993,452.13483146067415,13.771999999999993C454.7191011235955,13.771999999999993,457.30337078651684,13.771999999999993,459.8876404494382,13.771999999999993C462.4719101123596,13.771999999999993,465.0561797752809,13.771999999999993,467.64044943820227,13.771999999999993C470.2247191011236,13.771999999999993,472.80898876404495,13.771999999999993,475.39325842696627,13.771999999999993C477.97752808988764,13.771999999999993,480.56179775280896,13.771999999999993,483.14606741573033,13.771999999999993C485.7303370786517,13.771999999999993,488.314606741573,13.771999999999993,490.8988764044944,13.771999999999993C493.48314606741576,13.771999999999993,496.0674157303371,13.771999999999993,498.65168539325845,13.771999999999993C501.23595505617976,13.771999999999993,503.82022471910113,13.771999999999993,506.40449438202245,13.771999999999993C508.9887640449438,13.771999999999993,511.57303370786514,13.771999999999993,514.1573033707865,13.771999999999993C516.7415730337078,13.771999999999993,519.3258426966293,13.771999999999993,521.9101123595506,13.771999999999993C524.4943820224719,13.771999999999993,527.0786516853933,13.771999999999993,529.6629213483146,13.771999999999993C532.2471910112359,13.771999999999993,534.8314606741574,13.771999999999993,537.4157303370787,13.771999999999993C540,13.771999999999993,542.5842696629213,13.771999999999993,545.1685393258426,13.771999999999993C547.7528089887641,13.771999999999993,550.3370786516854,13.771999999999993,552.9213483146068,13.771999999999993C555.5056179775281,13.771999999999993,558.0898876404494,13.771999999999993,560.6741573033707,13.771999999999993C563.2584269662921,13.771999999999993,565.8426966292135,13.771999999999993,568.4269662921348,13.771999999999993C571.0112359550561,13.771999999999993,573.5955056179776,13.771999999999993,576.1797752808989,13.771999999999993C578.7640449438202,13.771999999999993,581.3483146067416,13.771999999999993,583.9325842696629,13.771999999999993C586.5168539325842,13.771999999999993,589.1011235955057,13.771999999999993,591.685393258427,13.771999999999993C594.2696629213483,13.771999999999993,596.8539325842697,13.771999999999993,599.438202247191,13.771999999999993C602.0224719101124,13.771999999999993,604.6067415730337,13.771999999999993,607.191011235955,13.771999999999993C609.7752808988764,13.771999999999993,612.3595505617977,13.771999999999993,614.9438202247192,13.771999999999993C617.5280898876405,13.771999999999993,620.1123595505619,13.771999999999993,622.6966292134832,13.771999999999993C625.2808988764045,13.771999999999993,627.8651685393259,13.771999999999993,630.4494382022472,13.771999999999993C633.0337078651685,13.771999999999993,635.6179775280899,13.771999999999993,638.2022471910112,13.771999999999993C640.7865168539325,13.771999999999993,643.370786516854,13.771999999999993,645.9550561797753,13.771999999999993C648.5393258426966,13.771999999999993,651.123595505618,13.771999999999993,653.7078651685393,13.771999999999993C656.2921348314607,13.771999999999993,658.876404494382,13.771999999999993,661.4606741573033,13.771999999999993C664.0449438202247,13.771999999999993,666.629213483146,13.771999999999993,669.2134831460675,13.771999999999993C671.7977528089888,13.771999999999993,674.3820224719101,13.771999999999993,676.9662921348314,13.771999999999993C679.5505617977528,13.771999999999993,682.1348314606741,13.771999999999993,684.7191011235956,13.771999999999993C687.3033707865169,13.771999999999993,689.8876404494382,13.771999999999993,692.4719101123595,13.771999999999993C695.0561797752808,13.771999999999993,697.6404494382023,13.771999999999993,700.2247191011236,13.771999999999993C702.8089887640449,13.771999999999993,705.3932584269663,13.771999999999993,707.9775280898876,13.771999999999993C710.561797752809,13.771999999999993,713.1460674157304,13.771999999999993,715.7303370786517,13.771999999999993C718.314606741573,13.771999999999993,720.8988764044944,13.771999999999993,723.4831460674158,13.771999999999993C726.0674157303371,13.771999999999993,728.6516853932584,13.771999999999993,731.2359550561797,13.771999999999993C733.8202247191011,13.771999999999993,736.4044943820224,13.771999999999993,738.9887640449439,13.771999999999993C741.5730337078652,13.771999999999993,744.1573033707865,13.771999999999993,746.7415730337078,13.771999999999993C749.3258426966291,13.771999999999993,751.9101123595506,13.771999999999993,754.4943820224719,13.771999999999993C757.0786516853932,13.771999999999993,759.6629213483145,13.771999999999993,762.2471910112358,13.771999999999993C764.8314606741573,13.771999999999993,767.4157303370786,13.771999999999993,770,13.771999999999993"
            fill="none" stroke-linecap="round" stroke-linejoin="bevel" stroke="#059669" stroke-width="2"
            class="line ethr-rinkeby"></path>
    </g>


    <g>
        <text x="760" text-anchor="end" y="380" font-family="monospace" font-size="20" fill="#b45309">ethr-goerli</text>
        <path
            d="M80,408.356C82.58426966292134,408.315,85.1685393258427,408.274,87.75280898876404,408.274C90.33707865168539,408.274,92.92134831460673,408.274,95.50561797752808,408.274C98.08988764044943,408.274,100.67415730337078,408.06899999999996,103.25842696629213,407.94599999999997C105.84269662921348,407.823,108.42696629213484,407.7273333333333,111.01123595505618,407.536C113.59550561797752,407.3446666666667,116.17977528089888,407.0713333333333,118.76404494382022,406.798C121.34831460674157,406.5246666666667,123.93258426966293,406.06,126.51685393258427,405.896C129.1011235955056,405.732,131.68539325842696,405.71833333333336,134.2696629213483,405.65000000000003C136.85393258426964,405.5816666666667,139.43820224719101,405.486,142.02247191011236,405.486C144.6067415730337,405.486,147.19101123595507,405.486,149.77528089887642,405.486C152.35955056179776,405.486,154.9438202247191,405.486,157.52808988764045,405.486C160.1123595505618,405.486,162.69662921348313,405.486,165.28089887640448,405.486C167.86516853932582,405.486,170.4494382022472,405.486,173.03370786516854,405.486C175.61797752808988,405.486,178.20224719101125,405.322,180.7865168539326,405.322C183.37078651685394,405.322,185.95505617977528,405.322,188.53932584269663,405.322C191.12359550561797,405.322,193.7078651685393,405.322,196.29213483146066,405.322C198.876404494382,405.322,201.46067415730337,405.322,204.04494382022472,405.322C206.62921348314606,405.322,209.21348314606743,405.322,211.79775280898878,405.322C214.38202247191012,405.322,216.96629213483143,405.0896666666667,219.55056179775278,404.994C222.13483146067415,404.89833333333337,224.7191011235955,404.8573333333333,227.30337078651687,404.748C229.8876404494382,404.63866666666667,232.47191011235955,404.4336666666667,235.0561797752809,404.338C237.64044943820224,404.24233333333336,240.22471910112358,404.17400000000004,242.80898876404493,404.17400000000004C245.39325842696627,404.17400000000004,247.9775280898876,404.17400000000004,250.56179775280896,404.17400000000004C253.14606741573033,404.17400000000004,255.7303370786517,404.17400000000004,258.3146067415731,404.17400000000004C260.8988764044944,404.17400000000004,263.48314606741576,404.17400000000004,266.0674157303371,404.17400000000004C268.65168539325845,404.17400000000004,271.23595505617976,404.17400000000004,273.82022471910113,404.17400000000004C276.4044943820225,404.17400000000004,278.9887640449438,403.887,281.5730337078652,403.764C284.15730337078656,403.641,286.7415730337079,403.436,289.32584269662925,403.436C291.91011235955057,403.436,294.49438202247194,403.436,297.07865168539325,403.436C299.6629213483146,403.436,302.24719101123594,403.436,304.8314606741573,403.436C307.4157303370786,403.436,310,403.436,312.5842696629213,403.436C315.1685393258427,403.436,317.752808988764,403.31300000000005,320.3370786516854,403.27200000000005C322.92134831460675,403.23100000000005,325.50561797752806,403.2446666666667,328.08988764044943,403.19C330.6741573033708,403.1353333333333,333.2584269662921,402.04200000000003,335.8426966292135,402.04200000000003C338.4269662921348,402.04200000000003,341.0112359550562,402.04200000000003,343.5955056179775,402.04200000000003C346.17977528089887,402.04200000000003,348.76404494382024,401.09900000000005,351.3483146067416,400.812C353.9325842696629,400.52500000000003,356.5168539325843,400.53866666666664,359.1011235955056,400.32C361.685393258427,400.10133333333334,364.2696629213483,399.66400000000004,366.85393258426967,399.5C369.43820224719104,399.33599999999996,372.02247191011236,399.3906666666666,374.60674157303373,399.25399999999996C377.1910112359551,399.1173333333333,379.7752808988764,398.7346666666666,382.3595505617978,398.67999999999995C384.9438202247191,398.6253333333333,387.5280898876405,398.59799999999996,390.1123595505618,398.59799999999996C392.69662921348316,398.59799999999996,395.2808988764045,398.59799999999996,397.86516853932585,398.59799999999996C400.44943820224717,398.59799999999996,403.03370786516854,398.434,405.61797752808985,398.434C408.2022471910112,398.434,410.78651685393254,398.434,413.3707865168539,398.434C415.9550561797752,398.434,418.5393258426966,398.434,421.1235955056179,398.434C423.7078651685393,398.434,426.2921348314607,398.434,428.8764044943821,398.434C431.46067415730346,398.434,434.0449438202248,398.434,436.62921348314615,398.434C439.21348314606746,398.434,441.7977528089888,398.37933333333325,444.3820224719101,398.2699999999999C446.96629213483146,398.1606666666666,449.5505617977528,397.9556666666666,452.13483146067415,397.77799999999996C454.7191011235955,397.6003333333333,457.30337078651684,397.204,459.8876404494382,397.204C462.4719101123596,397.204,465.0561797752809,397.204,467.64044943820227,397.204C470.2247191011236,397.204,472.80898876404495,397.1356666666666,475.39325842696627,397.03999999999996C477.97752808988764,396.9443333333333,480.56179775280896,396.63,483.14606741573033,396.63C485.7303370786517,396.63,488.314606741573,396.63,490.8988764044944,396.63C493.48314606741576,396.63,496.0674157303371,396.63,498.65168539325845,396.63C501.23595505617976,396.63,503.82022471910113,396.52066666666667,506.40449438202245,396.466C508.9887640449438,396.41133333333335,511.57303370786514,396.30199999999996,514.1573033707865,396.30199999999996C516.7415730337078,396.30199999999996,519.3258426966293,396.30199999999996,521.9101123595506,396.30199999999996C524.4943820224719,396.30199999999996,527.0786516853933,396.30199999999996,529.6629213483146,396.30199999999996C532.2471910112359,396.30199999999996,534.8314606741574,395.91933333333327,537.4157303370787,395.72799999999995C540,395.53666666666663,542.5842696629213,395.53666666666663,545.1685393258426,395.154C547.7528089887641,394.77133333333336,550.3370786516854,392.85799999999995,552.9213483146068,392.85799999999995C555.5056179775281,392.85799999999995,558.0898876404494,392.85799999999995,560.6741573033707,392.85799999999995C563.2584269662921,392.85799999999995,565.8426966292135,392.53000000000003,568.4269662921348,392.53000000000003C571.0112359550561,392.53000000000003,573.5955056179776,392.53000000000003,576.1797752808989,392.53000000000003C578.7640449438202,392.53000000000003,581.3483146067416,392.53000000000003,583.9325842696629,392.53000000000003C586.5168539325842,392.53000000000003,589.1011235955057,392.44800000000004,591.685393258427,392.44800000000004C594.2696629213483,392.44800000000004,596.8539325842697,392.44800000000004,599.438202247191,392.44800000000004C602.0224719101124,392.44800000000004,604.6067415730337,392.44800000000004,607.191011235955,392.44800000000004C609.7752808988764,392.44800000000004,612.3595505617977,392.3933333333333,614.9438202247192,392.366C617.5280898876405,392.33866666666665,620.1123595505619,392.284,622.6966292134832,392.284C625.2808988764045,392.284,627.8651685393259,392.284,630.4494382022472,392.284C633.0337078651685,392.284,635.6179775280899,391.92866666666663,638.2022471910112,391.87399999999997C640.7865168539325,391.8193333333333,643.370786516854,391.8193333333333,645.9550561797753,391.792C648.5393258426966,391.76466666666664,651.123595505618,391.73733333333337,653.7078651685393,391.71000000000004C656.2921348314607,391.6826666666667,658.876404494382,391.6553333333333,661.4606741573033,391.628C664.0449438202247,391.60066666666665,666.629213483146,391.5733333333333,669.2134831460675,391.546C671.7977528089888,391.51866666666666,674.3820224719101,391.46400000000006,676.9662921348314,391.46400000000006C679.5505617977528,391.46400000000006,682.1348314606741,391.46400000000006,684.7191011235956,391.46400000000006C687.3033707865169,391.46400000000006,689.8876404494382,391.46400000000006,692.4719101123595,391.46400000000006C695.0561797752808,391.46400000000006,697.6404494382023,391.46400000000006,700.2247191011236,391.46400000000006C702.8089887640449,391.46400000000006,705.3932584269663,391.46400000000006,707.9775280898876,391.46400000000006C710.561797752809,391.46400000000006,713.1460674157304,391.382,715.7303370786517,391.382C718.314606741573,391.382,720.8988764044944,391.382,723.4831460674158,391.382C726.0674157303371,391.382,728.6516853932584,391.382,731.2359550561797,391.382C733.8202247191011,391.382,736.4044943820224,391.382,738.9887640449439,391.382C741.5730337078652,391.382,744.1573033707865,391.2726666666666,746.7415730337078,391.21799999999996C749.3258426966291,391.1633333333333,751.9101123595506,391.05400000000003,754.4943820224719,391.05400000000003C757.0786516853932,391.05400000000003,759.6629213483145,391.05400000000003,762.2471910112358,391.05400000000003C764.8314606741573,391.05400000000003,767.4157303370786,391.05400000000003,770,391.05400000000003"
            fill="none" stroke-linecap="round" stroke-linejoin="bevel" stroke="#b45309" class="line ethr-goerli"
            stroke-width="2"></path>
    </g>
</svg>