<svg xmlns="http://www.w3.org/2000/svg" viewBox="0,0,800,500" preserveAspectRatio="xMidYMid meet">
    <line class="grid-line" x1="81" y1="420" x2="770" y2="420" fill="none" stroke="#64748b" stroke-opacity="0.1">
    </line>
    <line class="grid-line" x1="81" y1="379" x2="770" y2="379" fill="none" stroke="#64748b" stroke-opacity="0.1">
    </line>
    <line class="grid-line" x1="81" y1="338" x2="770" y2="338" fill="none" stroke="#64748b" stroke-opacity="0.1">
    </line>
    <line class="grid-line" x1="81" y1="297" x2="770" y2="297" fill="none" stroke="#64748b" stroke-opacity="0.1">
    </line>
    <line class="grid-line" x1="81" y1="256" x2="770" y2="256" fill="none" stroke="#64748b" stroke-opacity="0.1">
    </line>
    <line class="grid-line" x1="81" y1="215" x2="770" y2="215" fill="none" stroke="#64748b" stroke-opacity="0.1">
    </line>
    <line class="grid-line" x1="81" y1="174" x2="770" y2="174" fill="none" stroke="#64748b" stroke-opacity="0.1">
    </line>
    <line class="grid-line" x1="81" y1="133" x2="770" y2="133" fill="none" stroke="#64748b" stroke-opacity="0.1">
    </line>
    <line class="grid-line" x1="81" y1="91.99999999999999" x2="770" y2="91.99999999999999" fill="none" stroke="#64748b"
        stroke-opacity="0.1"></line>
    <line class="grid-line" x1="81" y1="50.99999999999999" x2="770" y2="50.99999999999999" fill="none" stroke="#64748b"
        stroke-opacity="0.1"></line>

    <g class="x-primary" transform="translate(0,420)" fill="none" font-size="10" font-family="sans-serif"
        text-anchor="middle" style="font-size: 23px; color: #1e293b;">
        <path class="domain" stroke="currentColor" d="M80.5,10V0.5H770.5V10"></path>
        <g class="tick" opacity="1" transform="translate(126.10344696044922, 0)">
            <line stroke="currentColor" y2="10"></line><text fill="currentColor" y="25" dy="0.71em">25</text>
        </g>
        <g class="tick" opacity="1" transform="translate(173.6896514892578, 0)">
            <line stroke="currentColor" y2="10"></line><text fill="currentColor" y="25" dy="0.71em">27</text>
        </g>
        <g class="tick" opacity="1" transform="translate(221.27586364746094, 0)">
            <line stroke="currentColor" y2="10"></line><text fill="currentColor" y="25" dy="0.71em">29</text>
        </g>
        <g class="tick" opacity="1" transform="translate(268.862060546875, 0)">
            <line stroke="currentColor" y2="10"></line><text fill="currentColor" y="25" dy="0.71em">31</text>
        </g>
        <g class="tick" opacity="1" transform="translate(292.6551818847656, 0)">
            <line stroke="currentColor" y2="10"></line><text fill="currentColor" y="25" dy="0.71em">1</text>
        </g>
        <g class="tick" opacity="1" transform="translate(340.24139404296875, 0)">
            <line stroke="currentColor" y2="10"></line><text fill="currentColor" y="25" dy="0.71em">3</text>
        </g>
        <g class="tick" opacity="1" transform="translate(387.82757568359375, 0)">
            <line stroke="currentColor" y2="10"></line><text fill="currentColor" y="25" dy="0.71em">5</text>
        </g>
        <g class="tick" opacity="1" transform="translate(435.4137878417969, 0)">
            <line stroke="currentColor" y2="10"></line><text fill="currentColor" y="25" dy="0.71em">7</text>
        </g>
        <g class="tick" opacity="1" transform="translate(483, 0)">
            <line stroke="currentColor" y2="10"></line><text fill="currentColor" y="25" dy="0.71em">9</text>
        </g>
        <g class="tick" opacity="1" transform="translate(530.586181640625, 0)">
            <line stroke="currentColor" y2="10"></line><text fill="currentColor" y="25" dy="0.71em">11</text>
        </g>
        <g class="tick" opacity="1" transform="translate(578.1724243164062, 0)">
            <line stroke="currentColor" y2="10"></line><text fill="currentColor" y="25" dy="0.71em">13</text>
        </g>
        <g class="tick" opacity="1" transform="translate(625.7586059570312, 0)">
            <line stroke="currentColor" y2="10"></line><text fill="currentColor" y="25" dy="0.71em">15</text>
        </g>
        <g class="tick" opacity="1" transform="translate(673.3448486328125, 0)">
            <line stroke="currentColor" y2="10"></line><text fill="currentColor" y="25" dy="0.71em">17</text>
        </g>
        <g class="tick" opacity="1" transform="translate(720.9310302734375, 0)">
            <line stroke="currentColor" y2="10"></line><text fill="currentColor" y="25" dy="0.71em">19</text>
        </g>
        <g class="tick" opacity="1" transform="translate(768.5172119140625, 0)">
            <line stroke="currentColor" y2="10"></line><text fill="currentColor" y="25" dy="0.71em">21</text>
        </g>
    </g>
    <g class="x-secondary" transform="translate(0,470)" fill="none" font-size="10" font-family="sans-serif"
        text-anchor="middle" style="font-size: 23px; color: #1e293b;">
        <g class="tick" opacity="1" transform="translate(268.862060546875, 0)">
            <line stroke="currentColor" y2="20"></line><text fill="currentColor" y="35" dy="0.71em"
                transform="translate(-5, -33)" style="text-anchor: end;">May</text>
        </g>
    </g>
    <g class="y-axis" transform="translate(80,0)" fill="none" font-size="10" font-family="sans-serif" text-anchor="end"
        style="font-size: 23px; color: #1e293b;">
        <g class="tick" opacity="1" transform="translate(0,420.5)">
            <line stroke="currentColor" x2="-6"></line><text fill="currentColor" x="-9" dy="0.32em">2.0k</text>
        </g>
        <g class="tick" opacity="1" transform="translate(0,379.5)">
            <line stroke="currentColor" x2="-6"></line><text fill="currentColor" x="-9" dy="0.32em">2.5k</text>
        </g>
        <g class="tick" opacity="1" transform="translate(0,338.5)">
            <line stroke="currentColor" x2="-6"></line><text fill="currentColor" x="-9" dy="0.32em">3.0k</text>
        </g>
        <g class="tick" opacity="1" transform="translate(0,297.5)">
            <line stroke="currentColor" x2="-6"></line><text fill="currentColor" x="-9" dy="0.32em">3.5k</text>
        </g>
        <g class="tick" opacity="1" transform="translate(0,256.5)">
            <line stroke="currentColor" x2="-6"></line><text fill="currentColor" x="-9" dy="0.32em">4.0k</text>
        </g>
        <g class="tick" opacity="1" transform="translate(0,215.5)">
            <line stroke="currentColor" x2="-6"></line><text fill="currentColor" x="-9" dy="0.32em">4.5k</text>
        </g>
        <g class="tick" opacity="1" transform="translate(0,174.5)">
            <line stroke="currentColor" x2="-6"></line><text fill="currentColor" x="-9" dy="0.32em">5.0k</text>
        </g>
        <g class="tick" opacity="1" transform="translate(0,133.5)">
            <line stroke="currentColor" x2="-6"></line><text fill="currentColor" x="-9" dy="0.32em">5.5k</text>
        </g>
        <g class="tick" opacity="1" transform="translate(0,92.49999999999999)">
            <line stroke="currentColor" x2="-6"></line><text fill="currentColor" x="-9" dy="0.32em">6.0k</text>
        </g>
        <g class="tick" opacity="1" transform="translate(0,51.49999999999999)">
            <line stroke="currentColor" x2="-6"></line><text fill="currentColor" x="-9" dy="0.32em">6.5k</text>
        </g>
        <g class="tick" opacity="1" transform="translate(0,10.5)">
            <line stroke="currentColor" x2="-6"></line><text fill="currentColor" x="-9" dy="0.32em">7.0k</text>
        </g>
    </g>
    <line class="grid-line" x1="81" y1="10.5" x2="770" y2="10.5" fill="none" stroke="lightgray" stroke-opacity="0.1">
    </line>

    <g>
        <text x="760" text-anchor="end" y="260" font-family="monospace" font-size="20"
            fill="#4338ca">ethr-mainnet</text>
        <path
            d="M80,229.104C87.93103448275862,229.104,95.86206896551724,229.104,103.79310344827586,229.104C111.72413793103448,229.104,119.6551724137931,229.104,127.58620689655172,229.104C135.51724137931032,229.104,143.44827586206895,229.104,151.37931034482756,229.104C159.3103448275862,229.104,167.2413793103448,229.104,175.17241379310343,229.104C183.10344827586206,229.104,191.03448275862067,229.104,198.9655172413793,229.104C206.89655172413794,229.104,214.82758620689654,229.104,222.75862068965517,229.104C230.6896551724138,229.104,238.6206896551724,229.104,246.55172413793105,229.104C254.48275862068968,229.104,262.4137931034483,229.104,270.3448275862069,229.104C278.2758620689655,229.104,286.2068965517242,229.104,294.1379310344828,229.104C302.0689655172414,229.104,310,229.104,317.9310344827586,229.104C325.8620689655172,229.104,333.7931034482758,229.104,341.7241379310344,229.104C349.6551724137931,229.104,357.5862068965517,229.104,365.51724137931035,229.104C373.44827586206895,229.104,381.37931034482756,229.104,389.31034482758616,229.104C397.24137931034477,229.104,405.17241379310343,229.104,413.10344827586204,229.104C421.03448275862064,229.104,428.9655172413793,229.104,436.8965517241379,229.104C444.82758620689657,229.104,452.7586206896552,229.104,460.68965517241384,229.104C468.62068965517244,229.104,476.55172413793105,229.104,484.48275862068965,229.104C492.4137931034483,229.104,500.3448275862069,229.104,508.2758620689656,229.104C516.2068965517242,229.104,524.1379310344828,229.104,532.0689655172414,229.104C540,229.104,547.9310344827586,229.104,555.8620689655172,229.104C563.7931034482758,229.104,571.7241379310345,229.104,579.6551724137931,229.104C587.5862068965517,229.104,595.5172413793102,229.104,603.4482758620688,229.104C611.3793103448276,229.104,619.3103448275862,229.104,627.2413793103449,229.104C635.1724137931035,229.104,643.103448275862,229.104,651.0344827586206,229.104C658.9655172413792,229.104,666.8965517241379,229.104,674.8275862068965,229.104C682.7586206896551,229.104,690.6896551724137,229.104,698.6206896551723,229.104C706.5517241379309,229.104,714.4827586206897,229.104,722.4137931034483,229.104C730.3448275862069,229.104,738.2758620689655,229.104,746.2068965517241,229.104C754.1379310344827,229.104,762.0689655172414,229.104,770,229.104"
            fill="none" stroke-linecap="round" stroke-linejoin="bevel" stroke="#4338ca" stroke-width="2"
            class="line ethr-mainnet"></path>
    </g>

    <g>
        <text x="760" text-anchor="end" y="40" font-family="monospace" font-size="20" fill="#059669">ethr-rinkeby</text>
        <path
            d="M80,13.771999999999993C87.93103448275862,13.771999999999993,95.86206896551724,13.771999999999993,103.79310344827586,13.771999999999993C111.72413793103448,13.771999999999993,119.6551724137931,13.771999999999993,127.58620689655172,13.771999999999993C135.51724137931032,13.771999999999993,143.44827586206895,13.771999999999993,151.37931034482756,13.771999999999993C159.3103448275862,13.771999999999993,167.2413793103448,13.771999999999993,175.17241379310343,13.771999999999993C183.10344827586206,13.771999999999993,191.03448275862067,13.771999999999993,198.9655172413793,13.771999999999993C206.89655172413794,13.771999999999993,214.82758620689654,13.771999999999993,222.75862068965517,13.771999999999993C230.6896551724138,13.771999999999993,238.6206896551724,13.771999999999993,246.55172413793105,13.771999999999993C254.48275862068968,13.771999999999993,262.4137931034483,13.771999999999993,270.3448275862069,13.771999999999993C278.2758620689655,13.771999999999993,286.2068965517242,13.771999999999993,294.1379310344828,13.771999999999993C302.0689655172414,13.771999999999993,310,13.771999999999993,317.9310344827586,13.771999999999993C325.8620689655172,13.771999999999993,333.7931034482758,13.771999999999993,341.7241379310344,13.771999999999993C349.6551724137931,13.771999999999993,357.5862068965517,13.771999999999993,365.51724137931035,13.771999999999993C373.44827586206895,13.771999999999993,381.37931034482756,13.771999999999993,389.31034482758616,13.771999999999993C397.24137931034477,13.771999999999993,405.17241379310343,13.771999999999993,413.10344827586204,13.771999999999993C421.03448275862064,13.771999999999993,428.9655172413793,13.771999999999993,436.8965517241379,13.771999999999993C444.82758620689657,13.771999999999993,452.7586206896552,13.771999999999993,460.68965517241384,13.771999999999993C468.62068965517244,13.771999999999993,476.55172413793105,13.771999999999993,484.48275862068965,13.771999999999993C492.4137931034483,13.771999999999993,500.3448275862069,13.771999999999993,508.2758620689656,13.771999999999993C516.2068965517242,13.771999999999993,524.1379310344828,13.771999999999993,532.0689655172414,13.771999999999993C540,13.771999999999993,547.9310344827586,13.771999999999993,555.8620689655172,13.771999999999993C563.7931034482758,13.771999999999993,571.7241379310345,13.771999999999993,579.6551724137931,13.771999999999993C587.5862068965517,13.771999999999993,595.5172413793102,13.771999999999993,603.4482758620688,13.771999999999993C611.3793103448276,13.771999999999993,619.3103448275862,13.771999999999993,627.2413793103449,13.771999999999993C635.1724137931035,13.771999999999993,643.103448275862,13.771999999999993,651.0344827586206,13.771999999999993C658.9655172413792,13.771999999999993,666.8965517241379,13.771999999999993,674.8275862068965,13.771999999999993C682.7586206896551,13.771999999999993,690.6896551724137,13.771999999999993,698.6206896551723,13.771999999999993C706.5517241379309,13.771999999999993,714.4827586206897,13.771999999999993,722.4137931034483,13.771999999999993C730.3448275862069,13.771999999999993,738.2758620689655,13.771999999999993,746.2068965517241,13.771999999999993C754.1379310344827,13.771999999999993,762.0689655172414,13.771999999999993,770,13.771999999999993"
            fill="none" stroke-linecap="round" stroke-linejoin="bevel" stroke="#059669" stroke-width="2"
            class="line ethr-rinkeby"></path>
    </g>


    <g>
        <text x="760" text-anchor="end" y="380" font-family="monospace" font-size="20" fill="#b45309">ethr-goerli</text>
        <path
            d="M80,395.154C87.93103448275862,394.006,95.86206896551724,392.85799999999995,103.79310344827586,392.85799999999995C111.72413793103448,392.85799999999995,119.6551724137931,392.85799999999995,127.58620689655172,392.85799999999995C135.51724137931032,392.85799999999995,143.44827586206895,392.53000000000003,151.37931034482756,392.53000000000003C159.3103448275862,392.53000000000003,167.2413793103448,392.53000000000003,175.17241379310343,392.53000000000003C183.10344827586206,392.53000000000003,191.03448275862067,392.53000000000003,198.9655172413793,392.53000000000003C206.89655172413794,392.53000000000003,214.82758620689654,392.44800000000004,222.75862068965517,392.44800000000004C230.6896551724138,392.44800000000004,238.6206896551724,392.44800000000004,246.55172413793105,392.44800000000004C254.48275862068968,392.44800000000004,262.4137931034483,392.44800000000004,270.3448275862069,392.44800000000004C278.2758620689655,392.44800000000004,286.2068965517242,392.3933333333333,294.1379310344828,392.366C302.0689655172414,392.33866666666665,310,392.284,317.9310344827586,392.284C325.8620689655172,392.284,333.7931034482758,392.284,341.7241379310344,392.284C349.6551724137931,392.284,357.5862068965517,391.92866666666663,365.51724137931035,391.87399999999997C373.44827586206895,391.8193333333333,381.37931034482756,391.8193333333333,389.31034482758616,391.792C397.24137931034477,391.76466666666664,405.17241379310343,391.73733333333337,413.10344827586204,391.71000000000004C421.03448275862064,391.6826666666667,428.9655172413793,391.6553333333333,436.8965517241379,391.628C444.82758620689657,391.60066666666665,452.7586206896552,391.5733333333333,460.68965517241384,391.546C468.62068965517244,391.51866666666666,476.55172413793105,391.46400000000006,484.48275862068965,391.46400000000006C492.4137931034483,391.46400000000006,500.3448275862069,391.46400000000006,508.2758620689656,391.46400000000006C516.2068965517242,391.46400000000006,524.1379310344828,391.46400000000006,532.0689655172414,391.46400000000006C540,391.46400000000006,547.9310344827586,391.46400000000006,555.8620689655172,391.46400000000006C563.7931034482758,391.46400000000006,571.7241379310345,391.46400000000006,579.6551724137931,391.46400000000006C587.5862068965517,391.46400000000006,595.5172413793102,391.382,603.4482758620688,391.382C611.3793103448276,391.382,619.3103448275862,391.382,627.2413793103449,391.382C635.1724137931035,391.382,643.103448275862,391.382,651.0344827586206,391.382C658.9655172413792,391.382,666.8965517241379,391.382,674.8275862068965,391.382C682.7586206896551,391.382,690.6896551724137,391.2726666666666,698.6206896551723,391.21799999999996C706.5517241379309,391.1633333333333,714.4827586206897,391.05400000000003,722.4137931034483,391.05400000000003C730.3448275862069,391.05400000000003,738.2758620689655,391.05400000000003,746.2068965517241,391.05400000000003C754.1379310344827,391.05400000000003,762.0689655172414,391.05400000000003,770,391.05400000000003"
            fill="none" stroke-linecap="round" stroke-linejoin="bevel" stroke="#b45309" class="line ethr-goerli"
            stroke-width="2"></path>
    </g>

</svg>